SplineFontDB: 3.2
FontName: MScore
FullName: MScore for scores
FamilyName: MScore
Weight: Regular

StartChar: .notdef
Encoding: 65536 -1 0
GlifName: _notdef
Width: 362
Flags: W
HStem: 0 33<66 265> 633 33<66 265>
VStem: 33 33<33 633> 265 33<33 633>
LayerCount: 2
Fore
SplineSet
33 0 m 1,0,-1
 33 666 l 1,1,-1
 298 666 l 1,2,-1
 298 0 l 1,3,-1
 33 0 l 1,0,-1
66 33 m 1,4,-1
 265 33 l 1,5,-1
 265 633 l 1,6,-1
 66 633 l 1,7,-1
 66 33 l 1,4,-1
EndSplineSet
EndChar

StartChar: plus
Encoding: 43 43 2
GlifName: plus
Width: 250
GlyphClass: 2
Flags: W
HStem: 225 51<8 100 150 242>
VStem: 100 51<125 225 275 375>
LayerCount: 2
Fore
SplineSet
125 125 m 128,-1,1
 115 125 115 125 107.5 133 c 128,-1,2
 100 141 100 141 100 150 c 2,3,-1
 100 225 l 1,4,-1
 25 225 l 2,5,6
 15 225 15 225 7.5 232.5 c 128,-1,7
 0 240 0 240 0 250.5 c 128,-1,8
 0 261 0 261 7.5 268 c 128,-1,9
 15 275 15 275 25 275 c 2,10,-1
 100 275 l 1,11,-1
 100 350 l 2,12,13
 100 360 100 360 107.5 367.5 c 128,-1,14
 115 375 115 375 125 375 c 128,-1,15
 135 375 135 375 142.5 367 c 128,-1,16
 150 359 150 359 150 350 c 2,17,-1
 150 275 l 1,18,-1
 225 275 l 2,19,20
 235 275 235 275 242.5 267.5 c 128,-1,21
 250 260 250 260 250 249.5 c 128,-1,22
 250 239 250 239 242.5 232 c 128,-1,23
 235 225 235 225 225 225 c 2,24,-1
 150 225 l 1,25,-1
 150 150 l 2,26,27
 150 140 150 140 142.5 132.5 c 128,-1,0
 135 125 135 125 125 125 c 128,-1,1
EndSplineSet
EndChar

StartChar: comma
Encoding: 44 44 3
GlifName: comma
Width: 114
GlyphClass: 2
Flags: W
HStem: -157 272<38 52>
VStem: 66 49<-60 67>
LayerCount: 2
Fore
SplineSet
47.5 -100 m 128,-1,1
 66 -62 66 -62 66 -41 c 128,-1,2
 66 -20 66 -20 56 -9.5 c 128,-1,3
 46 1 46 1 33.5 6 c 128,-1,4
 21 11 21 11 10.5 24 c 128,-1,5
 0 37 0 37 0 58.5 c 128,-1,6
 0 80 0 80 16.5 97.5 c 128,-1,7
 33 115 33 115 57.5 115 c 128,-1,8
 82 115 82 115 98.5 96.5 c 128,-1,9
 115 78 115 78 115 57 c 0,10,11
 115 -27 115 -27 57 -149 c 0,12,13
 52 -157 52 -157 45 -157 c 128,-1,14
 38 -157 38 -157 33.5 -152.5 c 128,-1,15
 29 -148 29 -148 29 -143 c 128,-1,0
 29 -138 29 -138 47.5 -100 c 128,-1,1
EndSplineSet
EndChar

StartChar: hyphen
Encoding: 45 45 4
GlifName: hyphen
Width: 165
GlyphClass: 2
Flags: W
HStem: 152 28<0 167>
VStem: 0 167<152 181>
LayerCount: 2
Fore
SplineSet
152 152 m 2,0,-1
 15 152 l 2,1,2
 0 152 0 152 0 166.5 c 128,-1,3
 0 181 0 181 15 181 c 2,4,-1
 152 181 l 2,5,6
 167 181 167 181 167 166.5 c 128,-1,7
 167 152 167 152 152 152 c 2,0,-1
EndSplineSet
EndChar

StartChar: period
Encoding: 46 46 5
GlifName: period
Width: 114
GlyphClass: 2
Flags: W
HStem: 0 115<13 102>
VStem: 0 115<13 102>
LayerCount: 2
Fore
SplineSet
0 57.5 m 128,-1,1
 0 82 0 82 18 98 c 0,2,3
 34 116 34 116 58 115.5 c 128,-1,4
 82 115 82 115 98 98 c 0,5,6
 116 81 116 81 115.5 57 c 128,-1,7
 115 33 115 33 98 18 c 0,8,9
 82 0 82 0 57.5 0 c 128,-1,10
 33 0 33 0 18 18 c 0,11,0
 0 33 0 33 0 57.5 c 128,-1,1
EndSplineSet
EndChar

StartChar: uniE09A
Encoding: 57498 57498 6
Width: 1024
VWidth: 1024
GlyphClass: 2
LayerCount: 2
Back
SplineSet
368 28 m 0,0,1
 342 28 342 28 316 48 c 0,2,3
 291 67 291 67 291 104 c 0,4,5
 291 135 291 135 312 159 c 0,6,7
 332 183 332 183 365 183 c 0,8,9
 376 183 376 183 379 182 c 1,10,11
 333 241 333 241 256 243 c 0,12,13
 224.5 243 224.5 243 202 234 c 0,14,15
 180 224 180 224 168 210 c 0,16,17
 157.5 196.5 157.5 196.5 150 168 c 0,18,19
 142 139 142 139 142 116 c 0,20,21
 140 100 140 100 140 52 c 2,22,-1
 140 0 l 1,23,-1
 140 -52 l 2,24,25
 140 -100 140 -100 142 -117 c 0,26,27
 144 -146 144 -146 150 -169 c 0,28,29
 158 -197 158 -197 168 -210 c 0,30,31
 180 -224 180 -224 202 -234 c 0,32,33
 223 -244 223 -244 256 -244 c 0,34,35
 316 -244 316 -244 358 -200 c 0,36,37
 401 -157 401 -157 418 -89 c 0,38,39
 421 -79 421 -79 430 -79 c 0,40,41
 443 -79 443 -79 443 -91 c 0,42,43
 443 -98.5 443 -98.5 437 -118 c 0,44,45
 431 -137 431 -137 416 -162 c 0,46,47
 404 -186 404 -186 382 -213 c 0,48,49
 362 -236 362 -236 328 -253 c 0,50,51
 296 -269 296 -269 256 -269 c 0,52,53
 211 -269 211 -269 164 -256 c 0,54,55
 118 -240 118 -240 83 -212 c 0,56,57
 44 -181 44 -181 22 -128 c 0,58,59
 0 -70 0 -70 0 0 c 0,60,61
 0 122 0 122 66 194 c 0,62,63
 130 268 130 268 256 268 c 0,64,65
 338 268 338 268 386 212 c 0,66,67
 436 156 436 156 436 101 c 0,68,69
 436 69 436 69 416 49 c 0,70,71
 398 28 398 28 368 28 c 0,0,1
EndSplineSet
Fore
Validated: 1
EndChar

StartChar: uniE0A2
Encoding: 57506 57506 7
GlifName: uniE_0A_2
Width: 494
GlyphClass: 2
Flags: W
HStem: -138 25<224 321> 112 25<175 270>
VStem: 0 146<-50 58> 349 146<-57 50>
LayerCount: 2
Fore
SplineSet
171 -55 m 0,0,1
 214 -113 214 -113 281.5 -112.5 c 128,-1,2
 349 -112 349 -112 349 -21 c 0,3,4
 349 22 349 22 324 55 c 0,5,6
 282 113 282 113 211 112 c 0,7,8
 180 112 180 112 163 86.5 c 128,-1,9
 146 61 146 61 146.5 19.5 c 128,-1,10
 147 -22 147 -22 171 -55 c 0,0,1
74 98 m 0,11,12
 147 138 147 138 250.5 138 c 128,-1,13
 354 138 354 138 424.5 97 c 128,-1,14
 495 56 495 56 495 -1 c 128,-1,15
 495 -58 495 -58 422 -98 c 128,-1,16
 349 -138 349 -138 247 -138 c 128,-1,17
 145 -138 145 -138 72.5 -97 c 128,-1,18
 0 -56 0 -56 0 2 c 128,-1,19
 0 60 0 60 74 98 c 0,11,12
EndSplineSet
EndChar

StartChar: uniE0A3
Encoding: 57507 57507 8
GlifName: uniE_0A_3
Width: 346
GlyphClass: 2
Flags: W
HStem: -138 31<42 119> 106 31<229 305>
VStem: 0 32<-97 -32> 315 32<31 97>
LayerCount: 2
Fore
SplineSet
74 -106 m 0,0,1
 102 -106 102 -106 192.5 -47.5 c 128,-1,2
 283 11 283 11 299 31 c 128,-1,3
 315 51 315 51 315 66.5 c 128,-1,4
 315 82 315 82 302.5 94 c 128,-1,5
 290 106 290 106 273 106 c 0,6,7
 244 106 244 106 153.5 47 c 128,-1,8
 63 -12 63 -12 47.5 -31.5 c 128,-1,9
 32 -51 32 -51 32 -66.5 c 128,-1,10
 32 -82 32 -82 44 -94 c 128,-1,11
 56 -106 56 -106 74 -106 c 0,0,1
264 138 m 0,12,13
 348 138 348 138 348 65 c 0,14,15
 348 30 348 30 327.5 -16 c 128,-1,16
 307 -62 307 -62 272 -87 c 0,17,18
 197 -138 197 -138 84 -138 c 0,19,20
 0 -138 0 -138 0 -65 c 0,21,22
 0 -33 0 -33 20 14.5 c 128,-1,23
 40 62 40 62 75 87 c 0,24,25
 151 138 151 138 264 138 c 0,12,13
EndSplineSet
EndChar

StartChar: uniE101
Encoding: 57601 57601 9
GlifName: uniE_101
Width: 428
GlyphClass: 2
Flags: W
LayerCount: 2
Fore
SplineSet
10 -263 m 2,0,1
 0 -263 0 -263 0 -252 c 0,2,3
 0 -248 0 -248 1 -247 c 2,4,-1
 310 258 l 2,5,6
 313 263 313 263 319 263 c 2,7,-1
 419 263 l 2,8,9
 429 263 429 263 429 252 c 1,10,11
 429 252 429 252 428 250 c 2,12,13
 428 248 428 248 427 247 c 2,14,-1
 119 -258 l 2,15,16
 116 -263 116 -263 110 -263 c 2,17,-1
 10 -263 l 2,0,1
EndSplineSet
EndChar

StartChar: uniE102
Encoding: 57602 57602 10
GlifName: uniE_102
Width: 754
GlyphClass: 2
Flags: W
HStem: -263 69<117 401> 193 69<352 637>
LayerCount: 2
Fore
SplineSet
117 -193 m 1,0,-1
 401 -193 l 1,1,-1
 637 193 l 1,2,-1
 352 193 l 1,3,-1
 117 -193 l 1,0,-1
754 252 m 1,4,5
 752 248 752 248 752 247 c 2,6,-1
 444 -258 l 2,7,8
 441 -263 441 -263 435 -263 c 2,9,-1
 10 -263 l 2,10,11
 0 -263 0 -263 0 -252 c 0,12,13
 0 -248 0 -248 1 -247 c 2,14,-1
 310 258 l 2,15,16
 313 263 313 263 319 263 c 2,17,-1
 744 263 l 2,18,19
 754 263 754 263 754 252 c 1,4,5
EndSplineSet
EndChar

StartChar: uniE103
Encoding: 57603 57603 11
GlifName: uniE_103
Width: 586
GlyphClass: 2
Flags: W
HStem: -263 69<117 234> 193 69<352 469>
LayerCount: 2
Fore
SplineSet
117 -193 m 1,0,-1
 234 -193 l 1,1,-1
 469 193 l 1,2,-1
 352 193 l 1,3,-1
 117 -193 l 1,0,-1
10 -263 m 2,4,5
 0 -263 0 -263 0 -252 c 0,6,7
 0 -248 0 -248 1 -247 c 2,8,-1
 310 258 l 2,9,10
 313 263 313 263 319 263 c 2,11,-1
 576 263 l 2,12,13
 586 263 586 263 586 252 c 0,14,15
 586 248 586 248 585 247 c 2,16,-1
 276 -258 l 2,17,18
 273 -263 273 -263 267 -263 c 2,19,-1
 10 -263 l 2,4,5
EndSplineSet
EndChar

StartChar: uniE1B0
Encoding: 57776 57776 12
GlifName: uniE_1B_0
Width: 338
GlyphClass: 2
Flags: W
HStem: -135 31<40 116> 104 30<224 298>
VStem: 0 31<-94 -30> 308 31<30 94>
LayerCount: 2
Fore
SplineSet
298 36 m 0,0,1
 308 46 308 46 308 63 c 128,-1,2
 308 80 308 80 295 92 c 128,-1,3
 282 104 282 104 270 104 c 128,-1,4
 258 104 258 104 255 103 c 0,5,6
 230 96 230 96 144.5 40.5 c 128,-1,7
 59 -15 59 -15 45 -32.5 c 128,-1,8
 31 -50 31 -50 31 -65 c 128,-1,9
 31 -80 31 -80 44 -92 c 128,-1,10
 57 -104 57 -104 69 -104 c 128,-1,11
 81 -104 81 -104 84 -103 c 0,12,13
 114 -94 114 -94 197.5 -39.5 c 128,-1,14
 281 15 281 15 298 36 c 0,0,1
258 134 m 0,15,16
 296 134 296 134 316 116 c 0,17,18
 338 99 338 99 338.5 68.5 c 128,-1,19
 339 38 339 38 329 9 c 0,20,21
 307 -57 307 -57 266 -85 c 0,22,23
 191 -135 191 -135 82 -135 c 0,24,25
 45 -135 45 -135 22.5 -116.5 c 128,-1,26
 0 -98 0 -98 0 -71 c 128,-1,27
 0 -44 0 -44 11 -9 c 0,28,29
 33 57 33 57 73 85 c 0,30,31
 148 134 148 134 258 134 c 0,15,16
EndSplineSet
EndChar

StartChar: uniE1B1
Encoding: 57777 57777 13
GlifName: uniE_1B_1
Width: 338
GlyphClass: 2
Flags: W
HStem: -135 269<129 210>
LayerCount: 2
Fore
SplineSet
258 134 m 0,0,1
 296 134 296 134 316 116 c 0,2,3
 338 99 338 99 338.5 68.5 c 128,-1,4
 339 38 339 38 329 9 c 0,5,6
 307 -57 307 -57 266 -85 c 0,7,8
 191 -135 191 -135 82 -135 c 0,9,10
 45 -135 45 -135 22.5 -116.5 c 128,-1,11
 0 -98 0 -98 0 -71 c 128,-1,12
 0 -44 0 -44 11 -9 c 0,13,14
 33 57 33 57 73 85 c 0,15,16
 148 134 148 134 258 134 c 0,0,1
EndSplineSet
EndChar

StartChar: uniE1B2
Encoding: 57778 57778 14
GlifName: uniE_1B_2
Width: 346
GlyphClass: 2
Flags: W
HStem: -112 43<44 304> 69 43<44 304>
VStem: 0 44<-69 69> 304 43<-69 69>
LayerCount: 2
Fore
SplineSet
44 69 m 1,0,-1
 44 -69 l 1,1,-1
 304 -69 l 1,2,-1
 304 69 l 1,3,-1
 44 69 l 1,0,-1
22 112 m 2,4,-1
 326 112 l 2,5,6
 335 112 335 112 341 106 c 128,-1,7
 347 100 347 100 347 91 c 2,8,-1
 347 -91 l 2,9,10
 347 -100 347 -100 341 -106 c 128,-1,11
 335 -112 335 -112 326 -112 c 2,12,-1
 22 -112 l 2,13,14
 13 -112 13 -112 6.5 -106 c 128,-1,15
 0 -100 0 -100 0 -91 c 2,16,-1
 0 91 l 2,17,18
 0 100 0 100 6.5 106 c 128,-1,19
 13 112 13 112 22 112 c 2,4,-1
EndSplineSet
EndChar

StartChar: uniE1B3
Encoding: 57779 57779 15
GlifName: uniE_1B_3
Width: 328
GlyphClass: 2
Flags: W
HStem: -112 225<0 323>
VStem: 0 329<-106 112>
LayerCount: 2
Fore
SplineSet
22 112 m 2,0,-1
 307 112 l 2,1,2
 316 112 316 112 322.5 106 c 128,-1,3
 329 100 329 100 329 91 c 2,4,-1
 329 -91 l 2,5,6
 329 -100 329 -100 322.5 -106 c 128,-1,7
 316 -112 316 -112 307 -112 c 2,8,-1
 22 -112 l 2,9,10
 13 -112 13 -112 6.5 -106 c 128,-1,11
 0 -100 0 -100 0 -91 c 2,12,-1
 0 91 l 2,13,14
 0 100 0 100 6.5 106 c 128,-1,15
 13 112 13 112 22 112 c 2,0,-1
EndSplineSet
EndChar

StartChar: uniE1B4
Encoding: 57780 57780 16
GlifName: uniE_1B_4
Width: 346
GlyphClass: 2
Flags: W
HStem: -112 43<44 246>
VStem: 0 44<-69 52>
LayerCount: 2
Fore
SplineSet
246 -69 m 1,0,-1
 44 52 l 1,1,-1
 44 -69 l 1,2,-1
 246 -69 l 1,0,-1
347 -89 m 128,-1,4
 347 -100 347 -100 341 -106 c 128,-1,5
 335 -112 335 -112 326 -112 c 2,6,-1
 22 -112 l 2,7,8
 13 -112 13 -112 6.5 -106 c 128,-1,9
 0 -100 0 -100 0 -91 c 2,10,-1
 0 91 l 2,11,12
 0 100 0 100 6.5 106 c 128,-1,13
 13 112 13 112 20.5 112 c 128,-1,14
 28 112 28 112 39 105 c 2,15,-1
 332 -69 l 2,16,3
 347 -78 347 -78 347 -89 c 128,-1,4
EndSplineSet
EndChar

StartChar: uniE1B5
Encoding: 57781 57781 17
GlifName: uniE_1B_5
Width: 328
GlyphClass: 2
Flags: W
HStem: -112 225<0 61>
VStem: 0 329<-106 -67>
LayerCount: 2
Fore
SplineSet
319 -72 m 2,0,1
 329 -79 329 -79 329 -89.5 c 128,-1,2
 329 -100 329 -100 322.5 -106 c 128,-1,3
 316 -112 316 -112 307 -112 c 2,4,-1
 22 -112 l 2,5,6
 13 -112 13 -112 6.5 -106 c 128,-1,7
 0 -100 0 -100 0 -91 c 2,8,-1
 0 91 l 2,9,10
 0 100 0 100 6.5 106 c 128,-1,11
 13 112 13 112 20.5 112 c 128,-1,12
 28 112 28 112 34 109 c 2,13,-1
 319 -72 l 2,0,1
EndSplineSet
EndChar

StartChar: uniE1B6
Encoding: 57782 57782 18
GlifName: uniE_1B_6
Width: 346
GlyphClass: 2
Flags: W
HStem: 69 43<101 304>
VStem: 304 43<-52 69>
LayerCount: 2
Fore
SplineSet
101 69 m 1,0,-1
 304 -52 l 1,1,-1
 304 69 l 1,2,-1
 101 69 l 1,0,-1
11 72 m 2,3,4
 0 78 0 78 0 89 c 128,-1,5
 0 100 0 100 6.5 106 c 128,-1,6
 13 112 13 112 22 112 c 2,7,-1
 326 112 l 2,8,9
 335 112 335 112 341 106 c 128,-1,10
 347 100 347 100 347 91 c 2,11,-1
 347 -91 l 2,12,13
 347 -99 347 -99 341 -105.5 c 128,-1,14
 335 -112 335 -112 326.5 -112 c 128,-1,15
 318 -112 318 -112 314 -109 c 2,16,-1
 11 72 l 2,3,4
EndSplineSet
EndChar

StartChar: uniE1B7
Encoding: 57783 57783 19
GlifName: uniE_1B_7
Width: 328
GlyphClass: 2
Flags: W
HStem: -112 225<268 329>
VStem: 0 329<67 106>
LayerCount: 2
Fore
SplineSet
10 72 m 2,0,1
 0 79 0 79 0 89.5 c 128,-1,2
 0 100 0 100 6.5 106 c 128,-1,3
 13 112 13 112 22 112 c 2,4,-1
 307 112 l 2,5,6
 316 112 316 112 322.5 106 c 128,-1,7
 329 100 329 100 329 91 c 2,8,-1
 329 -91 l 2,9,10
 329 -100 329 -100 322.5 -106 c 128,-1,11
 316 -112 316 -112 308.5 -112 c 128,-1,12
 301 -112 301 -112 295 -109 c 2,13,-1
 10 72 l 2,0,1
EndSplineSet
EndChar

StartChar: uniE1B8
Encoding: 57784 57784 20
GlifName: uniE_1B_8
Width: 328
GlyphClass: 2
Flags: W
HStem: -112 225<159 170>
VStem: 0 329<-11 11>
LayerCount: 2
Fore
SplineSet
73 6 m 1,0,-1
 175 -58 l 1,1,-1
 256 -6 l 1,2,-1
 154 58 l 1,3,-1
 73 6 l 1,0,-1
10 -18 m 2,4,5
 0 -11 0 -11 0 0 c 128,-1,6
 0 11 0 11 10 18 c 2,7,-1
 153 109 l 2,8,9
 159 112 159 112 164.5 112 c 128,-1,10
 170 112 170 112 176 109 c 2,11,-1
 319 18 l 2,12,13
 329 11 329 11 329 0 c 128,-1,14
 329 -11 329 -11 319 -18 c 2,15,-1
 176 -109 l 2,16,17
 170 -112 170 -112 164.5 -112 c 128,-1,18
 159 -112 159 -112 153 -109 c 2,19,-1
 10 -18 l 2,4,5
EndSplineSet
EndChar

StartChar: uniE1B9
Encoding: 57785 57785 21
GlifName: uniE_1B_9
Width: 328
GlyphClass: 2
Flags: W
HStem: -112 225<124 205>
VStem: 0 329<-25 25>
LayerCount: 2
Fore
SplineSet
10 -18 m 2,0,1
 0 -11 0 -11 0 0 c 128,-1,2
 0 11 0 11 10 18 c 2,3,-1
 153 109 l 2,4,5
 159 112 159 112 164.5 112 c 128,-1,6
 170 112 170 112 176 109 c 2,7,-1
 319 18 l 2,8,9
 329 11 329 11 329 0 c 128,-1,10
 329 -11 329 -11 319 -18 c 2,11,-1
 176 -109 l 2,12,13
 170 -112 170 -112 164.5 -112 c 128,-1,14
 159 -112 159 -112 153 -109 c 2,15,-1
 10 -18 l 2,0,1
EndSplineSet
EndChar

StartChar: uniE1BA
Encoding: 57786 57786 22
GlifName: uniE_1B_A_
Width: 346
GlyphClass: 2
Flags: W
HStem: -112 43<69 279>
LayerCount: 2
Fore
SplineSet
69 -69 m 1,0,-1
 279 -69 l 1,1,-1
 174 57 l 1,2,-1
 69 -69 l 1,0,-1
22 -112 m 2,3,4
 13 -112 13 -112 6.5 -106 c 128,-1,5
 0 -100 0 -100 0 -92.5 c 128,-1,6
 0 -85 0 -85 5 -77 c 1,7,-1
 157 105 l 2,8,9
 163 113 163 113 173.5 113 c 128,-1,10
 184 113 184 113 191 105 c 1,11,-1
 342 -77 l 1,12,13
 347 -85 347 -85 347 -92.5 c 128,-1,14
 347 -100 347 -100 341 -106 c 128,-1,15
 335 -112 335 -112 326 -112 c 2,16,-1
 22 -112 l 2,3,4
EndSplineSet
EndChar

StartChar: uniE1BB
Encoding: 57787 57787 23
GlifName: uniE_1B_B_
Width: 328
GlyphClass: 2
Flags: W
HStem: -112 226<139 191>
VStem: 0 329<-106 -57>
LayerCount: 2
Fore
SplineSet
22 -112 m 2,0,1
 13 -112 13 -112 6.5 -106 c 128,-1,2
 0 -100 0 -100 0 -92 c 128,-1,3
 0 -84 0 -84 5 -77 c 2,4,-1
 147 104 l 2,5,6
 154 114 154 114 165 113.5 c 128,-1,7
 176 113 176 113 183 104 c 2,8,-1
 324 -77 l 2,9,10
 329 -84 329 -84 329 -92 c 128,-1,11
 329 -100 329 -100 322.5 -106 c 128,-1,12
 316 -112 316 -112 307 -112 c 2,13,-1
 22 -112 l 2,0,1
EndSplineSet
EndChar

StartChar: uniE1BC
Encoding: 57788 57788 24
GlifName: uniE_1B_C_
Width: 346
GlyphClass: 2
Flags: W
HStem: -112 43<95 253> 69 43<44 304>
VStem: 0 44<-24 69> 304 43<-23 69>
LayerCount: 2
Fore
SplineSet
44 69 m 1,0,-1
 44 36 l 2,1,2
 44 -10 44 -10 82.5 -39.5 c 128,-1,3
 121 -69 121 -69 174 -69 c 128,-1,4
 227 -69 227 -69 265.5 -39.5 c 128,-1,5
 304 -10 304 -10 304 36 c 2,6,-1
 304 69 l 1,7,-1
 44 69 l 1,0,-1
0 91 m 2,8,9
 0 100 0 100 6.5 106 c 128,-1,10
 13 112 13 112 22 112 c 2,11,-1
 326 112 l 2,12,13
 335 112 335 112 341 106 c 128,-1,14
 347 100 347 100 347 91 c 2,15,-1
 347 36 l 2,16,17
 347 -28 347 -28 296 -70 c 128,-1,18
 245 -112 245 -112 174 -112 c 128,-1,19
 103 -112 103 -112 51 -70 c 0,20,21
 0 -27 0 -27 0 36 c 2,22,-1
 0 91 l 2,8,9
EndSplineSet
EndChar

StartChar: uniE1BD
Encoding: 57789 57789 25
GlifName: uniE_1B_D_
Width: 328
GlyphClass: 2
Flags: W
HStem: -112 225<78 251>
VStem: 0 329<-38 106>
LayerCount: 2
Fore
SplineSet
0 91 m 2,0,1
 0 100 0 100 6.5 106 c 128,-1,2
 13 112 13 112 22 112 c 2,3,-1
 307 112 l 2,4,5
 316 112 316 112 322.5 106 c 128,-1,6
 329 100 329 100 329 91 c 2,7,-1
 329 36 l 2,8,9
 329 -26 329 -26 281 -70 c 1,10,11
 230 -112 230 -112 164.5 -112 c 128,-1,12
 99 -112 99 -112 49 -70 c 0,13,14
 0 -26 0 -26 0 36 c 2,15,-1
 0 91 l 2,0,1
EndSplineSet
EndChar

StartChar: uniE1BE
Encoding: 57790 57790 26
GlifName: uniE_1B_E_
Width: 346
GlyphClass: 2
Flags: W
HStem: 69 43<87 261>
LayerCount: 2
Fore
SplineSet
174 -63 m 1,0,-1
 292 27 l 1,1,2
 241 69 241 69 173.5 69 c 128,-1,3
 106 69 106 69 56 27 c 1,4,-1
 174 -63 l 1,0,-1
174 112 m 128,-1,6
 222 112 222 112 262 94 c 0,7,8
 303 77 303 77 325.5 56 c 128,-1,9
 348 35 348 35 348 25.5 c 128,-1,10
 348 16 348 16 339 8 c 2,11,-1
 187 -108 l 2,12,13
 183 -112 183 -112 173.5 -112 c 128,-1,14
 164 -112 164 -112 160 -108 c 2,15,-1
 9 8 l 2,16,17
 0 16 0 16 0 26 c 128,-1,18
 0 36 0 36 21 57 c 0,19,20
 44 77 44 77 85 94.5 c 128,-1,5
 126 112 126 112 174 112 c 128,-1,6
EndSplineSet
EndChar

StartChar: uniE1BF
Encoding: 57791 57791 27
GlifName: uniE_1B_F_
Width: 328
GlyphClass: 2
Flags: W
HStem: -112 225<131 198>
VStem: 0 329<-3 53>
LayerCount: 2
Fore
SplineSet
20 56 m 0,0,1
 41 77 41 77 80.5 94.5 c 128,-1,2
 120 112 120 112 159 112 c 0,3,4
 258 112 258 112 316 45 c 0,5,6
 329 30 329 30 329 23 c 128,-1,7
 329 16 329 16 321 8 c 1,8,-1
 178 -108 l 2,9,10
 174 -112 174 -112 164.5 -112 c 128,-1,11
 155 -112 155 -112 151 -108 c 2,12,-1
 8 8 l 2,13,14
 0 14 0 14 0 24.5 c 128,-1,15
 0 35 0 35 20 56 c 0,0,1
EndSplineSet
EndChar

StartChar: uniE1C0
Encoding: 57792 57792 28
GlifName: uniE_1C_0
Width: 240
VWidth: 976
GlyphClass: 2
Flags: W
HStem: -109 47<76 165> 62 47<41 200>
VStem: 0 240<92 107>
LayerCount: 2
Fore
SplineSet
165 -62 m 1,0,-1
 200 62 l 1,1,-1
 41 62 l 1,2,-1
 76 -62 l 1,3,-1
 165 -62 l 1,0,-1
173 -109 m 2,4,-1
 68 -109 l 2,5,6
 55 -109 55 -109 53 -99 c 2,7,-1
 1 90 l 1,8,9
 1 90 1 90 0 92 c 1,10,-1
 0 94 l 2,11,12
 0 110 0 110 16 109 c 2,13,-1
 226 109 l 2,14,15
 242 109 242 109 241 94 c 1,16,-1
 240 92 l 1,17,-1
 240 90 l 1,18,-1
 188 -99 l 2,19,20
 186 -109 186 -109 173 -109 c 2,4,-1
EndSplineSet
EndChar

StartChar: uniE1C3
Encoding: 57795 57795 29
GlifName: uniE_1C_3
Width: 240
VWidth: 976
GlyphClass: 2
Flags: W
HStem: -110 220<9 170>
VStem: 42 199<-57 56>
LayerCount: 2
Fore
SplineSet
16 109 m 0,0,1
 242 109 242 109 241.5 -0.5 c 128,-1,2
 241 -110 241 -110 16 -110 c 0,3,4
 9 -110 9 -110 4.5 -105.5 c 128,-1,5
 0 -101 0 -101 0 -94 c 128,-1,6
 0 -87 0 -87 5 -82 c 0,7,8
 42 -50 42 -50 42 0 c 128,-1,9
 42 50 42 50 5 82 c 0,10,11
 0 87 0 87 0 94 c 0,12,13
 0 109 0 109 16 109 c 0,0,1
EndSplineSet
EndChar

StartChar: uniE1C4
Encoding: 57796 57796 30
GlifName: uniE_1C_4
Width: 240
VWidth: 976
GlyphClass: 2
Flags: W
HStem: -109 219<212 241>
VStem: 209 32<-56 56>
LayerCount: 2
Fore
SplineSet
86 0 m 1,0,-1
 209 -56 l 1,1,-1
 209 56 l 1,2,-1
 86 0 l 1,0,-1
10 -15 m 2,3,4
 0 -10 0 -10 0 0 c 128,-1,5
 0 10 0 10 10 15 c 2,6,-1
 219 108 l 2,7,8
 221 109 221 109 226 109 c 0,9,10
 242 109 242 109 241 94 c 2,11,-1
 241 -94 l 2,12,13
 241 -110 241 -110 226 -109 c 0,14,15
 221 -109 221 -109 219 -108 c 2,16,-1
 10 -15 l 2,3,4
EndSplineSet
EndChar

StartChar: uniE1C5
Encoding: 57797 57797 31
GlifName: uniE_1C_5
Width: 240
VWidth: 976
GlyphClass: 2
Flags: W
HStem: -109 219<173 241>
VStem: 0 241<-19 19>
LayerCount: 2
Fore
SplineSet
10 -15 m 2,0,1
 0 -10 0 -10 0 0 c 128,-1,2
 0 10 0 10 10 15 c 2,3,-1
 219 108 l 2,4,5
 221 109 221 109 226 109 c 0,6,7
 242 109 242 109 241 94 c 2,8,-1
 241 -94 l 2,9,10
 241 -110 241 -110 226 -109 c 0,11,12
 221 -109 221 -109 219 -108 c 2,13,-1
 10 -15 l 2,0,1
EndSplineSet
EndChar

StartChar: uniE1C7
Encoding: 57799 57799 32
GlifName: uniE_1C_7
Width: 240
VWidth: 976
GlyphClass: 2
Flags: W
HStem: -109 220<71 237>
VStem: 0 241<-55 56>
LayerCount: 2
Fore
SplineSet
226 -109 m 0,0,1
 0 -109 0 -109 0 0.5 c 128,-1,2
 0 110 0 110 226 110 c 0,3,4
 233 110 233 110 237 105.5 c 128,-1,5
 241 101 241 101 241 94 c 2,6,-1
 241 -94 l 2,7,8
 242 -109 242 -109 226 -109 c 0,0,1
EndSplineSet
EndChar

StartChar: uniE1C8
Encoding: 57800 57800 33
GlifName: uniE_1C_8
Width: 240
VWidth: 976
GlyphClass: 2
Flags: W
HStem: -109 219<193 241>
VStem: 188 31<-42 42>
LayerCount: 2
Fore
SplineSet
65 0 m 1,0,-1
 192 -43 l 1,1,2
 188 -24 188 -24 188 0 c 128,-1,3
 188 24 188 24 192 43 c 1,4,-1
 65 0 l 1,0,-1
10 -15 m 2,5,6
 0 -10 0 -10 0 0 c 128,-1,7
 0 10 0 10 10 15 c 2,8,-1
 219 108 l 2,9,10
 221 109 221 109 226 109 c 0,11,12
 242 109 242 109 241 94 c 0,13,14
 241 91 241 91 230.5 60.5 c 128,-1,15
 220 30 220 30 220 0 c 128,-1,16
 220 -30 220 -30 230.5 -60.5 c 128,-1,17
 241 -91 241 -91 241 -94 c 0,18,19
 241 -110 241 -110 226 -109 c 0,20,21
 221 -109 221 -109 219 -108 c 2,22,-1
 10 -15 l 2,5,6
EndSplineSet
EndChar

StartChar: uniE1C9
Encoding: 57801 57801 34
GlifName: uniE_1C_9
Width: 240
VWidth: 976
GlyphClass: 2
Flags: W
HStem: -109 219<173 241>
VStem: 0 241
LayerCount: 2
Fore
SplineSet
10 -15 m 2,0,1
 0 -10 0 -10 0 0 c 128,-1,2
 0 10 0 10 10 15 c 2,3,-1
 219 108 l 2,4,5
 221 109 221 109 226 109 c 0,6,7
 242 109 242 109 241 94 c 0,8,9
 241 91 241 91 230.5 60.5 c 128,-1,10
 220 30 220 30 220 0 c 128,-1,11
 220 -30 220 -30 230.5 -60.5 c 128,-1,12
 241 -91 241 -91 241 -94 c 0,13,14
 241 -110 241 -110 226 -109 c 0,15,16
 221 -109 221 -109 219 -108 c 2,17,-1
 10 -15 l 2,0,1
EndSplineSet
EndChar

StartChar: uniE1CA
Encoding: 57802 57802 35
GlifName: uniE_1C_A_
Width: 240
VWidth: 976
GlyphClass: 2
Flags: W
HStem: -110 221<182 188>
VStem: 209 32<-58 58>
LayerCount: 2
Fore
SplineSet
56 0 m 1,0,-1
 192 -60 l 1,1,2
 209 -33 209 -33 209 -0.5 c 128,-1,3
 209 32 209 32 192 60 c 1,4,-1
 56 0 l 1,0,-1
8 -14 m 2,5,6
 0 -9 0 -9 0 0 c 128,-1,7
 0 9 0 9 8 14 c 2,8,-1
 176 107 l 2,9,10
 182 110 182 110 185 110 c 128,-1,11
 188 110 188 110 197 102 c 0,12,13
 241 61 241 61 241 0 c 128,-1,14
 241 -61 241 -61 197 -102 c 0,15,16
 188 -111 188 -111 185 -110.5 c 128,-1,17
 182 -110 182 -110 176 -107 c 2,18,-1
 8 -14 l 2,5,6
EndSplineSet
EndChar

StartChar: uniE4A0
Encoding: 58528 58528 36
GlifName: uniE_4A_0
Width: 449
GlyphClass: 2
Flags: W
HStem: 0 21G<6 15> 232 20G<6 15>
LayerCount: 2
Fore
SplineSet
449 126 m 128,-1,1
 449 107 449 107 431 107 c 1,2,-1
 19 1 l 2,3,4
 17 0 17 0 13 0 c 0,5,6
 0 0 0 0 0 17.5 c 128,-1,7
 0 35 0 35 14 38 c 2,8,-1
 265 103 l 1,9,-1
 404 126 l 1,10,-1
 265 149 l 1,11,-1
 14 214 l 2,12,13
 0 217 0 217 0 234.5 c 128,-1,14
 0 252 0 252 13 252 c 0,15,16
 17 252 17 252 19 251 c 2,17,-1
 431 145 l 1,18,0
 449 145 449 145 449 126 c 128,-1,1
EndSplineSet
EndChar

StartChar: uniE4A2
Encoding: 58530 58530 38
GlifName: uniE_4A_2
Width: 99
GlyphClass: 2
Flags: W
HStem: 0 100<15 85>
VStem: 0 100<15 85>
LayerCount: 2
Fore
SplineSet
0 49.5 m 128,-1,1
 0 70 0 70 14.5 85 c 128,-1,2
 29 100 29 100 49.5 100 c 128,-1,3
 70 100 70 100 85 85 c 128,-1,4
 100 70 100 70 100 49.5 c 128,-1,5
 100 29 100 29 85 14.5 c 128,-1,6
 70 0 70 0 49.5 0 c 128,-1,7
 29 0 29 0 14.5 14.5 c 128,-1,0
 0 29 0 29 0 49.5 c 128,-1,1
EndSplineSet
EndChar

StartChar: uniE4A4
Encoding: 58532 58532 40
GlifName: uniE_4A_4
Width: 300
GlyphClass: 2
Flags: W
HStem: 0 39<0 294>
VStem: 0 301<5 34>
LayerCount: 2
Fore
SplineSet
280 0 m 2,0,-1
 21 0 l 2,1,2
 14 0 14 0 7 5 c 128,-1,3
 0 10 0 10 0 18.5 c 128,-1,4
 0 27 0 27 7 33 c 128,-1,5
 14 39 14 39 21 39 c 2,6,-1
 280 39 l 2,7,8
 287 39 287 39 294 34 c 128,-1,9
 301 29 301 29 301 19.5 c 128,-1,10
 301 10 301 10 294 5 c 128,-1,11
 287 0 287 0 280 0 c 2,0,-1
EndSplineSet
EndChar

StartChar: fadeout
Encoding: 59460 59460 44
GlifName: fadeout
Width: 353
VWidth: 976
Flags: W
HStem: 0 21G<9 21> 163 29<307 354>
LayerCount: 2
Fore
SplineSet
3 332 m 0,0,1
 0 336 0 336 0 342.5 c 128,-1,2
 0 349 0 349 6 352.5 c 128,-1,3
 12 356 12 356 17.5 356 c 128,-1,4
 23 356 23 356 28 350 c 0,5,6
 60 304 60 304 270 221 c 0,7,8
 339 194 339 194 346.5 192 c 128,-1,9
 354 190 354 190 354 178 c 128,-1,10
 354 166 354 166 343 163 c 0,11,12
 334 163 334 163 192 104 c 128,-1,13
 50 45 50 45 28 7 c 0,14,15
 24 0 24 0 18 0 c 0,16,17
 0 0 0 0 0 16 c 0,18,19
 0 20 0 20 3 24 c 0,20,21
 38 84 38 84 292 178 c 1,22,23
 289 179 289 179 253 193 c 0,24,25
 42 274 42 274 3 332 c 0,0,1
EndSplineSet
EndChar

StartChar: fadein
Encoding: 59459 59459 45
GlifName: fadein
Width: 353
VWidth: 976
Flags: W
HStem: 0 21G<333 345> 165 29<0 45>
LayerCount: 2
Fore
SplineSet
354 14 m 0,0,1
 354 0 354 0 336 0 c 0,2,3
 330 0 330 0 325 7 c 0,4,5
 292 54 292 54 84 136 c 0,6,7
 15 163 15 163 7.5 164.5 c 128,-1,8
 0 166 0 166 0 178 c 128,-1,9
 0 190 0 190 11 193 c 0,10,11
 20 193 20 193 158 250.5 c 128,-1,12
 296 308 296 308 325 350 c 0,13,14
 330 357 330 357 336 356 c 0,15,16
 354 356 354 356 354 341 c 0,17,18
 354 336 354 336 351 332 c 0,19,20
 312 274 312 274 104 194 c 0,21,22
 66 179 66 179 62 178 c 1,23,24
 309 86 309 86 351 24 c 0,25,26
 354 21 354 21 354 14 c 0,0,1
EndSplineSet
EndChar

StartChar: volumeswell
Encoding: 59461 59461 46
GlifName: volumeswell
Width: 707
VWidth: 976
Flags: W
HStem: 0 21G<328 335 367 379> 164 30<-5 44 662 712>
LayerCount: 2
Fore
SplineSet
361 332 m 0,0,1
 358 336 358 336 358 342.5 c 128,-1,2
 358 349 358 349 363.5 352.5 c 128,-1,3
 369 356 369 356 375.5 356 c 128,-1,4
 382 356 382 356 387 350 c 0,5,6
 420 301 420 301 627 221 c 0,7,8
 697 194 697 194 704.5 192 c 128,-1,9
 712 190 712 190 712 178 c 128,-1,10
 712 166 712 166 701 163 c 0,11,12
 692 163 692 163 550 104 c 128,-1,13
 408 45 408 45 387 7 c 0,14,15
 383 0 383 0 376 0 c 0,16,17
 358 0 358 0 358 16 c 0,18,19
 358 20 358 20 361 24 c 0,20,21
 396 84 396 84 650 178 c 1,22,23
 647 179 647 179 611 193 c 0,24,25
 400 274 400 274 361 332 c 0,0,1
346 332 m 0,26,27
 307 274 307 274 99 194 c 0,28,29
 61 179 61 179 57 178 c 1,30,31
 304 86 304 86 346 24 c 0,32,33
 349 20 349 20 349 14 c 128,-1,34
 349 8 349 8 343.5 4 c 128,-1,35
 338 0 338 0 331.5 0 c 128,-1,36
 325 0 325 0 320 7 c 0,37,38
 287 56 287 56 80 136 c 0,39,40
 15 161 15 161 5 163.5 c 128,-1,41
 -5 166 -5 166 -5 179.5 c 128,-1,42
 -5 193 -5 193 5 193 c 128,-1,43
 15 193 15 193 152.5 250.5 c 128,-1,44
 290 308 290 308 320 350 c 0,45,46
 325 357 325 357 332 356 c 0,47,48
 349 356 349 356 349 341 c 0,49,50
 349 336 349 336 346 332 c 0,26,27
EndSplineSet
EndChar

StartChar: wigglesawtooth
Encoding: 60091 60091 47
GlifName: wigglesawtooth
Width: 730
VWidth: 976
Flags: W
LayerCount: 2
Fore
SplineSet
-17 543 m 0,0,1
 -17 558 -17 558 -1 558 c 0,2,3
 6 558 6 558 11 552 c 2,4,-1
 364 80 l 1,5,-1
 718 552 l 2,6,7
 723 558 723 558 728.5 558 c 128,-1,8
 734 558 734 558 740.5 553.5 c 128,-1,9
 747 549 747 549 747 544 c 128,-1,10
 747 539 747 539 743 533 c 2,11,-1
 376 45 l 1,12,13
 372 38 372 38 364 38 c 128,-1,14
 356 38 356 38 353 45 c 1,15,-1
 -15 533 l 2,16,17
 -17 536 -17 536 -17 543 c 0,0,1
EndSplineSet
EndChar

StartChar: wigglesawtoothwide
Encoding: 60092 60092 48
GlifName: wigglesawtoothwide
Width: 976
VWidth: 976
Flags: W
LayerCount: 2
Fore
SplineSet
500 48 m 2,0,1
 495 43 495 43 488.5 43 c 128,-1,2
 482 43 482 43 478 48 c 2,3,-1
 -11 536 l 2,4,5
 -16 541 -16 541 -16 547 c 128,-1,6
 -16 553 -16 553 -11 557.5 c 128,-1,7
 -6 562 -6 562 0.5 562 c 128,-1,8
 7 562 7 562 12 558 c 2,9,-1
 489 81 l 1,10,-1
 966 558 l 2,11,12
 971 563 971 563 977 562.5 c 128,-1,13
 983 562 983 562 987.5 558 c 128,-1,14
 992 554 992 554 992 547 c 128,-1,15
 992 540 992 540 988 536 c 2,16,-1
 500 48 l 2,0,1
EndSplineSet
EndChar

StartChar: wigglevibratolargefaster
Encoding: 60132 60132 49
GlifName: wigglevibratolargefaster
Width: 367
VWidth: 976
Flags: W
LayerCount: 2
Fore
SplineSet
-37 191 m 2,0,-1
 -41 191 l 1,1,2
 -43 192 -43 192 -43 197 c 0,3,4
 -10 372 -10 372 47 430 c 0,5,6
 80 463 80 463 100 463 c 0,7,8
 134 463 134 463 160.5 407 c 128,-1,9
 187 351 187 351 200 282.5 c 128,-1,10
 213 214 213 214 234 151.5 c 128,-1,11
 255 89 255 89 279 80 c 1,12,13
 305 128 305 128 320 197 c 0,14,15
 324 211 324 211 342 223.5 c 128,-1,16
 360 236 360 236 371 236 c 2,17,-1
 375 236 l 1,18,19
 377 235 377 235 377 232 c 0,20,21
 364 172 364 172 348.5 132.5 c 128,-1,22
 333 93 333 93 300.5 60 c 128,-1,23
 268 27 268 27 242 27 c 0,24,25
 209 27 209 27 183.5 81.5 c 128,-1,26
 158 136 158 136 145 203 c 0,27,28
 109 387 109 387 68 408 c 1,29,30
 33 337 33 337 14 232 c 0,31,32
 13 222 13 222 -1.5 211.5 c 128,-1,33
 -16 201 -16 201 -22.5 196 c 128,-1,34
 -29 191 -29 191 -37 191 c 2,0,-1
EndSplineSet
EndChar

StartChar: wigglevibratolargeslowest
Encoding: 60136 60136 50
GlifName: wigglevibratolargeslowest
Width: 745
VWidth: 976
Flags: W
HStem: 33 51<523 616> 416 51<142 223>
LayerCount: 2
Fore
SplineSet
768 242 m 1,0,1
 774 239 774 239 773.5 237.5 c 128,-1,2
 773 236 773 236 771 234 c 0,3,4
 744 169 744 169 688 113 c 0,5,6
 608 33 608 33 549.5 33 c 128,-1,7
 491 33 491 33 446.5 72.5 c 128,-1,8
 402 112 402 112 372.5 168.5 c 128,-1,9
 343 225 343 225 314 281 c 128,-1,10
 285 337 285 337 244.5 376.5 c 128,-1,11
 204 416 204 416 154 416 c 0,12,13
 140 416 140 416 135 410 c 0,14,15
 116 398 116 398 78 346.5 c 128,-1,16
 40 295 40 295 16 234 c 0,17,18
 14 227 14 227 0.5 216.5 c 128,-1,19
 -13 206 -13 206 -18 201 c 0,20,21
 -28 195 -28 195 -33 195 c 1,22,-1
 -39 197 l 1,23,24
 -41 199 -41 199 -41 201 c 1,25,-1
 86 398 l 1,26,27
 154 466 154 466 205.5 466.5 c 128,-1,28
 257 467 257 467 301 427.5 c 128,-1,29
 345 388 345 388 374.5 331.5 c 128,-1,30
 404 275 404 275 432.5 219 c 128,-1,31
 461 163 461 163 501.5 123.5 c 128,-1,32
 542 84 542 84 592 84 c 0,33,34
 629 84 629 84 676 137 c 0,35,36
 700 166 700 166 717 205 c 0,37,38
 723 219 723 219 741.5 230.5 c 128,-1,39
 760 242 760 242 764 242 c 2,40,-1
 768 242 l 1,0,1
EndSplineSet
EndChar

StartChar: uniE094
Encoding: 57492 57492 51
GlifName: uniE_094
Width: 134
Flags: W
VStem: 0 94<-169 167>
LayerCount: 2
Fore
SplineSet
208 -460 m 0,0,1
 208 -483 208 -483 185 -483 c 0,2,3
 168 -483 168 -483 123 -412.5 c 128,-1,4
 78 -342 78 -342 39 -226.5 c 128,-1,5
 0 -111 0 -111 0 -3 c 128,-1,6
 0 105 0 105 39 230 c 1,7,8
 81 349 81 349 126 417 c 0,9,10
 168 483 168 483 185 483 c 0,11,12
 208 483 208 483 208 460 c 0,13,14
 208 457 208 457 180 413 c 0,15,16
 152 373 152 373 123 265.5 c 128,-1,17
 94 158 94 158 94 0 c 128,-1,18
 94 -158 94 -158 123 -264 c 128,-1,19
 152 -370 152 -370 180 -413.5 c 128,-1,20
 208 -457 208 -457 208 -460 c 0,0,1
EndSplineSet
EndChar

StartChar: uniE095
Encoding: 57493 57493 52
GlifName: uniE_095
Width: 125
Flags: W
VStem: 32 93<-167 168>
LayerCount: 2
Fore
SplineSet
-83 -460 m 0,0,1
 -83 -457 -83 -457 -55 -413.5 c 128,-1,2
 -27 -370 -27 -370 2.5 -262 c 128,-1,3
 32 -154 32 -154 32 0 c 128,-1,4
 32 154 32 154 3 263.5 c 128,-1,5
 -26 373 -26 373 -55 413 c 0,6,7
 -83 457 -83 457 -83 460 c 0,8,9
 -83 483 -83 483 -60 483 c 0,10,11
 -42 483 -42 483 0 417 c 0,12,13
 46 349 46 349 86 230 c 0,14,15
 125 105 125 105 125 -3 c 128,-1,16
 125 -111 125 -111 85 -228 c 128,-1,17
 45 -345 45 -345 1.5 -414 c 128,-1,18
 -42 -483 -42 -483 -60 -483 c 0,19,20
 -83 -483 -83 -483 -83 -460 c 0,0,1
EndSplineSet
EndChar

StartChar: uniEBAE
Encoding: 60334 60334 53
GlifName: uniE_B_A_E_
Width: 125
VWidth: 0
Flags: W
HStem: 62 125<25 100>
VStem: 0 125<87 163>
LayerCount: 2
Fore
SplineSet
23.5 164.5 m 128,-1,1
 47 188 47 188 62.5 188 c 128,-1,2
 78 188 78 188 101.5 164.5 c 128,-1,3
 125 141 125 141 125 125 c 128,-1,4
 125 109 125 109 101.5 85.5 c 128,-1,5
 78 62 78 62 62.5 62 c 128,-1,6
 47 62 47 62 23.5 85.5 c 128,-1,7
 0 109 0 109 0 125 c 128,-1,0
 0 141 0 141 23.5 164.5 c 128,-1,1
EndSplineSet
EndChar

StartChar: uniEBAD
Encoding: 60333 60333 56
GlifName: uniE_B_A_D_
Width: 46
VWidth: 0
Flags: W
HStem: 27 195<0 47>
VStem: 0 47<27 223>
LayerCount: 2
Fore
SplineSet
0 223 m 25,0,-1
 47 223 l 1,1,-1
 47 27 l 1,2,-1
 0 27 l 1,3,-1
 0 223 l 25,0,-1
EndSplineSet
EndChar

StartChar: uniE910
Encoding: 59664 59664 57
GlifName: uniE_910
Width: 500
Flags: W
HStem: -263 24<183 317> -78 156<197 303> 237 24<184 316>
VStem: 0 98<-126 120> 172 156<-53 53> 402 98<-124 120>
CounterMasks: 1 1c
LayerCount: 2
Fore
SplineSet
172 0 m 128,-1,1
 172 31 172 31 195.5 54.5 c 128,-1,2
 219 78 219 78 250 78 c 128,-1,3
 281 78 281 78 304.5 54.5 c 128,-1,4
 328 31 328 31 328 0 c 128,-1,5
 328 -31 328 -31 304.5 -54.5 c 128,-1,6
 281 -78 281 -78 250 -78 c 128,-1,7
 219 -78 219 -78 195.5 -54.5 c 128,-1,0
 172 -31 172 -31 172 0 c 128,-1,1
250 -238 m 128,-1,9
 310 -238 310 -238 356 -205 c 128,-1,10
 402 -172 402 -172 402 -51 c 2,11,-1
 402 51 l 2,12,13
 402 170 402 170 356 203.5 c 128,-1,14
 310 237 310 237 250 237 c 128,-1,15
 190 237 190 237 144 203.5 c 128,-1,16
 98 170 98 170 98 51 c 2,17,-1
 98 -51 l 2,18,19
 98 -172 98 -172 144 -205 c 128,-1,8
 190 -238 190 -238 250 -238 c 128,-1,9
250 262 m 128,-1,21
 371 262 371 262 435.5 189.5 c 128,-1,22
 500 117 500 117 500 0 c 0,23,24
 500 -198 500 -198 340 -250 c 0,25,26
 301 -263 301 -263 250 -263 c 0,27,28
 151 -263 151 -263 81 -207 c 0,29,30
 0 -143 0 -143 0 0 c 0,31,32
 0 118 0 118 64.5 190 c 128,-1,20
 129 262 129 262 250 262 c 128,-1,21
EndSplineSet
EndChar

StartChar: uniE911
Encoding: 59665 59665 58
GlifName: uniE_911
Width: 500
Flags: W
HStem: -263 24<183 317> 237 24<184 316>
VStem: 0 98<-126 120> 402 98<-124 120>
LayerCount: 2
Fore
SplineSet
250 -238 m 128,-1,1
 310 -238 310 -238 356 -205 c 128,-1,2
 402 -172 402 -172 402 -51 c 2,3,-1
 402 51 l 2,4,5
 402 170 402 170 356 203.5 c 128,-1,6
 310 237 310 237 250 237 c 128,-1,7
 190 237 190 237 144 203.5 c 128,-1,8
 98 170 98 170 98 51 c 2,9,-1
 98 -51 l 2,10,11
 98 -172 98 -172 144 -205 c 128,-1,0
 190 -238 190 -238 250 -238 c 128,-1,1
250 262 m 128,-1,13
 371 262 371 262 435.5 189.5 c 128,-1,14
 500 117 500 117 500 0 c 0,15,16
 500 -198 500 -198 340 -250 c 0,17,18
 301 -263 301 -263 250 -263 c 0,19,20
 151 -263 151 -263 81 -207 c 0,21,22
 0 -143 0 -143 0 0 c 0,23,24
 0 118 0 118 64.5 190 c 128,-1,12
 129 262 129 262 250 262 c 128,-1,13
EndSplineSet
EndChar

StartChar: uniE912
Encoding: 59666 59666 59
GlifName: uniE_912
Width: 500
Flags: W
HStem: -262 24<181 231 269 319> 236 25<180 231 269 320>
VStem: 0 98<-124 121> 231 37<-428 -260 -237 236 260 428> 402 98<-124 121>
CounterMasks: 1 38
LayerCount: 2
Fore
SplineSet
269 -418 m 2,0,1
 269 -428 269 -428 258 -428 c 2,2,-1
 241 -428 l 2,3,4
 231 -428 231 -428 231 -418 c 2,5,-1
 231 -262 l 1,6,7
 141 -257 141 -257 81 -207 c 0,8,9
 0 -141 0 -141 0 0 c 0,10,11
 0 116 0 116 61.5 186 c 128,-1,12
 123 256 123 256 231 262 c 1,13,-1
 231 418 l 2,14,15
 231 428 231 428 241 428 c 2,16,-1
 258 428 l 2,17,18
 269 428 269 428 269 418 c 2,19,-1
 269 262 l 1,20,21
 377 256 377 256 438.5 186.5 c 128,-1,22
 500 117 500 117 500 0 c 0,23,24
 500 -73 500 -73 478 -126 c 128,-1,25
 456 -179 456 -179 419 -207 c 0,26,27
 379 -240 379 -240 343 -250 c 128,-1,28
 307 -260 307 -260 269 -262 c 1,29,-1
 269 -418 l 2,0,1
269 236 m 1,30,-1
 269 -237 l 1,31,32
 316 -233 316 -233 355 -205 c 0,33,34
 402 -172 402 -172 402 -51 c 2,35,-1
 402 51 l 2,36,37
 402 172 402 172 355 205 c 0,38,39
 319 232 319 232 269 236 c 1,30,-1
231 -237 m 1,40,-1
 231 236 l 1,41,42
 181 232 181 232 145 205 c 0,43,44
 98 172 98 172 98 51 c 2,45,-1
 98 -51 l 2,46,47
 98 -172 98 -172 145 -205 c 0,48,49
 184 -233 184 -233 231 -237 c 1,40,-1
EndSplineSet
EndChar

StartChar: uniE913
Encoding: 59667 59667 60
GlifName: uniE_913
Width: 500
Flags: W
HStem: -262 24<181 231 269 319> 236 25<180 231 269 320>
VStem: 0 98<-121 121> 172 156<-53 53> 231 37<-428 -260 -237 -68 68 236 260 428> 402 98<-124 121>
LayerCount: 2
Fore
SplineSet
269 -418 m 2,0,1
 269 -428 269 -428 258 -428 c 2,2,-1
 241 -428 l 2,3,4
 231 -428 231 -428 231 -418 c 2,5,-1
 231 -262 l 1,6,7
 141 -257 141 -257 81 -207 c 0,8,9
 43 -176 43 -176 21.5 -122 c 128,-1,10
 0 -68 0 -68 0 0 c 0,11,12
 0 116 0 116 61.5 186 c 128,-1,13
 123 256 123 256 231 262 c 1,14,-1
 231 418 l 2,15,16
 231 428 231 428 241 428 c 2,17,-1
 258 428 l 2,18,19
 269 428 269 428 269 418 c 2,20,-1
 269 262 l 1,21,22
 377 256 377 256 438.5 186.5 c 128,-1,23
 500 117 500 117 500 0 c 0,24,25
 500 -68 500 -68 479 -125 c 0,26,27
 456 -179 456 -179 419 -207 c 0,28,29
 379 -240 379 -240 343 -250 c 128,-1,30
 307 -260 307 -260 269 -262 c 1,31,-1
 269 -418 l 2,0,1
172 0 m 128,-1,33
 172 31 172 31 191.5 50.5 c 128,-1,34
 211 70 211 70 231 76 c 1,35,-1
 231 236 l 1,36,37
 181 232 181 232 145 205 c 0,38,39
 98 172 98 172 98 51 c 2,40,-1
 98 -51 l 2,41,42
 98 -172 98 -172 145 -205 c 0,43,44
 185 -233 185 -233 231 -237 c 1,45,-1
 231 -76 l 1,46,47
 210 -70 210 -70 191 -50.5 c 128,-1,32
 172 -31 172 -31 172 0 c 128,-1,33
269 -76 m 1,48,-1
 269 -237 l 1,49,50
 316 -233 316 -233 355 -205 c 0,51,52
 402 -172 402 -172 402 -51 c 2,53,-1
 402 51 l 2,54,55
 402 172 402 172 355 205 c 0,56,57
 318 232 318 232 269 236 c 1,58,-1
 269 76 l 1,59,60
 290 70 290 70 309 50.5 c 128,-1,61
 328 31 328 31 328 0 c 128,-1,62
 328 -31 328 -31 309 -50.5 c 128,-1,63
 290 -70 290 -70 269 -76 c 1,48,-1
EndSplineSet
EndChar

StartChar: uniE914
Encoding: 59668 59668 61
GlifName: uniE_914
Width: 424
Flags: W
HStem: -263 24<184 306> -78 156<197 303> 237 24<182 307>
VStem: 0 98<-125 121> 172 156<-53 53> 408 24<-124 -77 76 118>
LayerCount: 2
Fore
SplineSet
172 0 m 128,-1,1
 172 31 172 31 195.5 54.5 c 128,-1,2
 219 78 219 78 250 78 c 128,-1,3
 281 78 281 78 304.5 54.5 c 128,-1,4
 328 31 328 31 328 0 c 128,-1,5
 328 -31 328 -31 304.5 -54.5 c 128,-1,6
 281 -78 281 -78 250 -78 c 128,-1,7
 219 -78 219 -78 195.5 -54.5 c 128,-1,0
 172 -31 172 -31 172 0 c 128,-1,1
427 113 m 0,8,9
 433 98 433 98 433 87 c 128,-1,10
 433 76 433 76 420 76 c 0,11,12
 411 76 411 76 408 86 c 0,13,14
 389 153 389 153 349 195 c 128,-1,15
 309 237 309 237 250 237 c 0,16,17
 165 237 165 237 131.5 182 c 128,-1,18
 98 127 98 127 98 51 c 2,19,-1
 98 -51 l 2,20,21
 98 -172 98 -172 144 -205 c 128,-1,22
 190 -238 190 -238 248.5 -238 c 128,-1,23
 307 -238 307 -238 350 -195 c 128,-1,24
 393 -152 393 -152 408 -87 c 0,25,26
 410 -77 410 -77 420 -77 c 0,27,28
 433 -77 433 -77 433 -93 c 128,-1,29
 433 -109 433 -109 412 -148.5 c 128,-1,30
 391 -188 391 -188 373 -208 c 0,31,32
 324 -263 324 -263 250 -263 c 0,33,34
 154 -263 154 -263 83 -209 c 0,35,36
 0 -146 0 -146 0 0 c 0,37,38
 0 118 0 118 64.5 190 c 128,-1,39
 129 262 129 262 248.5 261.5 c 128,-1,40
 368 261 368 261 427 113 c 0,8,9
EndSplineSet
EndChar

StartChar: uniE916
Encoding: 59670 59670 63
GlifName: uniE_916
Width: 424
Flags: W
HStem: -263 24<119 233> 27 151<55 119> 237 24<114 235>
VStem: -8 24<-120 -77> -1 142<49 155> 288 137<-125 120>
LayerCount: 2
Fore
SplineSet
120.5 155.5 m 128,-1,1
 141 132 141 132 141 98.5 c 128,-1,2
 141 65 141 65 116 46 c 128,-1,3
 91 27 91 27 64 27 c 128,-1,4
 37 27 37 27 18 48 c 128,-1,5
 -1 69 -1 69 -1 99 c 0,6,7
 -1 153 -1 153 48 207.5 c 128,-1,8
 97 262 97 262 175 262 c 0,9,10
 296 262 296 262 360.5 189.5 c 128,-1,11
 425 117 425 117 425 0 c 0,12,13
 425 -146 425 -146 342 -209 c 0,14,15
 271 -263 271 -263 175 -263 c 0,16,17
 57 -263 57 -263 -2 -115 c 0,18,19
 -8 -97 -8 -97 -8 -89 c 0,20,21
 -8 -77 -8 -77 5 -77 c 0,22,23
 14 -77 14 -77 17 -87 c 0,24,25
 34 -152 34 -152 75.5 -195 c 128,-1,26
 117 -238 117 -238 174.5 -238 c 128,-1,27
 232 -238 232 -238 260 -205.5 c 128,-1,28
 288 -173 288 -173 288 -51 c 2,29,-1
 288 51 l 2,30,31
 288 171 288 171 262 204 c 0,32,33
 235 237 235 237 175 237 c 0,34,35
 100 237 100 237 55 178 c 1,36,37
 58 179 58 179 68 179 c 0,38,0
 100 179 100 179 120.5 155.5 c 128,-1,1
EndSplineSet
EndChar

StartChar: uniE917
Encoding: 59671 59671 64
GlifName: uniE_917
Width: 424
Flags: W
HStem: -262 24<182 231 269 310> 236 25<180 231 269 308>
VStem: 0 98<-123 123> 172 156<-53 53> 231 37<-428 -260 -237 -68 68 236 260 428> 408 24<-124 -77 76 122>
LayerCount: 2
Fore
SplineSet
269 -418 m 2,0,1
 269 -428 269 -428 258 -428 c 2,2,-1
 241 -428 l 2,3,4
 231 -428 231 -428 231 -418 c 2,5,-1
 231 -262 l 1,6,7
 145 -257 145 -257 81 -207 c 0,8,9
 43 -178 43 -178 21.5 -123 c 128,-1,10
 0 -68 0 -68 0 0 c 0,11,12
 0 118 0 118 61.5 187 c 128,-1,13
 123 256 123 256 231 262 c 1,14,-1
 231 418 l 2,15,16
 231 428 231 428 241 428 c 2,17,-1
 258 428 l 2,18,19
 269 428 269 428 269 418 c 2,20,-1
 269 261 l 1,21,22
 359 251 359 251 406 158 c 0,23,24
 432 107 432 107 432.5 91.5 c 128,-1,25
 433 76 433 76 420 76 c 0,26,27
 411 76 411 76 408 86 c 0,28,29
 389 153 389 153 351.5 191.5 c 128,-1,30
 314 230 314 230 269 236 c 1,31,-1
 269 76 l 1,32,33
 290 70 290 70 309 50.5 c 128,-1,34
 328 31 328 31 328 0 c 128,-1,35
 328 -31 328 -31 308.5 -50.5 c 128,-1,36
 289 -70 289 -70 269 -76 c 1,37,-1
 269 -237 l 1,38,39
 314 -233 314 -233 350 -195 c 0,40,41
 393 -152 393 -152 408 -87 c 0,42,43
 410 -77 410 -77 420 -77 c 0,44,45
 433 -77 433 -77 433 -89 c 0,46,47
 433 -115 433 -115 406 -158 c 1,48,49
 376 -220 376 -220 320 -247 c 0,50,51
 297 -259 297 -259 269 -262 c 1,52,-1
 269 -418 l 2,0,1
172 0 m 128,-1,54
 172 31 172 31 191.5 50.5 c 128,-1,55
 211 70 211 70 231 76 c 1,56,-1
 231 236 l 1,57,58
 160 230 160 230 129 178.5 c 128,-1,59
 98 127 98 127 98 51 c 2,60,-1
 98 -51 l 2,61,62
 98 -172 98 -172 145 -205 c 0,63,64
 185 -233 185 -233 231 -237 c 1,65,-1
 231 -76 l 1,66,67
 210 -70 210 -70 191 -50.5 c 128,-1,53
 172 -31 172 -31 172 0 c 128,-1,54
EndSplineSet
EndChar

StartChar: uniE919
Encoding: 59673 59673 66
GlifName: uniE_919
Width: 424
Flags: W
HStem: -263 24<118 188> 27 151<55 119> 237 24<117 188>
VStem: -1 142<49 155> 188 37<-350 -262 -230 230 262 350> 288 137<-120 119>
LayerCount: 2
Fore
SplineSet
120.5 155.5 m 128,-1,1
 141 132 141 132 141 98.5 c 128,-1,2
 141 65 141 65 116 46 c 128,-1,3
 91 27 91 27 64 27 c 128,-1,4
 37 27 37 27 18 48 c 128,-1,5
 -1 69 -1 69 -1 99 c 0,6,7
 -1 153 -1 153 48 207.5 c 128,-1,8
 97 262 97 262 175 262 c 2,9,10
 176 262 176 262 188 262 c 1,11,-1
 188 340 l 1,12,13
 189 350 189 350 198 350 c 2,14,-1
 215 350 l 2,15,16
 225 350 225 350 225 340 c 2,17,-1
 225 259 l 1,18,19
 328 242 328 242 376.5 171.5 c 128,-1,20
 425 101 425 101 425 0.5 c 128,-1,21
 425 -100 425 -100 376.5 -171 c 128,-1,22
 328 -242 328 -242 225 -259 c 1,23,-1
 225 -340 l 2,24,25
 225 -350 225 -350 215 -350 c 2,26,-1
 198 -350 l 2,27,28
 188 -350 188 -350 188 -340 c 2,29,-1
 188 -262 l 1,30,31
 185 -263 185 -263 175 -263 c 0,32,33
 136 -263 136 -263 103 -246.5 c 128,-1,34
 70 -230 70 -230 52 -208 c 0,35,36
 17 -163 17 -163 -2 -115 c 0,37,38
 -8 -100 -8 -100 -8 -88.5 c 128,-1,39
 -8 -77 -8 -77 5 -77 c 0,40,41
 14 -77 14 -77 17 -87 c 0,42,43
 34 -152 34 -152 75.5 -195 c 128,-1,44
 117 -238 117 -238 175 -238 c 0,45,46
 184 -238 184 -238 188 -237 c 1,47,-1
 188 237 l 1,48,-1
 175 237 l 1,49,50
 100 235 100 235 55 178 c 1,51,52
 58 179 58 179 68 179 c 0,53,0
 100 179 100 179 120.5 155.5 c 128,-1,1
225 -230 m 1,54,55
 265 -215 265 -215 276.5 -173 c 128,-1,56
 288 -131 288 -131 288 -51 c 2,57,-1
 288 51 l 2,58,59
 288 131 288 131 276.5 173.5 c 128,-1,60
 265 216 265 216 225 230 c 1,61,-1
 225 -230 l 1,54,55
EndSplineSet
EndChar

StartChar: uniE91A
Encoding: 59674 59674 67
GlifName: uniE_91A_
Width: 424
Flags: W
HStem: -263 24<118 242> -78 156<122 228> 237 24<118 242>
VStem: -8 24<-121 -77 76 121> 97 156<-53 53> 327 98<-124 120>
LayerCount: 2
Fore
SplineSet
253 0 m 128,-1,1
 253 -31 253 -31 229.5 -54.5 c 128,-1,2
 206 -78 206 -78 175 -78 c 128,-1,3
 144 -78 144 -78 120.5 -54.5 c 128,-1,4
 97 -31 97 -31 97 0 c 128,-1,5
 97 31 97 31 120.5 54.5 c 128,-1,6
 144 78 144 78 175 78 c 128,-1,7
 206 78 206 78 229.5 54.5 c 128,-1,0
 253 31 253 31 253 0 c 128,-1,1
175 262 m 0,8,9
 296 262 296 262 360.5 189.5 c 128,-1,10
 425 117 425 117 425 0 c 0,11,12
 425 -198 425 -198 265 -250 c 0,13,14
 226 -263 226 -263 181 -263 c 128,-1,15
 136 -263 136 -263 102 -246 c 0,16,17
 38 -215 38 -215 -2 -115 c 0,18,19
 -8 -100 -8 -100 -8 -88.5 c 128,-1,20
 -8 -77 -8 -77 5 -77 c 0,21,22
 14 -77 14 -77 17 -87 c 0,23,24
 34 -152 34 -152 75.5 -195 c 128,-1,25
 117 -238 117 -238 175.5 -238 c 128,-1,26
 234 -238 234 -238 280.5 -205 c 128,-1,27
 327 -172 327 -172 327 -51 c 2,28,-1
 327 51 l 2,29,30
 327 127 327 127 293.5 182 c 128,-1,31
 260 237 260 237 175 237 c 0,32,33
 116 237 116 237 75.5 195 c 128,-1,34
 35 153 35 153 17 86 c 0,35,36
 14 76 14 76 5 76 c 0,37,38
 -8 76 -8 76 -8 91.5 c 128,-1,39
 -8 107 -8 107 11 144 c 128,-1,40
 30 181 30 181 50 205 c 128,-1,41
 70 229 70 229 103 245.5 c 128,-1,42
 136 262 136 262 175 262 c 0,8,9
EndSplineSet
EndChar

StartChar: uniE4E5
Encoding: 58597 58597 71
GlifName: uniE_4E_5
Width: 237
Flags: W
HStem: -146 72<10.5 138>
VStem: -23 76<-230.5 -95.5> -6 125<-8 107.5> 118 125<156.5 272>
LayerCount: 2
Fore
SplineSet
-6 78 m 0,0,1
 -6 97 -6 97 13.5 117.5 c 128,-1,2
 33 138 33 138 56 154 c 128,-1,3
 79 170 79 170 98.5 198.5 c 128,-1,4
 118 227 118 227 118 260 c 0,5,6
 118 300 118 300 93 329 c 2,7,-1
 58 371 l 2,8,9
 54 375 54 375 54 381 c 128,-1,10
 54 387 54 387 59.5 391.5 c 128,-1,11
 65 396 65 396 71 396 c 0,12,13
 78 396 78 396 82 391 c 2,14,-1
 233 211 l 2,15,16
 243 198 243 198 243 186 c 0,17,18
 243 167 243 167 223.5 146.5 c 128,-1,19
 204 126 204 126 181 110 c 128,-1,20
 158 94 158 94 138.5 65.5 c 128,-1,21
 119 37 119 37 119 4 c 0,22,23
 119 -37 119 -37 143 -65 c 2,24,-1
 227 -164 l 2,25,26
 231 -168 231 -168 231 -174 c 0,27,28
 231 -181 231 -181 226 -185.5 c 128,-1,29
 221 -190 221 -190 215 -190 c 0,30,31
 213 -190 213 -190 199 -179 c 128,-1,32
 185 -168 185 -168 159.5 -157 c 128,-1,33
 134 -146 134 -146 106 -146 c 0,34,35
 93 -146 93 -146 84 -148 c 128,-1,36
 75 -150 75 -150 64 -166 c 128,-1,37
 53 -182 53 -182 53 -213 c 0,38,39
 53 -274 53 -274 81 -307 c 0,40,41
 84 -311 84 -311 82.5 -315.5 c 128,-1,42
 81 -320 81 -320 77 -320.5 c 128,-1,43
 73 -321 73 -321 69 -318 c 0,44,45
 34 -276 34 -276 5.5 -215.5 c 128,-1,46
 -23 -155 -23 -155 -23 -116 c 0,47,48
 -23 -74 -23 -74 17 -74 c 0,49,50
 65 -74 65 -74 136 -105 c 1,51,-1
 4 53 l 2,52,53
 -6 66 -6 66 -6 78 c 0,0,1
EndSplineSet
EndChar

StartChar: uniE4C4
Encoding: 58564 58564 72
GlifName: uniE_4C_4
Width: 488
VWidth: 976
Flags: W
HStem: 0 125<173 266>
VStem: 157 125<16 109>
LayerCount: 2
Fore
SplineSet
157 62.5 m 128,-1,1
 157 88 157 88 175.5 106.5 c 128,-1,2
 194 125 194 125 219.5 125 c 128,-1,3
 245 125 245 125 263.5 106.5 c 128,-1,4
 282 88 282 88 282 62.5 c 128,-1,5
 282 37 282 37 263.5 18.5 c 128,-1,6
 245 0 245 0 219.5 0 c 128,-1,7
 194 0 194 0 175.5 18.5 c 128,-1,0
 157 37 157 37 157 62.5 c 128,-1,1
17 0 m 0,8,9
 10 0 10 0 5 5 c 128,-1,10
 0 10 0 10 0 17 c 0,11,12
 0 21 0 21 2 24 c 2,13,-1
 229 527 l 2,14,15
 234 537 234 537 244.5 537 c 128,-1,16
 255 537 255 537 260 527 c 2,17,-1
 486 24 l 2,18,19
 488 20 488 20 488 17 c 0,20,21
 488 10 488 10 483.5 5 c 128,-1,22
 479 0 479 0 472 0 c 2,23,-1
 423 0 l 2,24,25
 412 0 412 0 407 10 c 2,26,-1
 219 424 l 1,27,-1
 32 10 l 2,28,29
 28 0 28 0 17 0 c 0,8,9
EndSplineSet
EndChar

StartChar: uniE261
Encoding: 57953 57953 73
GlifName: uniE_261
Width: 164
VWidth: 899
Flags: W
VStem: 0 31<-91 52 159 378> 133 31<-378 -159 -52 91>
LayerCount: 2
Fore
SplineSet
18 -203 m 1,0,1
 0 -208 0 -208 0 -189 c 2,2,-1
 0 357 l 2,3,4
 0 378 0 378 15.5 378 c 128,-1,5
 31 378 31 378 31 357 c 2,6,-1
 31 159 l 1,7,-1
 146 203 l 1,8,9
 164 208 164 208 164 189 c 2,10,-1
 164 -357 l 2,11,12
 164 -378 164 -378 148.5 -378 c 128,-1,13
 133 -378 133 -378 133 -357 c 2,14,-1
 133 -159 l 1,15,-1
 18 -203 l 1,0,1
31 -91 m 1,16,-1
 133 -52 l 1,17,-1
 133 91 l 1,18,-1
 31 52 l 1,19,-1
 31 -91 l 1,16,-1
EndSplineSet
EndChar

StartChar: uniE048
Encoding: 57416 57416 74
GlifName: uniE_048
Width: 527
Flags: W
HStem: -1 21G<270 277> 103 30<288 322> 337 29<5 107 181 259 288 366 439 542> 570 30<225 259>
VStem: 107 73<222 337 366 482> 259 29<-1 105 133 337 366 570 599 704> 366 73<221 337 366 481>
CounterMasks: 1 0e
LayerCount: 2
Fore
SplineSet
288 14 m 2,0,1
 288 6 288 6 283 4 c 0,2,3
 281 -1 281 -1 273.5 -1 c 128,-1,4
 266 -1 266 -1 264 4 c 0,5,6
 259 6 259 6 259 14 c 2,7,-1
 259 103 l 1,8,9
 189 111 189 111 150 177 c 0,10,11
 110 242 110 242 107 337 c 1,12,-1
 20 337 l 2,13,14
 12 337 12 337 10 342 c 0,15,16
 5 344 5 344 5 351.5 c 128,-1,17
 5 359 5 359 10 361 c 0,18,19
 12 366 12 366 20 366 c 2,20,-1
 107 366 l 1,21,22
 110 460 110 460 150 525 c 0,23,24
 187 592 187 592 259 601 c 1,25,-1
 259 689 l 2,26,27
 259 697 259 697 264 699 c 0,28,29
 266 704 266 704 273.5 704 c 128,-1,30
 281 704 281 704 283 699 c 0,31,32
 288 697 288 697 288 689 c 2,33,-1
 288 601 l 1,34,35
 358 593 358 593 396 526 c 0,36,37
 436 461 436 461 439 366 c 1,38,-1
 527 366 l 2,39,40
 535 366 535 366 537 361 c 0,41,42
 542 359 542 359 542 351.5 c 128,-1,43
 542 344 542 344 537 342 c 0,44,45
 535 337 535 337 527 337 c 2,46,-1
 439 337 l 1,47,48
 436 243 436 243 396 178 c 0,49,50
 359 111 359 111 288 103 c 1,51,-1
 288 14 l 2,0,1
288 366 m 1,52,-1
 366 366 l 1,53,54
 366 505 366 505 330 548 c 0,55,56
 315 566 315 566 288 570 c 1,57,-1
 288 366 l 1,52,-1
288 337 m 1,58,-1
 288 133 l 1,59,60
 338 142 338 142 352 199 c 128,-1,61
 366 256 366 256 366 337 c 1,62,-1
 288 337 l 1,58,-1
259 366 m 1,63,-1
 259 570 l 1,64,65
 209 561 209 561 195 504 c 128,-1,66
 181 447 181 447 181 366 c 1,67,-1
 259 366 l 1,63,-1
259 337 m 1,68,-1
 181 337 l 1,69,70
 181 198 181 198 217 155 c 0,71,72
 232 137 232 137 259 133 c 1,73,-1
 259 337 l 1,68,-1
EndSplineSet
EndChar

StartChar: uniEB86
Encoding: 60294 60294 75
GlifName: uniE_B_86
Width: 250
Flags: W
HStem: -20 39<-20 103>
VStem: -20 270
LayerCount: 2
Fore
SplineSet
-20 0 m 128,-1,1
 -20 20 -20 20 0 20 c 0,2,3
 51 20 51 20 94.5 35.5 c 128,-1,4
 138 51 138 51 159 67.5 c 128,-1,5
 180 84 180 84 202.5 104.5 c 128,-1,6
 225 125 225 125 231.5 125 c 128,-1,7
 238 125 238 125 244 119.5 c 128,-1,8
 250 114 250 114 250 102.5 c 128,-1,9
 250 91 250 91 207 55 c 0,10,11
 169 21 169 21 112 0 c 1,12,13
 162 -18 162 -18 206 -54 c 128,-1,14
 250 -90 250 -90 250 -103 c 0,15,16
 250 -125 250 -125 230 -125 c 0,17,18
 225 -125 225 -125 196 -99.5 c 128,-1,19
 167 -74 167 -74 164 -72 c 0,20,21
 138 -51 138 -51 94.5 -35.5 c 128,-1,22
 51 -20 51 -20 0 -20 c 0,23,0
 -20 -20 -20 -20 -20 0 c 128,-1,1
EndSplineSet
EndChar

StartChar: uniE240
Encoding: 57920 57920 76
GlifName: uniE_240
Width: 240
Flags: W
HStem: -20 20G<0 31>
VStem: 0 31<-94 0> 156 42<-745 -681> 198 42<-666 -446>
LayerCount: 2
Fore
SplineSet
0 -250 m 5,0,-1
 0 0 l 5,1,-1
 31 0 l 5,2,3
 31 -56 31 -56 53.5 -114 c 132,-1,4
 76 -172 76 -172 100.5 -210.5 c 132,-1,5
 125 -249 125 -249 161 -308 c 4,6,7
 240 -436 240 -436 240 -535.5 c 132,-1,8
 240 -635 240 -635 198 -740 c 4,9,10
 190 -752 190 -752 180 -752 c 132,-1,11
 170 -752 170 -752 163 -745 c 132,-1,12
 156 -738 156 -738 156 -729 c 6,13,-1
 156 -725 l 5,14,15
 198 -628 198 -628 198 -533 c 4,16,17
 198 -484 198 -484 168.5 -426.5 c 132,-1,18
 139 -369 139 -369 107 -332.5 c 132,-1,19
 75 -296 75 -296 31 -250 c 5,20,-1
 0 -250 l 5,0,-1
EndSplineSet
EndChar

StartChar: uniE442
Encoding: 58434 58434 77
GlifName: uniE_442
Width: 196
Flags: W
HStem: 126 31<77 156>
VStem: 0 37<160 268> 9 26<-143 95 111 177> 130 99<-15 119>
LayerCount: 2
Fore
SplineSet
37 77 m 1,0,-1
 35 -143 l 1,1,2
 67 -118 67 -118 98.5 -53.5 c 128,-1,3
 130 11 130 11 130 62 c 0,4,5
 130 83 130 83 122 104.5 c 128,-1,6
 114 126 114 126 96 126 c 128,-1,7
 78 126 78 126 65 114 c 128,-1,8
 52 102 52 102 37 77 c 1,0,-1
-2 305 m 1,9,10
 -2 380 -2 380 -5 456 c 0,11,12
 -5 471 -5 471 21 471 c 128,-1,13
 47 471 47 471 47 456 c 0,14,15
 47 434 47 434 46 389 c 128,-1,16
 45 344 45 344 45 321 c 1,17,-1
 153 360 l 2,18,19
 160 362 160 362 167 358.5 c 128,-1,20
 174 355 174 355 176 349 c 0,21,22
 181 333 181 333 164 327 c 2,23,-1
 44 284 l 1,24,-1
 40 111 l 1,25,26
 64 135 64 135 84 146 c 128,-1,27
 104 157 104 157 138.5 157 c 128,-1,28
 173 157 173 157 201 126.5 c 128,-1,29
 229 96 229 96 229 49.5 c 128,-1,30
 229 3 229 3 178 -54 c 0,31,32
 157 -78 157 -78 108 -120.5 c 128,-1,33
 59 -163 59 -163 44.5 -177 c 128,-1,34
 30 -191 30 -191 27 -191 c 2,35,-1
 18 -191 l 2,36,37
 9 -191 9 -191 9 -180 c 2,38,-1
 0 268 l 1,39,-1
 -122 226 l 2,40,41
 -129 224 -129 224 -136 226.5 c 128,-1,42
 -143 229 -143 229 -144.5 236 c 128,-1,43
 -146 243 -146 243 -143.5 250 c 128,-1,44
 -141 257 -141 257 -134 259 c 2,45,-1
 -2 305 l 1,9,10
EndSplineSet
EndChar

StartChar: uniE4F5
Encoding: 58613 58613 78
GlifName: uniE_4F_5
Width: 375
Flags: W
HStem: -25 50<-138 0 -131 0 375 506> -25 181<-138 365 10 365 365 368 10 506>
LayerCount: 2
Fore
SplineSet
506 -25 m 2,0,-1
 -131 -25 l 2,1,2
 -142 -25 -142 -25 -149 -17.5 c 128,-1,3
 -156 -10 -156 -10 -156 0 c 128,-1,4
 -156 10 -156 10 -149 17.5 c 128,-1,5
 -142 25 -142 25 -131 25 c 2,6,-1
 0 25 l 1,7,-1
 0 146 l 2,8,9
 0 156 0 156 10 156 c 2,10,-1
 365 156 l 2,11,12
 375 156 375 156 375 146 c 2,13,-1
 375 25 l 1,14,-1
 506 25 l 2,15,16
 516 25 516 25 523.5 17.5 c 128,-1,17
 531 10 531 10 531 0 c 128,-1,18
 531 -10 531 -10 523.5 -17.5 c 128,-1,19
 516 -25 516 -25 506 -25 c 2,0,-1
EndSplineSet
EndChar

StartChar: uniE273
Encoding: 57971 57971 79
GlifName: uniE_273
Width: 162
Flags: W
VStem: 0 31<-91 52 159 378> 131 31<-342 -159 -52 91>
LayerCount: 2
Fore
SplineSet
31 -91 m 1,0,-1
 131 -52 l 1,1,-1
 131 91 l 1,2,-1
 31 52 l 1,3,-1
 31 -91 l 1,0,-1
18 -202 m 2,4,5
 0 -208 0 -208 0 -189 c 2,6,-1
 0 357 l 2,7,8
 0 378 0 378 15.5 378 c 128,-1,9
 31 378 31 378 31 357 c 2,10,-1
 31 159 l 1,11,-1
 145 202 l 2,12,13
 163 208 163 208 162 189 c 2,14,-1
 162 -342 l 1,15,16
 202 -326 202 -326 211.5 -319.5 c 128,-1,17
 221 -313 221 -313 227 -313 c 0,18,19
 243 -313 243 -313 242 -330 c 0,20,21
 242 -333 242 -333 237 -343 c 0,22,23
 188 -419 188 -419 165 -523 c 0,24,25
 162 -539 162 -539 155.5 -542 c 128,-1,26
 149 -545 149 -545 145 -545 c 0,27,28
 134 -545 134 -545 130 -527 c 0,29,30
 107 -423 107 -423 57 -343 c 0,31,32
 52 -333 52 -333 52 -330 c 0,33,34
 52 -313 52 -313 67 -313 c 0,35,36
 72 -313 72 -313 85 -320 c 128,-1,37
 98 -327 98 -327 131 -342 c 1,38,-1
 131 -159 l 1,39,-1
 18 -202 l 2,4,5
EndSplineSet
EndChar

StartChar: uniE0A4
Encoding: 57508 57508 80
GlifName: uniE_0A_4
Width: 328
Flags: W
HStem: -138 275<128 203>
VStem: 0 329<-24 25>
LayerCount: 2
Fore
SplineSet
220 138 m 0,0,1
 267 138 267 138 298 114.5 c 128,-1,2
 329 91 329 91 329 47 c 0,3,4
 329 -20 329 -20 259 -79 c 128,-1,5
 189 -138 189 -138 109 -138 c 0,6,7
 62 -138 62 -138 30 -113 c 0,8,9
 0 -87 0 -87 0 -47 c 0,10,11
 0 18 0 18 69.5 78 c 128,-1,12
 139 138 139 138 220 138 c 0,0,1
EndSplineSet
EndChar

StartChar: uniE4C5
Encoding: 58565 58565 81
GlifName: uniE_4C_5
Width: 488
VWidth: 976
Flags: W
HStem: -125 125<222 315>
VStem: 206 125<-109 -16>
LayerCount: 2
Fore
SplineSet
331 -62.5 m 128,-1,1
 331 -88 331 -88 312.5 -106.5 c 128,-1,2
 294 -125 294 -125 268.5 -125 c 128,-1,3
 243 -125 243 -125 224.5 -106.5 c 128,-1,4
 206 -88 206 -88 206 -62.5 c 128,-1,5
 206 -37 206 -37 224.5 -18.5 c 128,-1,6
 243 0 243 0 268.5 0 c 128,-1,7
 294 0 294 0 312.5 -18.5 c 128,-1,0
 331 -37 331 -37 331 -62.5 c 128,-1,1
472 0 m 0,8,9
 479 0 479 0 483.5 -5 c 128,-1,10
 488 -10 488 -10 488 -17 c 0,11,12
 488 -21 488 -21 486 -24 c 2,13,-1
 260 -527 l 2,14,15
 255 -537 255 -537 244 -537 c 128,-1,16
 233 -537 233 -537 229 -527 c 2,17,-1
 2 -24 l 2,18,19
 0 -20 0 -20 0 -17 c 0,20,21
 0 -10 0 -10 5 -5 c 128,-1,22
 10 0 10 0 17 0 c 2,23,-1
 65 0 l 2,24,25
 76 0 76 0 81 -10 c 2,26,-1
 270 -424 l 1,27,-1
 456 -10 l 2,28,29
 461 0 461 0 472 0 c 0,8,9
EndSplineSet
EndChar

StartChar: uniEB84
Encoding: 60292 60292 82
GlifName: uniE_B_84
Width: 125
Flags: W
HStem: -20 270
VStem: -20 39<-20 103>
LayerCount: 2
Fore
SplineSet
0 -20 m 128,-1,1
 -20 -20 -20 -20 -20 0 c 0,2,3
 -20 51 -20 51 -35.5 94.5 c 128,-1,4
 -51 138 -51 138 -67.5 159 c 128,-1,5
 -84 180 -84 180 -104.5 202.5 c 128,-1,6
 -125 225 -125 225 -125 231.5 c 128,-1,7
 -125 238 -125 238 -119.5 244 c 128,-1,8
 -114 250 -114 250 -102.5 250 c 128,-1,9
 -91 250 -91 250 -55 207 c 0,10,11
 -21 169 -21 169 0 112 c 1,12,13
 18 162 18 162 53 206 c 0,14,15
 90 250 90 250 103 250 c 0,16,17
 125 250 125 250 125 230 c 0,18,19
 125 225 125 225 99.5 196 c 128,-1,20
 74 167 74 167 72 164 c 0,21,22
 51 138 51 138 35.5 94.5 c 128,-1,23
 20 51 20 51 20 0 c 0,24,0
 20 -20 20 -20 0 -20 c 128,-1,1
EndSplineSet
EndChar

StartChar: uniEAA0
Encoding: 60064 60064 83
GlifName: uniE_A_A_0
Width: 208
Flags: W
HStem: 0 21G<137 146> 230 20G<66 76>
VStem: -15 242
LayerCount: 2
Fore
SplineSet
26 126 m 1,0,-1
 19 114 l 1,1,-1
 -15 136 l 1,2,-1
 56 241 l 2,3,4
 62 250 62 250 71.5 250 c 128,-1,5
 81 250 81 250 88 243 c 2,6,-1
 187 124 l 1,7,-1
 194 136 l 1,8,-1
 228 114 l 1,9,-1
 157 9 l 2,10,11
 151 0 151 0 141.5 0 c 128,-1,12
 132 0 132 0 125 7 c 2,13,-1
 26 126 l 1,0,-1
EndSplineSet
EndChar

StartChar: uniE246
Encoding: 57926 57926 84
GlifName: uniE_246
Width: 240
Flags: W
VStem: 0 31<-614 -501 -371 -276 -145 -51 83 174 298 386> 156 42<-938 -876> 182 43<-132 -5> 191 43<-881 -659 -574 -441 -362 -215>
LayerCount: 2
Fore
SplineSet
31 174 m 5,0,-1
 31 161 l 6,1,2
 31 70 31 70 131 -65 c 4,3,4
 164 -111 164 -111 178 -133 c 5,5,6
 182 -118 182 -118 182 -91 c 4,7,8
 182 -29 182 -29 135.5 40 c 132,-1,9
 89 109 89 109 31 174 c 5,0,-1
31 386 m 5,10,11
 31 335 31 335 53 281 c 4,12,13
 74 229 74 229 100 188 c 6,14,-1
 156 101 l 6,15,16
 224 -5 224 -5 225 -97 c 4,17,18
 225 -139 225 -139 205 -184 c 5,19,20
 234 -244 234 -244 234 -299 c 132,-1,21
 234 -354 234 -354 205 -409 c 5,22,23
 234 -470 234 -470 234 -519.5 c 132,-1,24
 234 -569 234 -569 199 -612 c 5,25,26
 240 -684 240 -684 240 -748 c 4,27,28
 240 -835 240 -835 198 -928 c 4,29,30
 193 -939 193 -939 180 -938 c 4,31,32
 170 -938 170 -938 163 -930.5 c 132,-1,33
 156 -923 156 -923 156 -915 c 6,34,-1
 156 -911 l 5,35,36
 198 -830 198 -830 198 -748 c 4,37,38
 198 -671 198 -671 94 -561 c 4,39,40
 76 -542 76 -542 31 -501 c 5,41,-1
 31 -614 l 5,42,-1
 0 -614 l 5,43,-1
 0 386 l 5,44,-1
 31 386 l 5,10,11
31 -51 m 5,45,-1
 31 -64 l 6,46,47
 31 -133 31 -133 82 -219 c 4,48,49
 88 -229 88 -229 125 -282 c 132,-1,50
 162 -335 162 -335 180 -362 c 5,51,52
 192 -331 192 -331 191 -298 c 4,53,54
 191 -236 191 -236 144.5 -174.5 c 132,-1,55
 98 -113 98 -113 31 -51 c 5,45,-1
31 -276 m 5,56,-1
 31 -289 l 6,57,58
 31 -358 31 -358 77.5 -432 c 132,-1,59
 124 -506 124 -506 176 -575 c 5,60,61
 191 -551 191 -551 191 -523 c 4,62,63
 192 -462 192 -462 145 -399 c 4,64,65
 98 -338 98 -338 31 -276 c 5,56,-1
EndSplineSet
EndChar

StartChar: uniE568
Encoding: 58728 58728 85
GlifName: uniE_568
Width: 546
Flags: W
HStem: 0 78<98.5 150 74.5 202.5> 0 106<414.5 428 403.5 465.5> 158 106<118 131.5 80.5 142.5> 186 78<396 447.5>
VStem: 0 30<116.5 147.5 116.5 167> 516 30<116.5 147.5>
LayerCount: 2
Fore
SplineSet
410 264 m 0,0,1
 466 264 466 264 506 225.5 c 128,-1,2
 546 187 546 187 546 132 c 0,3,4
 546 78 546 78 513.5 39 c 128,-1,5
 481 0 481 0 432 0 c 0,6,7
 405 0 405 0 384.5 15 c 128,-1,8
 364 30 364 30 364 53 c 128,-1,9
 364 76 364 76 380 91 c 128,-1,10
 396 106 396 106 418 106 c 0,11,12
 453 106 453 106 466 75 c 1,13,14
 487 78 487 78 501.5 93.5 c 128,-1,15
 516 109 516 109 516 132 c 128,-1,16
 516 155 516 155 498 170.5 c 128,-1,17
 480 186 480 186 455 186 c 0,18,19
 423 186 423 186 390 167 c 128,-1,20
 357 148 357 148 329 120.5 c 128,-1,21
 301 93 301 93 272.5 65.5 c 128,-1,22
 244 38 244 38 208.5 19 c 128,-1,23
 173 0 173 0 136 0 c 0,24,25
 80 0 80 0 40 38.5 c 128,-1,26
 0 77 0 77 0 132 c 0,27,28
 0 186 0 186 32.5 225 c 128,-1,29
 65 264 65 264 114 264 c 0,30,31
 141 264 141 264 161.5 249 c 128,-1,32
 182 234 182 234 182 211 c 128,-1,33
 182 188 182 188 166 173 c 128,-1,34
 150 158 150 158 128 158 c 0,35,36
 93 158 93 158 80 189 c 1,37,38
 59 186 59 186 44.5 170.5 c 128,-1,39
 30 155 30 155 30 132 c 128,-1,40
 30 109 30 109 48 93.5 c 128,-1,41
 66 78 66 78 91 78 c 0,42,43
 123 78 123 78 156 97 c 128,-1,44
 189 116 189 116 217 143.5 c 128,-1,45
 245 171 245 171 273.5 198.5 c 128,-1,46
 302 226 302 226 337.5 245 c 128,-1,47
 373 264 373 264 410 264 c 0,0,1
EndSplineSet
EndChar

StartChar: uniE243
Encoding: 57923 57923 86
GlifName: uniE_243
Width: 299
Flags: W
VStem: 0 31<-28 45 172 268 396 472> 245 42<335 478> 258 42<563 718>
LayerCount: 2
Fore
SplineSet
31 172 m 5,0,1
 183 260 183 260 226 337 c 4,2,3
 246 373 246 373 245.5 408.5 c 132,-1,4
 245 444 245 444 231 479 c 5,5,6
 220 465 220 465 174 422.5 c 132,-1,7
 128 380 128 380 101 351 c 132,-1,8
 74 322 74 322 52.5 280.5 c 132,-1,9
 31 239 31 239 31 196 c 6,10,-1
 31 172 l 5,0,1
300 635 m 4,11,12
 300 576 300 576 263 519 c 5,13,14
 287 467 287 467 287 414.5 c 132,-1,15
 287 362 287 362 259.5 311.5 c 132,-1,16
 232 261 232 261 197 228 c 6,17,-1
 121 153 l 5,18,19
 31 61 31 61 31 -28 c 5,20,-1
 0 -28 l 5,21,-1
 0 472 l 5,22,-1
 31 472 l 5,23,-1
 31 396 l 5,24,25
 258 514 258 514 258 635 c 4,26,27
 258 661 258 661 244 696 c 5,28,-1
 244 700 l 6,29,30
 244 710 244 710 251 717 c 132,-1,31
 258 724 258 724 268 724 c 4,32,33
 291 724 291 724 297 664 c 5,34,-1
 299 653 l 6,35,36
 300 647 300 647 300 635 c 4,11,12
EndSplineSet
EndChar

StartChar: uniE4E7
Encoding: 58599 58599 87
GlifName: uniE_4E_7
Width: 299
Flags: W
HStem: -196 53<37.5 145> 54 53<115.5 222.5>
VStem: 66 55<-500 -500>
LayerCount: 2
Fore
SplineSet
125 205 m 0,0,1
 152 205 152 205 166 189.5 c 128,-1,2
 180 174 180 174 183 156 c 128,-1,3
 186 138 186 138 193 122.5 c 128,-1,4
 200 107 200 107 215 107 c 0,5,6
 225 107 225 107 245 131 c 128,-1,7
 265 155 265 155 272 170 c 0,8,9
 276 179 276 179 286 179 c 128,-1,10
 296 179 296 179 300 170 c 1,11,-1
 121 -500 l 1,12,13
 110 -510 110 -510 94 -510 c 0,14,15
 77 -510 77 -510 66 -500 c 1,16,-1
 167 -173 l 1,17,18
 102 -196 102 -196 61 -196 c 0,19,20
 25 -196 25 -196 -0.5 -173 c 128,-1,21
 -26 -150 -26 -150 -26 -117 c 0,22,23
 -26 -87 -26 -87 -5 -66 c 128,-1,24
 16 -45 16 -45 46 -45 c 0,25,26
 73 -45 73 -45 87.5 -60.5 c 128,-1,27
 102 -76 102 -76 104.5 -94 c 128,-1,28
 107 -112 107 -112 114.5 -127.5 c 128,-1,29
 122 -143 122 -143 137 -143 c 0,30,31
 148 -143 148 -143 170.5 -116 c 128,-1,32
 193 -89 193 -89 197 -75 c 2,33,-1
 243 76 l 1,34,35
 181 54 181 54 139 54 c 0,36,37
 103 54 103 54 77.5 77 c 128,-1,38
 52 100 52 100 52 133 c 0,39,40
 52 163 52 163 73.5 184 c 128,-1,41
 95 205 95 205 125 205 c 0,0,1
EndSplineSet
EndChar

StartChar: uniE282
Encoding: 57986 57986 88
GlifName: uniE_282
Width: 174
Flags: W
VStem: 0 175<-154 -95 102 161> 64 39<-367 -188 -63 67 192 355>
LayerCount: 2
Fore
SplineSet
64 -188 m 1,0,-1
 21 -205 l 2,1,2
 0 -213 0 -213 0 -194 c 2,3,-1
 0 -114 l 2,4,5
 0 -103 0 -103 18 -97 c 2,6,-1
 64 -78 l 1,7,-1
 64 67 l 1,8,-1
 21 51 l 2,9,10
 0 43 0 43 0 62 c 2,11,-1
 0 142 l 2,12,13
 0 153 0 153 18 159 c 2,14,-1
 64 178 l 1,15,-1
 64 336 l 2,16,17
 64 356 64 356 84 355.5 c 128,-1,18
 104 355 104 355 104 336 c 2,19,-1
 104 192 l 1,20,-1
 153 213 l 1,21,22
 174 219 174 219 175 201 c 2,23,-1
 175 121 l 2,24,25
 175 110 175 110 155 103 c 2,26,-1
 104 82 l 1,27,-1
 104 -63 l 1,28,-1
 153 -44 l 1,29,30
 174 -38 174 -38 175 -55 c 2,31,-1
 175 -135 l 2,32,33
 175 -146 175 -146 155 -153 c 2,34,-1
 104 -174 l 1,35,-1
 104 -348 l 2,36,37
 104 -368 104 -368 84 -367.5 c 128,-1,38
 64 -367 64 -367 64 -348 c 2,39,-1
 64 -188 l 1,0,-1
EndSplineSet
EndChar

StartChar: uniE272
Encoding: 57970 57970 89
GlifName: uniE_272
Width: 162
Flags: W
VStem: 0 31<-91 52 159 367> 131 31<-378 -159 -52 91>
LayerCount: 2
Fore
SplineSet
31 -91 m 1,0,-1
 131 -52 l 1,1,-1
 131 91 l 1,2,-1
 31 52 l 1,3,-1
 31 -91 l 1,0,-1
18 -202 m 2,4,5
 0 -208 0 -208 0 -189 c 2,6,-1
 0 367 l 1,7,8
 -39 352 -39 352 -49 345.5 c 128,-1,9
 -59 339 -59 339 -64 339 c 0,10,11
 -80 339 -80 339 -80 354 c 0,12,13
 -80 359 -80 359 -75 368 c 0,14,15
 -26 445 -26 445 -3 548 c 0,16,17
 0 565 0 565 6.5 567.5 c 128,-1,18
 13 570 13 570 18 570 c 0,19,20
 28 570 28 570 32 552 c 0,21,22
 63 435 63 435 105 368 c 0,23,24
 110 358 110 358 110 354 c 0,25,26
 110 339 110 339 95 339 c 0,27,28
 90 339 90 339 74 347.5 c 128,-1,29
 58 356 58 356 31 367 c 1,30,-1
 31 159 l 1,31,-1
 145 202 l 2,32,33
 163 208 163 208 162 189 c 2,34,-1
 162 -357 l 2,35,36
 162 -378 162 -378 146.5 -378 c 128,-1,37
 131 -378 131 -378 131 -357 c 2,38,-1
 131 -159 l 1,39,-1
 18 -202 l 2,4,5
EndSplineSet
EndChar

StartChar: uniE651
Encoding: 58961 58961 91
GlifName: uniE_651
Width: 416
Flags: W
HStem: 0 21G<104 130> 225 66<53 104> 289 64<315 367> 482 18<239 303>
VStem: -1 44<300 379> 125 18<316 356> 164 40<309 388> 252 52<169 218> 371 45<341 426>
LayerCount: 2
Fore
SplineSet
231 102 m 1,0,1
 148 0 148 0 111 0 c 0,2,3
 97 0 97 0 97 12 c 0,4,5
 97 35 97 35 145 75 c 128,-1,6
 193 115 193 115 222 120 c 1,7,8
 252 156 252 156 252 169 c 0,9,10
 252 194 252 194 208 247 c 128,-1,11
 164 300 164 300 164 318.5 c 128,-1,12
 164 337 164 337 189 401 c 128,-1,13
 214 465 214 465 224 481 c 1,14,15
 143 474 143 474 93 428.5 c 128,-1,16
 43 383 43 383 43 339 c 0,17,18
 43 314 43 314 57 302.5 c 128,-1,19
 71 291 71 291 84.5 291 c 128,-1,20
 98 291 98 291 111.5 308.5 c 128,-1,21
 125 326 125 326 125 350 c 0,22,23
 125 357 125 357 134 356.5 c 128,-1,24
 143 356 143 356 143 350 c 0,25,26
 143 302 143 302 117 263.5 c 128,-1,27
 91 225 91 225 63.5 225 c 128,-1,28
 36 225 36 225 17.5 246.5 c 128,-1,29
 -1 268 -1 268 -1 303 c 0,30,31
 -1 373 -1 373 68.5 436.5 c 128,-1,32
 138 500 138 500 250 500 c 0,33,34
 327 500 327 500 371.5 453.5 c 128,-1,35
 416 407 416 407 416 356 c 0,36,37
 416 326 416 326 399.5 307.5 c 128,-1,38
 383 289 383 289 364 289 c 0,39,40
 307 289 307 289 277 379 c 0,41,42
 276 382 276 382 279.5 385.5 c 128,-1,43
 283 389 283 389 287 389 c 128,-1,44
 291 389 291 389 293 386 c 0,45,46
 298 375 298 375 311.5 364.5 c 128,-1,47
 325 354 325 354 338 354 c 128,-1,48
 351 354 351 354 361 363 c 0,49,50
 371 373 371 373 371 390 c 0,51,52
 371 424 371 424 338 453 c 128,-1,53
 305 482 305 482 250 482 c 2,54,-1
 243 482 l 1,55,56
 234 466 234 466 219 423.5 c 128,-1,57
 204 381 204 381 204 374 c 0,58,59
 204 352 204 352 254 294 c 128,-1,60
 304 236 304 236 304 210 c 0,61,62
 304 194 304 194 246 120 c 1,63,64
 267 119 267 119 300.5 103.5 c 128,-1,65
 334 88 334 88 344.5 78.5 c 128,-1,66
 355 69 355 69 368 79 c 2,67,-1
 405 107 l 2,68,69
 408 110 408 110 413 105.5 c 128,-1,70
 418 101 418 101 418 96 c 128,-1,71
 418 91 418 91 364.5 46.5 c 128,-1,72
 311 2 311 2 293 2 c 0,73,74
 283 2 283 2 265.5 49.5 c 128,-1,75
 248 97 248 97 231 102 c 1,0,1
EndSplineSet
EndChar

StartChar: uniE274
Encoding: 57972 57972 92
GlifName: uniE_274
Width: 254
Flags: W
VStem: 0 83<-217 -202 39 54> 45 38<-383 -218 -92 38 164 334> 170 85<-59 -44 197 213> 170 39<-339 -169 -44 87 213 416>
LayerCount: 2
Fore
SplineSet
263 392 m 1,0,-1
 209 417 l 1,1,-1
 209 213 l 1,2,-1
 233 222 l 1,3,4
 254 228 254 228 255 210 c 2,5,-1
 255 131 l 2,6,7
 255 117 255 117 235 111 c 1,8,-1
 209 102 l 1,9,-1
 209 -44 l 1,10,-1
 233 -34 l 1,11,12
 254 -28 254 -28 255 -46 c 2,13,-1
 255 -125 l 2,14,15
 255 -139 255 -139 235 -145 c 1,16,-1
 209 -155 l 1,17,-1
 209 -320 l 2,18,19
 209 -339 209 -339 189.5 -339 c 128,-1,20
 170 -339 170 -339 170 -320 c 2,21,-1
 170 -169 l 1,22,-1
 83 -202 l 1,23,-1
 83 -363 l 2,24,25
 83 -383 83 -383 64 -383 c 128,-1,26
 45 -383 45 -383 45 -363 c 2,27,-1
 45 -218 l 1,28,-1
 21 -227 l 2,29,30
 0 -236 0 -236 0 -215 c 2,31,-1
 0 -136 l 2,32,33
 0 -125 0 -125 18 -118 c 2,34,-1
 45 -107 l 1,35,-1
 45 38 l 1,36,-1
 21 29 l 2,37,38
 0 20 0 20 0 41 c 2,39,-1
 0 120 l 2,40,41
 0 131 0 131 18 139 c 1,42,-1
 45 148 l 1,43,-1
 45 314 l 2,44,45
 45 334 45 334 64 334 c 128,-1,46
 83 334 83 334 83 314 c 2,47,-1
 83 164 l 1,48,-1
 170 197 l 1,49,-1
 170 416 l 1,50,51
 144 404 144 404 133.5 398 c 128,-1,52
 123 392 123 392 119 392 c 0,53,54
 105 392 105 392 105 406 c 0,55,56
 105 408 105 408 110 418 c 0,57,58
 154 486 154 486 175 580 c 0,59,60
 179 595 179 595 183.5 597.5 c 128,-1,61
 188 600 188 600 193 600 c 0,62,63
 203 600 203 600 207 584 c 0,64,65
 233 480 233 480 272 418 c 0,66,67
 277 408 277 408 277 406 c 0,68,69
 278 392 278 392 263 392 c 1,0,-1
83 -92 m 1,70,-1
 170 -59 l 1,71,-1
 170 87 l 1,72,-1
 83 54 l 1,73,-1
 83 -92 l 1,70,-1
EndSplineSet
EndChar

StartChar: uniE083
Encoding: 57475 57475 93
GlifName: uniE_083
Width: 332
Flags: W
HStem: -250 23<104 187> 0 29<73 201> 227 23<101 188>
VStem: 0 91<-197 -124> 12 79<136 205> 217 116<-185 -35> 217 103<50 201>
LayerCount: 2
Fore
SplineSet
154 -227 m 0,0,1
 216 -227 216 -227 217 -110 c 2,2,-1
 217 -94 l 2,3,4
 217 -66 217 -66 215 -46.5 c 128,-1,5
 213 -27 213 -27 201.5 -13.5 c 128,-1,6
 190 0 190 0 167 0 c 2,7,-1
 87 0 l 2,8,9
 73 0 73 0 73 13.5 c 128,-1,10
 73 27 73 27 87 29 c 1,11,-1
 167 29 l 2,12,13
 194 29 194 29 205 45 c 128,-1,14
 216 61 216 61 217 96 c 1,15,-1
 217 136 l 2,16,17
 217 227 217 227 150 227 c 0,18,19
 90 227 90 227 91 194 c 0,20,21
 91 183 91 183 109 170.5 c 128,-1,22
 127 158 127 158 127 147 c 0,23,24
 127 123 127 123 110 106 c 128,-1,25
 93 89 93 89 69 89 c 128,-1,26
 45 89 45 89 28.5 106.5 c 128,-1,27
 12 124 12 124 12 147 c 0,28,29
 12 193 12 193 53 223 c 0,30,31
 96 250 96 250 160 250 c 128,-1,32
 224 250 224 250 271.5 222 c 128,-1,33
 319 194 319 194 319 136 c 0,34,35
 319 94 319 94 310.5 72 c 128,-1,36
 302 50 302 50 291 45 c 0,37,38
 263 33 263 33 263 15 c 0,39,40
 263 2 263 2 298 -21 c 0,41,42
 310 -28 310 -28 321.5 -52 c 128,-1,43
 333 -76 333 -76 333 -110 c 0,44,45
 333 -177 333 -177 282.5 -213.5 c 128,-1,46
 232 -250 232 -250 161.5 -250 c 128,-1,47
 91 -250 91 -250 47 -219 c 0,48,49
 0 -190 0 -190 0 -137 c 0,50,51
 0 -112 0 -112 20 -90 c 0,52,53
 41 -71 41 -71 67.5 -71 c 128,-1,54
 94 -71 94 -71 111 -91 c 0,55,56
 131 -110 131 -110 131 -137 c 0,57,58
 131 -150 131 -150 111 -164 c 0,59,60
 90 -178 90 -178 90.5 -193.5 c 128,-1,61
 91 -209 91 -209 109.5 -218 c 128,-1,62
 128 -227 128 -227 154 -227 c 0,0,1
EndSplineSet
EndChar

StartChar: uniE0C0
Encoding: 57536 57536 94
GlifName: uniE_0C_0
Width: 328
Flags: W
HStem: -112 225<0 61>
VStem: 0 329<-106 -67>
LayerCount: 2
Fore
SplineSet
319 -72 m 2,0,1
 329 -79 329 -79 329 -89.5 c 128,-1,2
 329 -100 329 -100 322.5 -106 c 128,-1,3
 316 -112 316 -112 307 -112 c 2,4,-1
 22 -112 l 2,5,6
 13 -112 13 -112 6.5 -106 c 128,-1,7
 0 -100 0 -100 0 -91 c 2,8,-1
 0 91 l 2,9,10
 0 100 0 100 6.5 106 c 128,-1,11
 13 112 13 112 20.5 112 c 128,-1,12
 28 112 28 112 34 109 c 2,13,-1
 319 -72 l 2,0,1
EndSplineSet
EndChar

StartChar: uniEAA4
Encoding: 60068 60068 95
GlifName: uniE_A_A_4
Width: 250
Flags: W
HStem: 194 111<155 220> 285 111<31 94>
LayerCount: 2
Fore
SplineSet
290 359 m 0,0,1
 306 359 306 359 306 344 c 0,2,3
 306 337 306 337 302 333 c 2,4,-1
 195 205 l 2,5,6
 186 194 186 194 172 194 c 128,-1,7
 158 194 158 194 135.5 220.5 c 128,-1,8
 113 247 113 247 96 262 c 0,9,10
 73 285 73 285 45 285 c 128,-1,11
 17 285 17 285 -3 269 c 1,12,-1
 -28 237 l 2,13,14
 -33 231 -33 231 -39.5 231 c 128,-1,15
 -46 231 -46 231 -51 236 c 128,-1,16
 -56 241 -56 241 -56 247 c 128,-1,17
 -56 253 -56 253 -52 257 c 2,18,-1
 55 386 l 2,19,20
 63 397 63 397 77.5 396.5 c 128,-1,21
 92 396 92 396 114.5 370.5 c 128,-1,22
 137 345 137 345 158 325.5 c 128,-1,23
 179 306 179 306 206 306 c 128,-1,24
 233 306 233 306 253 322 c 1,25,-1
 278 354 l 2,26,27
 283 359 283 359 290 359 c 0,0,1
EndSplineSet
EndChar

StartChar: uniE564
Encoding: 58724 58724 96
GlifName: uniE_564
Width: 207
Flags: W
LayerCount: 2
Fore
SplineSet
-166 -521 m 2,0,-1
 194 -231 l 2,1,2
 202 -225 202 -225 210.5 -225.5 c 128,-1,3
 219 -226 219 -226 226 -232 c 128,-1,4
 233 -238 233 -238 233 -250.5 c 128,-1,5
 233 -263 233 -263 224 -269 c 1,6,-1
 -135 -559 l 1,7,8
 -145 -565 -145 -565 -153 -564.5 c 128,-1,9
 -161 -564 -161 -564 -168 -556.5 c 128,-1,10
 -175 -549 -175 -549 -175 -538 c 128,-1,11
 -175 -527 -175 -527 -166 -521 c 2,0,-1
EndSplineSet
EndChar

StartChar: uniE4E9
Encoding: 58601 58601 97
GlifName: uniE_4E_9
Width: 349
Flags: W
HStem: -446 53<-3.5 104.5> -196 53<56.5 164> 54 53<115.5 222.5> 304 53<175.5 282>
LayerCount: 2
Fore
SplineSet
184 455 m 0,0,1
 211 455 211 455 225.5 439.5 c 128,-1,2
 240 424 240 424 242.5 406 c 128,-1,3
 245 388 245 388 252.5 372.5 c 128,-1,4
 260 357 260 357 275 357 c 0,5,6
 284 357 284 357 299.5 380.5 c 128,-1,7
 315 404 315 404 322 420 c 0,8,9
 326 430 326 430 336 430 c 128,-1,10
 346 430 346 430 350 420 c 1,11,-1
 115 -750 l 1,12,13
 104 -760 104 -760 87 -760 c 0,14,15
 71 -760 71 -760 60 -750 c 1,16,-1
 133 -422 l 1,17,18
 67 -446 67 -446 20 -446 c 0,19,20
 -16 -446 -16 -446 -41.5 -423 c 128,-1,21
 -67 -400 -67 -400 -67 -367 c 0,22,23
 -67 -337 -67 -337 -45.5 -316 c 128,-1,24
 -24 -295 -24 -295 6 -295 c 0,25,26
 33 -295 33 -295 47 -310.5 c 128,-1,27
 61 -326 61 -326 64 -344 c 128,-1,28
 67 -362 67 -362 74 -377.5 c 128,-1,29
 81 -393 81 -393 96 -393 c 0,30,31
 108 -393 108 -393 130.5 -364 c 128,-1,32
 153 -335 153 -335 156 -320 c 2,33,-1
 189 -173 l 1,34,35
 127 -196 127 -196 80 -196 c 0,36,37
 44 -196 44 -196 18.5 -173 c 128,-1,38
 -7 -150 -7 -150 -7 -117 c 0,39,40
 -7 -87 -7 -87 14 -66 c 128,-1,41
 35 -45 35 -45 65 -45 c 0,42,43
 92 -45 92 -45 106.5 -60.5 c 128,-1,44
 121 -76 121 -76 123.5 -94 c 128,-1,45
 126 -112 126 -112 133.5 -127.5 c 128,-1,46
 141 -143 141 -143 156 -143 c 0,47,48
 167 -143 167 -143 187.5 -115 c 128,-1,49
 208 -87 208 -87 211 -72 c 2,50,-1
 245 77 l 1,51,52
 180 54 180 54 139 54 c 0,53,54
 103 54 103 54 77.5 77 c 128,-1,55
 52 100 52 100 52 133 c 0,56,57
 52 163 52 163 73.5 184 c 128,-1,58
 95 205 95 205 125 205 c 0,59,60
 152 205 152 205 166 189.5 c 128,-1,61
 180 174 180 174 183 156 c 128,-1,62
 186 138 186 138 193 122.5 c 128,-1,63
 200 107 200 107 215 107 c 0,64,65
 225 107 225 107 244 134 c 128,-1,66
 263 161 263 161 267 175 c 2,67,-1
 301 326 l 1,68,69
 240 304 240 304 199 304 c 0,70,71
 163 304 163 304 137.5 327 c 128,-1,72
 112 350 112 350 112 383 c 0,73,74
 112 413 112 413 133 434 c 128,-1,75
 154 455 154 455 184 455 c 0,0,1
EndSplineSet
EndChar

StartChar: uniE610
Encoding: 58896 58896 98
GlifName: uniE_610
Width: 375
Flags: W
HStem: 0 21G<8 23 358 365> 200 133<31 346>
VStem: 0 31<0 200> 346 31<5 200>
LayerCount: 2
Fore
SplineSet
31 15 m 2,0,1
 31 0 31 0 15.5 0 c 128,-1,2
 0 0 0 0 0 15 c 2,3,-1
 0 323 l 2,4,5
 0 333 0 333 11 333 c 2,6,-1
 366 333 l 2,7,8
 377 333 377 333 377 323 c 2,9,-1
 377 15 l 2,10,11
 377 9 377 9 372.5 4.5 c 128,-1,12
 368 0 368 0 361 0 c 128,-1,13
 354 0 354 0 350 4.5 c 128,-1,14
 346 9 346 9 346 15 c 2,15,-1
 346 200 l 1,16,-1
 31 200 l 1,17,-1
 31 15 l 2,0,1
EndSplineSet
EndChar

StartChar: uniE624
Encoding: 58916 58916 99
GlifName: uniE_624
Width: 198
Flags: W
HStem: 0 21G<94 105> 295 30<70 130>
VStem: 0 53<120 279> 78 43<8 85> 147 52<121 279>
LayerCount: 2
Fore
SplineSet
121 75 m 1,0,-1
 124 24 l 2,1,2
 125 14 125 14 117.5 7 c 128,-1,3
 110 0 110 0 99.5 0 c 128,-1,4
 89 0 89 0 81.5 7.5 c 128,-1,5
 74 15 74 15 75 24 c 2,6,-1
 78 75 l 1,7,-1
 78 77 l 1,8,9
 42 86 42 86 21 120.5 c 128,-1,10
 0 155 0 155 0 203.5 c 128,-1,11
 0 252 0 252 28 288.5 c 128,-1,12
 56 325 56 325 100 325 c 128,-1,13
 144 325 144 325 171.5 288.5 c 128,-1,14
 199 252 199 252 199 203.5 c 128,-1,15
 199 155 199 155 177 120.5 c 128,-1,16
 155 86 155 86 121 77 c 1,17,-1
 121 75 l 1,0,-1
147 200 m 128,-1,19
 147 295 147 295 100 295 c 128,-1,20
 53 295 53 295 53 200 c 128,-1,21
 53 105 53 105 100 105 c 128,-1,18
 147 105 147 105 147 200 c 128,-1,19
EndSplineSet
EndChar

StartChar: uniE093
Encoding: 57491 57491 100
GlifName: uniE_093
Width: 175
Flags: W
VStem: 100 51<-123 123>
LayerCount: 2
Fore
SplineSet
37 -250 m 0,0,1
 37 -249 37 -249 52 -225.5 c 128,-1,2
 67 -202 67 -202 83.5 -144 c 128,-1,3
 100 -86 100 -86 100 0 c 128,-1,4
 100 86 100 86 83.5 144.5 c 128,-1,5
 67 203 67 203 52 226 c 128,-1,6
 37 249 37 249 37 250 c 0,7,8
 37 263 37 263 50 263 c 0,9,10
 59 263 59 263 83 226 c 128,-1,11
 107 189 107 189 128.5 122.5 c 128,-1,12
 150 56 150 56 150 -2 c 128,-1,13
 150 -60 150 -60 128.5 -124 c 128,-1,14
 107 -188 107 -188 83 -225.5 c 128,-1,15
 59 -263 59 -263 50 -263 c 0,16,17
 37 -263 37 -263 37 -250 c 0,0,1
EndSplineSet
EndChar

StartChar: uniE0D9
Encoding: 57561 57561 101
GlifName: uniE_0D_9
Width: 363
Flags: W
HStem: -137 21G<32 50> -105 24<106 138> 81 30<221 280>
VStem: 292 72<48 115>
LayerCount: 2
Fore
SplineSet
292 55 m 0,0,1
 292 81 292 81 264.5 81 c 128,-1,2
 237 81 237 81 168.5 35.5 c 128,-1,3
 100 -10 100 -10 86 -25.5 c 128,-1,4
 72 -41 72 -41 72 -55 c 0,5,6
 72 -81 72 -81 99 -81 c 128,-1,7
 126 -81 126 -81 195 -35.5 c 128,-1,8
 264 10 264 10 278 25.5 c 128,-1,9
 292 41 292 41 292 55 c 0,0,1
125 111 m 1,10,-1
 203 105 l 1,11,12
 225 105 225 105 268 121 c 0,13,14
 305 138 305 138 323 138 c 128,-1,15
 341 138 341 138 352.5 124.5 c 128,-1,16
 364 111 364 111 364 96.5 c 128,-1,17
 364 82 364 82 346 53 c 0,18,19
 328 29 328 29 322.5 13.5 c 128,-1,20
 317 -2 317 -2 315.5 -27.5 c 128,-1,21
 314 -53 314 -53 310.5 -69.5 c 128,-1,22
 307 -86 307 -86 289 -98.5 c 128,-1,23
 271 -111 271 -111 239 -111 c 1,24,-1
 161 -105 l 1,25,26
 135 -105 135 -105 97 -121 c 128,-1,27
 59 -137 59 -137 41 -137 c 128,-1,28
 23 -137 23 -137 11.5 -124 c 128,-1,29
 0 -111 0 -111 0 -95 c 128,-1,30
 0 -79 0 -79 20 -53 c 0,31,32
 37 -28 37 -28 42 -13 c 128,-1,33
 47 2 47 2 48 25 c 128,-1,34
 49 48 49 48 52.5 66.5 c 128,-1,35
 56 85 56 85 74.5 98 c 128,-1,36
 93 111 93 111 125 111 c 1,10,-1
EndSplineSet
EndChar

StartChar: uniE092
Encoding: 57490 57490 102
GlifName: uniE_092
Width: 175
Flags: W
VStem: 25 51<-123 125>
LayerCount: 2
Fore
SplineSet
139 -250 m 0,0,1
 139 -263 139 -263 126 -263 c 0,2,3
 117 -263 117 -263 92.5 -225.5 c 128,-1,4
 68 -188 68 -188 46.5 -124 c 128,-1,5
 25 -60 25 -60 25 -2 c 128,-1,6
 25 56 25 56 47 125 c 0,7,8
 71 193 71 193 94 228 c 128,-1,9
 117 263 117 263 126 263 c 0,10,11
 139 263 139 263 139 250 c 0,12,13
 139 249 139 249 123.5 226 c 128,-1,14
 108 203 108 203 92 144.5 c 128,-1,15
 76 86 76 86 76 0 c 128,-1,16
 76 -86 76 -86 92 -144 c 128,-1,17
 108 -202 108 -202 123.5 -225.5 c 128,-1,18
 139 -249 139 -249 139 -250 c 0,0,1
EndSplineSet
EndChar

StartChar: uniE522
Encoding: 58658 58658 103
GlifName: uniE_522
Width: 426
Flags: W
HStem: -166 32<-43 21> 245 33<61 124 257 325> 436 31<305 370>
VStem: -100 57<-134 -95> 370 57<396 435>
LayerCount: 2
Fore
SplineSet
47 -61.5 m 128,-1,1
 48 -60 48 -60 53 -41 c 2,2,-1
 124 245 l 1,3,-1
 72 245 l 2,4,5
 65 245 65 245 61 250 c 0,6,7
 57 256 57 256 57 262 c 128,-1,8
 57 268 57 268 61 273 c 0,9,10
 68 278 68 278 72 278 c 2,11,-1
 133 278 l 1,12,13
 158 354 158 354 216 410.5 c 128,-1,14
 274 467 274 467 342 467 c 0,15,16
 377 467 377 467 402 450 c 128,-1,17
 427 433 427 433 427 403.5 c 128,-1,18
 427 374 427 374 414 351 c 0,19,20
 399 329 399 329 378.5 328.5 c 128,-1,21
 358 328 358 328 345.5 341 c 128,-1,22
 333 354 333 354 333 370 c 128,-1,23
 333 386 333 386 351.5 398 c 128,-1,24
 370 410 370 410 370 425 c 0,25,26
 370 436 370 436 349 436 c 2,27,-1
 346 436 l 1,28,29
 344 435 344 435 334 435 c 0,30,31
 299 435 299 435 275 363 c 0,32,33
 274 358 274 358 271 343 c 128,-1,34
 268 328 268 328 263.5 307.5 c 128,-1,35
 259 287 259 287 257 278 c 1,36,-1
 313 278 l 2,37,38
 320 278 320 278 325 273.5 c 128,-1,39
 330 269 330 269 330 262 c 128,-1,40
 330 255 330 255 325 250 c 128,-1,41
 320 245 320 245 313 245 c 2,42,-1
 248 245 l 1,43,-1
 198 84 l 2,44,45
 172 -3 172 -3 111 -84.5 c 128,-1,46
 50 -166 50 -166 -15 -166 c 0,47,48
 -49 -166 -49 -166 -74.5 -148.5 c 128,-1,49
 -100 -131 -100 -131 -100 -100.5 c 128,-1,50
 -100 -70 -100 -70 -86.5 -48.5 c 128,-1,51
 -73 -27 -73 -27 -52 -27 c 128,-1,52
 -31 -27 -31 -27 -18.5 -40 c 128,-1,53
 -6 -53 -6 -53 -6 -69 c 128,-1,54
 -6 -85 -6 -85 -24.5 -97 c 128,-1,55
 -43 -109 -43 -109 -43 -124 c 0,56,57
 -43 -134 -43 -134 -21 -134 c 2,58,-1
 -15 -134 l 2,59,60
 1 -134 1 -134 11.5 -125.5 c 128,-1,61
 22 -117 22 -117 23 -117 c 0,62,63
 38 -95 38 -95 41 -83 c 2,64,-1
 45 -67 l 2,65,0
 46 -63 46 -63 47 -61.5 c 128,-1,1
EndSplineSet
EndChar

StartChar: uniE520
Encoding: 58656 58656 104
GlifName: uniE_520
Width: 397
Flags: W
HStem: -138 15<-67 18 120 176> -4 37<188 256> 229 47<81 144 238 304>
VStem: 305 93<103 229>
LayerCount: 2
Fore
SplineSet
281 229 m 0,0,1
 254 229 254 229 231.5 199.5 c 128,-1,2
 209 170 209 170 197.5 133 c 128,-1,3
 186 96 186 96 186 70 c 0,4,5
 186 33 186 33 214 33 c 0,6,7
 239 33 239 33 257 53 c 128,-1,8
 275 73 275 73 290 125 c 128,-1,9
 305 177 305 177 304.5 203 c 128,-1,10
 304 229 304 229 281 229 c 0,0,1
116 -109 m 2,11,12
 116 -123 116 -123 161 -123 c 0,13,14
 176 -125 176 -125 176 -131.5 c 128,-1,15
 176 -138 176 -138 169 -138 c 0,16,17
 81 -133 81 -133 53.5 -133 c 128,-1,18
 26 -133 26 -133 -60 -138 c 0,19,20
 -68 -138 -68 -138 -67.5 -131.5 c 128,-1,21
 -67 -125 -67 -125 -57.5 -123 c 128,-1,22
 -48 -121 -48 -121 -2 -121 c 0,23,24
 19 -121 19 -121 22 -108 c 1,25,-1
 128 197 l 2,26,27
 131 206 131 206 131 212 c 0,28,29
 131 230 131 230 111.5 229.5 c 128,-1,30
 92 229 92 229 67.5 200.5 c 128,-1,31
 43 172 43 172 29 138 c 0,32,33
 25 129 25 129 17 129 c 128,-1,34
 9 129 9 129 9 136 c 128,-1,35
 9 143 9 143 21 168 c 0,36,37
 73 276 73 276 131 276 c 0,38,39
 156 276 156 276 174.5 263 c 128,-1,40
 193 250 193 250 199 227 c 1,41,42
 219 249 219 249 246 262.5 c 128,-1,43
 273 276 273 276 297 276 c 0,44,45
 345 276 345 276 371 245.5 c 128,-1,46
 397 215 397 215 397 168 c 0,47,48
 397 86 397 86 344 41 c 128,-1,49
 291 -4 291 -4 249 -4 c 128,-1,50
 207 -4 207 -4 184 10 c 0,51,52
 175 15 175 15 166 15 c 128,-1,53
 157 15 157 15 153 5 c 2,54,-1
 116 -104 l 1,55,-1
 116 -109 l 2,11,12
EndSplineSet
EndChar

StartChar: uniE062
Encoding: 57442 57442 105
GlifName: uniE_062
Width: 671
Flags: W
HStem: -176 102<572 643> -87 206<79 173> 74 102<572 643> 237 25<174 291>
VStem: 0 212<-44 79> 403 122<-108 119> 557 102<-161 -89 89 161>
LayerCount: 2
Fore
SplineSet
557 125 m 128,-1,1
 557 146 557 146 571.5 161 c 128,-1,2
 586 176 586 176 607.5 176 c 128,-1,3
 629 176 629 176 643.5 161 c 128,-1,4
 658 146 658 146 658 125 c 128,-1,5
 658 104 658 104 643.5 89 c 128,-1,6
 629 74 629 74 607.5 74 c 128,-1,7
 586 74 586 74 571.5 89 c 128,-1,0
 557 104 557 104 557 125 c 128,-1,1
557 -125 m 128,-1,9
 557 -104 557 -104 571.5 -89 c 128,-1,10
 586 -74 586 -74 607.5 -74 c 128,-1,11
 629 -74 629 -74 643.5 -89 c 128,-1,12
 658 -104 658 -104 658 -125 c 128,-1,13
 658 -146 658 -146 643.5 -161 c 128,-1,14
 629 -176 629 -176 607.5 -176 c 128,-1,15
 586 -176 586 -176 571.5 -161 c 128,-1,8
 557 -146 557 -146 557 -125 c 128,-1,9
232 263 m 0,16,17
 362 263 362 263 445 197 c 1,18,19
 525 129 525 129 525 12 c 0,20,21
 525 -59 525 -59 495 -130 c 128,-1,22
 465 -201 465 -201 416 -254 c 0,23,24
 327 -353 327 -353 173.5 -433 c 128,-1,25
 20 -513 20 -513 3.5 -513 c 128,-1,26
 -13 -513 -13 -513 -13 -500 c 0,27,28
 -13 -495 -13 -495 -9 -491 c 0,29,30
 41 -462 41 -462 100.5 -424 c 128,-1,31
 160 -386 160 -386 221.5 -333.5 c 128,-1,32
 283 -281 283 -281 317 -236.5 c 128,-1,33
 351 -192 351 -192 379 -127 c 0,34,35
 403 -62 403 -62 403 2 c 0,36,37
 403 97 403 97 356.5 167 c 128,-1,38
 310 237 310 237 232 237 c 0,39,40
 177 237 177 237 136.5 200.5 c 128,-1,41
 96 164 96 164 78 111 c 1,42,43
 97 119 97 119 112 119 c 0,44,45
 153 119 153 119 182.5 89 c 128,-1,46
 212 59 212 59 212 18 c 128,-1,47
 212 -23 212 -23 184 -57 c 0,48,49
 154 -87 154 -87 111 -87 c 128,-1,50
 68 -87 68 -87 33 -57 c 0,51,52
 0 -24 0 -24 0 19 c 0,53,54
 0 120 0 120 67.5 191.5 c 128,-1,55
 135 263 135 263 232 263 c 0,16,17
EndSplineSet
EndChar

StartChar: uniE4D1
Encoding: 58577 58577 106
GlifName: uniE_4D_1
Width: 446
Flags: W
HStem: 0 21G<6 55 146 195>
LayerCount: 2
Fore
SplineSet
152 0 m 2,0,1
 140 0 140 0 141 14 c 0,2,3
 141 17 141 17 142 19 c 2,4,-1
 373 482 l 2,5,6
 381 500 381 500 402 500 c 2,7,-1
 435 500 l 2,8,9
 447 500 447 500 446 488 c 0,10,11
 446 483 446 483 445 482 c 2,12,-1
 213 19 l 1,13,14
 206 2 206 2 185 0 c 1,15,-1
 152 0 l 2,0,1
1 19 m 2,16,-1
 233 482 l 2,17,18
 241 500 241 500 262 500 c 2,19,-1
 294 500 l 2,20,21
 305 500 305 500 306 491.5 c 128,-1,22
 307 483 307 483 306 482 c 2,23,-1
 73 19 l 1,24,25
 66 2 66 2 44 0 c 1,26,-1
 12 0 l 2,27,28
 0 0 0 0 0 12 c 0,29,30
 0 18 0 18 1 19 c 2,16,-1
EndSplineSet
EndChar

StartChar: uniE047
Encoding: 57415 57415 107
GlifName: uniE_047
Width: 500
Flags: W
HStem: 0 30<312 397> 295 61<57 99> 395 61<401 443> 720 30<103 188>
VStem: 0 78<563 678> 48 61<304 346> 173 112<562 657> 215 112<93 188> 392 61<404 446> 422 78<72 187>
LayerCount: 2
Fore
SplineSet
392 425 m 128,-1,1
 392 438 392 438 400.5 446.5 c 128,-1,2
 409 455 409 455 422 455 c 128,-1,3
 435 455 435 455 443.5 446.5 c 128,-1,4
 452 438 452 438 452 425 c 128,-1,5
 452 412 452 412 443.5 403.5 c 128,-1,6
 435 395 435 395 422 395 c 128,-1,7
 409 395 409 395 400.5 403.5 c 128,-1,0
 392 412 392 412 392 425 c 128,-1,1
48 325 m 128,-1,9
 48 338 48 338 56.5 346.5 c 128,-1,10
 65 355 65 355 78 355 c 128,-1,11
 91 355 91 355 99.5 346.5 c 128,-1,12
 108 338 108 338 108 325 c 128,-1,13
 108 312 108 312 99.5 303.5 c 128,-1,14
 91 295 91 295 78 295 c 128,-1,15
 65 295 65 295 56.5 303.5 c 128,-1,8
 48 312 48 312 48 325 c 128,-1,9
173 605 m 0,16,17
 173 651 173 651 213 669 c 1,18,19
 207 691 207 691 187.5 705.5 c 128,-1,20
 168 720 168 720 141.5 720 c 128,-1,21
 115 720 115 720 96.5 698 c 128,-1,22
 78 676 78 676 78 645 c 0,23,24
 78 525 78 525 250 426 c 1,25,-1
 440 750 l 1,26,-1
 500 750 l 1,27,-1
 296 401 l 1,28,29
 389 350 389 350 444.5 291.5 c 128,-1,30
 500 233 500 233 500 161.5 c 128,-1,31
 500 90 500 90 457.5 45 c 128,-1,32
 415 0 415 0 357 0 c 128,-1,33
 299 0 299 0 256 44 c 0,34,35
 215 88 215 88 215 147.5 c 128,-1,36
 215 207 215 207 269 207 c 0,37,38
 297 207 297 207 312 188.5 c 128,-1,39
 327 170 327 170 327 145 c 0,40,41
 327 99 327 99 287 81 c 1,42,43
 293 59 293 59 312.5 44.5 c 128,-1,44
 332 30 332 30 358.5 30 c 128,-1,45
 385 30 385 30 403.5 52 c 128,-1,46
 422 74 422 74 422 105 c 0,47,48
 422 225 422 225 250 324 c 1,49,-1
 60 0 l 1,50,-1
 0 0 l 1,51,-1
 204 349 l 1,52,53
 111 400 111 400 55.5 458.5 c 128,-1,54
 0 517 0 517 0 588.5 c 128,-1,55
 0 660 0 660 42 705 c 0,56,57
 85 750 85 750 143 750 c 128,-1,58
 201 750 201 750 244 707 c 0,59,60
 285 663 285 663 285 603 c 128,-1,61
 285 543 285 543 231 543 c 0,62,63
 202 543 202 543 187.5 561.5 c 128,-1,64
 173 580 173 580 173 605 c 0,16,17
EndSplineSet
EndChar

StartChar: uniE4E1
Encoding: 58593 58593 108
GlifName: uniE_4E_1
Width: 150
Flags: W
VStem: 0 150<-240 240>
LayerCount: 2
Fore
SplineSet
140 -250 m 2,0,-1
 10 -250 l 2,1,2
 0 -250 0 -250 0 -240 c 2,3,-1
 0 240 l 2,4,5
 0 250 0 250 10 250 c 2,6,-1
 140 250 l 2,7,8
 150 250 150 250 150 240 c 2,9,-1
 150 -240 l 2,10,11
 150 -250 150 -250 140 -250 c 2,0,-1
EndSplineSet
EndChar

StartChar: uniE086
Encoding: 57478 57478 109
GlifName: uniE_086
Width: 339
Flags: W
HStem: -250 23<135 207> 6 23<135 208> 227 23<150 224>
VStem: 0 117<-127 -2 16 118> 231 108<-188 -31> 236 92<123 205>
LayerCount: 2
Fore
SplineSet
221 -23 m 0,0,1
 209 6 209 6 171 6 c 128,-1,2
 133 6 133 6 124 -23 c 0,3,4
 117 -44 117 -44 117 -96 c 2,5,-1
 117 -125 l 2,6,7
 117 -176 117 -176 124 -197 c 0,8,9
 133 -226 133 -226 172 -226.5 c 128,-1,10
 211 -227 211 -227 221 -193.5 c 128,-1,11
 231 -160 231 -160 231.5 -106 c 128,-1,12
 232 -52 232 -52 221 -23 c 0,0,1
117 16 m 1,13,14
 146 28 146 28 170 29 c 0,15,16
 248 29 248 29 295 -6 c 0,17,18
 340 -42 340 -42 340 -110 c 128,-1,19
 340 -178 340 -178 294 -214 c 128,-1,20
 248 -250 248 -250 169 -250 c 128,-1,21
 90 -250 90 -250 45 -176 c 128,-1,22
 0 -102 0 -102 0 -1 c 128,-1,23
 0 100 0 100 53 176 c 0,24,25
 107 250 107 250 190 250 c 0,26,27
 245 250 245 250 286.5 221.5 c 128,-1,28
 328 193 328 193 328 147 c 0,29,30
 328 119 328 119 309 101 c 0,31,32
 291 81 291 81 263.5 81 c 128,-1,33
 236 81 236 81 216.5 100.5 c 128,-1,34
 197 120 197 120 197 147 c 0,35,36
 197 158 197 158 217 172 c 0,37,38
 237 184 237 184 236.5 197 c 128,-1,39
 236 210 236 210 223 219 c 0,40,41
 207 227 207 227 190 227 c 0,42,43
 145 227 145 227 131 190 c 0,44,45
 115 155 115 155 115 88 c 0,46,47
 115 68 115 68 116 52 c 128,-1,48
 117 36 117 36 117 16 c 1,13,14
EndSplineSet
EndChar

StartChar: uniE4E0
Encoding: 58592 58592 110
GlifName: uniE_4E_0
Width: 450
Flags: W
VStem: 0 150<-240 240> 300 150<-240 240>
LayerCount: 2
Fore
SplineSet
440 -250 m 2,0,-1
 310 -250 l 2,1,2
 300 -250 300 -250 300 -240 c 2,3,-1
 300 240 l 2,4,5
 300 250 300 250 310 250 c 2,6,-1
 440 250 l 2,7,8
 450 250 450 250 450 240 c 2,9,-1
 450 -240 l 2,10,11
 450 -250 450 -250 440 -250 c 2,0,-1
140 -250 m 2,12,-1
 10 -250 l 2,13,14
 0 -250 0 -250 0 -240 c 2,15,-1
 0 240 l 2,16,17
 0 250 0 250 10 250 c 2,18,-1
 140 250 l 2,19,20
 150 250 150 250 150 240 c 2,21,-1
 150 -240 l 2,22,23
 150 -250 150 -250 140 -250 c 2,12,-1
EndSplineSet
EndChar

StartChar: uniE4C9
Encoding: 58569 58569 111
GlifName: uniE_4C_9
Width: 732
VWidth: 976
Flags: W
HStem: -391 122<34 698> -220 73<156 576> -117 117<325 407>
VStem: 0 34<-269 -0> 122 34<-146 -0> 308 117<-100 -18> 576 34<-146 -0> 698 34<-269 -0>
LayerCount: 2
Fore
SplineSet
308 -58.5 m 128,-1,1
 308 -34 308 -34 325 -17 c 128,-1,2
 342 0 342 0 366.5 0 c 128,-1,3
 391 0 391 0 408 -17 c 128,-1,4
 425 -34 425 -34 425 -58.5 c 128,-1,5
 425 -83 425 -83 408 -100 c 128,-1,6
 391 -117 391 -117 366.5 -117 c 128,-1,7
 342 -117 342 -117 325 -100 c 128,-1,0
 308 -83 308 -83 308 -58.5 c 128,-1,1
131 -220 m 2,8,9
 122 -220 122 -220 122 -211 c 2,10,-1
 122 -17 l 2,11,12
 122 0 122 0 139 0 c 0,13,14
 157 0 157 0 156 -17 c 2,15,-1
 156 -146 l 1,16,-1
 576 -146 l 1,17,-1
 576 -17 l 2,18,19
 576 0 576 0 594 0 c 0,20,21
 611 0 611 0 610 -17 c 2,22,-1
 610 -211 l 2,23,24
 610 -220 610 -220 602 -220 c 2,25,-1
 131 -220 l 2,8,9
9 -391 m 2,26,27
 0 -391 0 -391 0 -382 c 2,28,-1
 0 -17 l 2,29,30
 0 0 0 0 17 0 c 0,31,32
 35 0 35 0 34 -17 c 2,33,-1
 34 -269 l 1,34,-1
 698 -269 l 1,35,-1
 698 -17 l 2,36,37
 698 0 698 0 716 0 c 0,38,39
 733 0 733 0 732 -17 c 2,40,-1
 732 -382 l 2,41,42
 732 -391 732 -391 724 -391 c 2,43,-1
 9 -391 l 2,26,27
EndSplineSet
EndChar

StartChar: uniE4E8
Encoding: 58600 58600 112
GlifName: uniE_4E_8
Width: 325
Flags: W
HStem: -196 53<8.5 116.5> 54 53<76.5 184> 304 53<145.5 252.5>
CounterMasks: 1 e0
LayerCount: 2
Fore
SplineSet
154 455 m 0,0,1
 181 455 181 455 195.5 439.5 c 128,-1,2
 210 424 210 424 212.5 406 c 128,-1,3
 215 388 215 388 222.5 372.5 c 128,-1,4
 230 357 230 357 245 357 c 0,5,6
 255 357 255 357 273 381 c 128,-1,7
 291 405 291 405 297 420 c 0,8,9
 302 430 302 430 311.5 429.5 c 128,-1,10
 321 429 321 429 325 420 c 1,11,-1
 109 -500 l 1,12,13
 98 -510 98 -510 81 -510 c 0,14,15
 65 -510 65 -510 54 -500 c 1,16,-1
 140 -173 l 1,17,18
 78 -196 78 -196 32 -196 c 0,19,20
 -4 -196 -4 -196 -29.5 -173 c 128,-1,21
 -55 -150 -55 -150 -55 -117 c 0,22,23
 -55 -87 -55 -87 -34 -66 c 128,-1,24
 -13 -45 -13 -45 17 -45 c 0,25,26
 44 -45 44 -45 58.5 -60.5 c 128,-1,27
 73 -76 73 -76 75.5 -94 c 128,-1,28
 78 -112 78 -112 85.5 -127.5 c 128,-1,29
 93 -143 93 -143 108 -143 c 0,30,31
 120 -143 120 -143 141.5 -115 c 128,-1,32
 163 -87 163 -87 167 -72 c 2,33,-1
 206 77 l 1,34,35
 141 54 141 54 100 54 c 0,36,37
 64 54 64 54 38.5 77 c 128,-1,38
 13 100 13 100 13 133 c 0,39,40
 13 163 13 163 34.5 184 c 128,-1,41
 56 205 56 205 86 205 c 0,42,43
 113 205 113 205 127 189.5 c 128,-1,44
 141 174 141 174 144 156 c 128,-1,45
 147 138 147 138 154 122.5 c 128,-1,46
 161 107 161 107 176 107 c 0,47,48
 187 107 187 107 208 134 c 128,-1,49
 229 161 229 161 232 175 c 2,50,-1
 272 326 l 1,51,52
 212 304 212 304 169 304 c 0,53,54
 133 304 133 304 107.5 327 c 128,-1,55
 82 350 82 350 82 383 c 0,56,57
 82 413 82 413 103 434 c 128,-1,58
 124 455 124 455 154 455 c 0,0,1
EndSplineSet
EndChar

StartChar: uniE0D8
Encoding: 57560 57560 113
GlifName: uniE_0D_8
Width: 494
Flags: W
HStem: -138 62<212 304> -54 107<20 125 359 474> 75 62<191 282>
VStem: 0 184<-37 37> 311 185<-37 37>
LayerCount: 2
Fore
SplineSet
209 75 m 128,-1,1
 197 75 197 75 190.5 62 c 128,-1,2
 184 49 184 49 184 8 c 128,-1,3
 184 -33 184 -33 197 -44 c 128,-1,4
 210 -55 210 -55 242 -65 c 128,-1,5
 274 -75 274 -75 286.5 -75 c 128,-1,6
 299 -75 299 -75 305 -62 c 128,-1,7
 311 -49 311 -49 311 -8 c 128,-1,8
 311 33 311 33 297.5 44 c 128,-1,9
 284 55 284 55 252.5 65 c 128,-1,0
 221 75 221 75 209 75 c 128,-1,1
495 0 m 128,-1,11
 495 -25 495 -25 475 -37 c 0,12,13
 453 -47 453 -47 419 -53 c 128,-1,14
 385 -59 385 -59 370 -68 c 0,15,16
 354 -76 354 -76 332 -96 c 0,17,18
 307 -116 307 -116 289 -127 c 128,-1,19
 271 -138 271 -138 248.5 -138 c 128,-1,20
 226 -138 226 -138 207 -126.5 c 128,-1,21
 188 -115 188 -115 162 -94.5 c 128,-1,22
 136 -74 136 -74 123 -67.5 c 128,-1,23
 110 -61 110 -61 77 -54.5 c 128,-1,24
 44 -48 44 -48 20 -37 c 0,25,26
 0 -25 0 -25 0 0 c 128,-1,27
 0 25 0 25 20 37 c 0,28,29
 44 48 44 48 76.5 53.5 c 128,-1,30
 109 59 109 59 125 68 c 0,31,32
 126 68 126 68 143.5 81.5 c 128,-1,33
 161 95 161 95 174 104 c 0,34,35
 218 138 218 138 244.5 138 c 128,-1,36
 271 138 271 138 289.5 126.5 c 128,-1,37
 308 115 308 115 331 95.5 c 128,-1,38
 354 76 354 76 369.5 68.5 c 128,-1,39
 385 61 385 61 418.5 54 c 128,-1,40
 452 47 452 47 475 37 c 0,41,10
 495 25 495 25 495 0 c 128,-1,11
EndSplineSet
EndChar

StartChar: uniE0BC
Encoding: 57532 57532 114
GlifName: uniE_0B_C_
Width: 346
Flags: W
HStem: -112 43<69 279>
LayerCount: 2
Fore
SplineSet
69 -69 m 1,0,-1
 279 -69 l 1,1,-1
 174 57 l 1,2,-1
 69 -69 l 1,0,-1
22 -112 m 2,3,4
 13 -112 13 -112 6.5 -106 c 128,-1,5
 0 -100 0 -100 0 -92.5 c 128,-1,6
 0 -85 0 -85 5 -77 c 1,7,-1
 157 105 l 2,8,9
 163 113 163 113 173.5 113 c 128,-1,10
 184 113 184 113 191 105 c 1,11,-1
 342 -77 l 1,12,13
 347 -85 347 -85 347 -92.5 c 128,-1,14
 347 -100 347 -100 341 -106 c 128,-1,15
 335 -112 335 -112 326 -112 c 2,16,-1
 22 -112 l 2,3,4
EndSplineSet
EndChar

StartChar: uniE264
Encoding: 57956 57956 115
GlifName: uniE_264
Width: 375
Flags: W
HStem: 123 30<72 148 260 333>
VStem: -4 46<142 460> 9 24<-146 94 106 167> 123 98<-22 106 106 121> 184 46<142 460> 193 27<-146 -23 125 259> 311 97<-15 114>
LayerCount: 2
Fore
SplineSet
9 -176 m 2,0,-1
 -4 445 l 2,1,2
 -4 460 -4 460 19 460 c 128,-1,3
 42 460 42 460 42 445 c 2,4,-1
 34 106 l 1,5,6
 60 132 60 132 79.5 142.5 c 128,-1,7
 99 153 99 153 131.5 153 c 128,-1,8
 164 153 164 153 190 125 c 1,9,-1
 184 445 l 2,10,11
 184 460 184 460 206.5 460 c 128,-1,12
 229 460 229 460 229 445 c 2,13,-1
 222 106 l 1,14,15
 249 132 249 132 267.5 142.5 c 128,-1,16
 286 153 286 153 317.5 153 c 128,-1,17
 349 153 349 153 378 122.5 c 128,-1,18
 407 92 407 92 407 43 c 0,19,20
 407 -19 407 -19 266 -139 c 0,21,22
 213 -187 213 -187 211 -187 c 2,23,-1
 205 -187 l 2,24,25
 196 -187 196 -187 196 -176 c 2,26,-1
 193 -23 l 1,27,28
 177 -48 177 -48 143 -80 c 128,-1,29
 109 -112 109 -112 78.5 -139 c 128,-1,30
 48 -166 48 -166 36 -176.5 c 128,-1,31
 24 -187 24 -187 23 -187 c 2,32,-1
 18 -187 l 2,33,34
 9 -187 9 -187 9 -176 c 2,0,-1
33 75 m 1,35,-1
 30 -146 l 1,36,37
 60 -118 60 -118 91.5 -52 c 128,-1,38
 123 14 123 14 123 61 c 0,39,40
 123 84 123 84 115 103.5 c 128,-1,41
 107 123 107 123 90.5 123 c 128,-1,42
 74 123 74 123 61 111 c 128,-1,43
 48 99 48 99 33 75 c 1,35,-1
221 75 m 1,44,-1
 218 -146 l 1,45,46
 248 -118 248 -118 279.5 -52 c 128,-1,47
 311 14 311 14 311 61 c 0,48,49
 311 84 311 84 303 103.5 c 128,-1,50
 295 123 295 123 278.5 123 c 128,-1,51
 262 123 262 123 249 111 c 128,-1,52
 236 99 236 99 221 75 c 1,44,-1
EndSplineSet
EndChar

StartChar: uniE280
Encoding: 57984 57984 116
GlifName: uniE_280
Width: 197
Flags: W
HStem: 126 31<41 121>
VStem: -32 99<-15 119> 149 52<130 471> 158 29<-143 99 111 145>
LayerCount: 2
Fore
SplineSet
158 77 m 17,0,1
 142 103 142 103 129.5 114.5 c 128,-1,2
 117 126 117 126 99.5 126 c 128,-1,3
 82 126 82 126 74 105 c 128,-1,4
 66 84 66 84 66 62 c 0,5,6
 66 11 66 11 97.5 -53.5 c 128,-1,7
 129 -118 129 -118 161 -143 c 1,8,-1
 158 77 l 17,0,1
188 -181 m 18,9,10
 188 -191 188 -191 179 -190 c 2,11,-1
 169 -190 l 2,12,13
 164 -190 164 -190 151 -177 c 128,-1,14
 138 -164 138 -164 89 -121 c 128,-1,15
 40 -78 40 -78 19 -54 c 0,16,17
 -32 3 -32 3 -32 49.5 c 128,-1,18
 -32 96 -32 96 -4.5 126.5 c 128,-1,19
 23 157 23 157 58 157 c 128,-1,20
 93 157 93 157 112 147 c 128,-1,21
 131 137 131 137 156 111 c 1,22,-1
 149 456 l 2,23,24
 149 471 149 471 175 471 c 128,-1,25
 201 471 201 471 201 456 c 2,26,-1
 188 -181 l 18,9,10
EndSplineSet
EndChar

StartChar: uniEB7E
Encoding: 60286 60286 117
GlifName: uniE_B_7E_
Width: 250
Flags: W
HStem: -10 20<-10 54>
VStem: -10 260
LayerCount: 2
Fore
SplineSet
246 -91 m 1,0,-1
 248 -107 l 1,1,2
 250 -112 250 -112 250 -115 c 0,3,4
 250 -125 250 -125 240 -125 c 0,5,6
 236 -125 236 -125 232 -121 c 0,7,8
 205 -86 205 -86 125 -48 c 128,-1,9
 45 -10 45 -10 0 -10 c 0,10,11
 -10 -10 -10 -10 -10 0 c 128,-1,12
 -10 10 -10 10 0 10 c 0,13,14
 45 10 45 10 125 48 c 128,-1,15
 205 86 205 86 232 121 c 0,16,17
 236 125 236 125 240 125 c 0,18,19
 250 125 250 125 250 115 c 0,20,21
 250 112 250 112 248 107 c 1,22,-1
 246 91 l 1,23,24
 244 84 244 84 243 73 c 128,-1,25
 242 62 242 62 238 35 c 1,26,-1
 237 0 l 1,27,-1
 238 -35 l 1,28,-1
 242 -66 l 2,29,30
 244 -84 244 -84 246 -91 c 1,0,-1
EndSplineSet
EndChar

StartChar: uniEB82
Encoding: 60290 60290 119
GlifName: uniE_B_82
Width: 250
Flags: W
HStem: -20 39<-102 20>
VStem: -250 270
LayerCount: 2
Fore
SplineSet
20 0 m 128,-1,1
 20 -20 20 -20 0 -20 c 0,2,3
 -94 -20 -94 -20 -168 -76 c 0,4,5
 -197 -98 -197 -98 -212 -111.5 c 128,-1,6
 -227 -125 -227 -125 -232 -125 c 128,-1,7
 -237 -125 -237 -125 -243.5 -119.5 c 128,-1,8
 -250 -114 -250 -114 -250 -105 c 0,9,10
 -250 -89 -250 -89 -208 -54 c 128,-1,11
 -166 -19 -166 -19 -112 0 c 1,12,13
 -166 20 -166 20 -208 56 c 128,-1,14
 -250 92 -250 92 -250 104 c 0,15,16
 -250 125 -250 125 -230 125 c 0,17,18
 -224 125 -224 125 -202 104.5 c 128,-1,19
 -180 84 -180 84 -159 67.5 c 128,-1,20
 -138 51 -138 51 -93.5 35.5 c 128,-1,21
 -49 20 -49 20 0 20 c 0,22,0
 20 20 20 20 20 0 c 128,-1,1
EndSplineSet
EndChar

StartChar: uniE664
Encoding: 58980 58980 120
GlifName: uniE_664
Width: 250
Flags: W
HStem: 0 21G<117.5 132.5>
VStem: 0 250<353 364>
LayerCount: 2
Fore
SplineSet
213 362 m 1,0,1
 216 375 216 375 231 375 c 0,2,3
 239 375 239 375 244.5 369.5 c 128,-1,4
 250 364 250 364 250 356 c 0,5,6
 250 353 250 353 249 351 c 2,7,-1
 143 13 l 2,8,9
 140 0 140 0 125 0 c 128,-1,10
 110 0 110 0 107 13 c 2,11,-1
 1 351 l 2,12,13
 0 353 0 353 0 356 c 0,14,15
 0 364 0 364 5.5 369.5 c 128,-1,16
 11 375 11 375 19 375 c 0,17,18
 34 375 34 375 37 362 c 2,19,-1
 102 156 l 1,20,-1
 125 53 l 1,21,-1
 148 156 l 1,22,-1
 213 362 l 1,0,1
EndSplineSet
EndChar

StartChar: uniE652
Encoding: 58962 58962 122
GlifName: uniE_652
Width: 198
Flags: W
HStem: 1 21G<63 82> 254 33<47 106>
VStem: -1 33<139 229> 110 33<198 249>
LayerCount: 2
Fore
SplineSet
197 105 m 0,0,1
 202 102 202 102 202 98 c 128,-1,2
 202 94 202 94 178.5 71.5 c 128,-1,3
 155 49 155 49 123.5 25 c 128,-1,4
 92 1 92 1 73 1 c 128,-1,5
 54 1 54 1 39 20 c 0,6,7
 25 39 25 39 11 86 c 1,8,9
 7 83 7 83 2 87 c 0,10,11
 -2 93 -2 93 -2 95.5 c 128,-1,12
 -2 98 -2 98 6 105 c 1,13,14
 -1 131 -1 131 -1 155 c 0,15,16
 -1 207 -1 207 26 247 c 128,-1,17
 53 287 53 287 95 287 c 0,18,19
 118 287 118 287 131 273 c 128,-1,20
 144 259 144 259 144 242 c 0,21,22
 144 198 144 198 65 132 c 1,23,-1
 55 123 l 1,24,25
 79 79 79 79 92.5 63 c 128,-1,26
 106 47 106 47 121 55 c 0,27,28
 158 76 158 76 189 107 c 0,29,30
 193 111 193 111 197 105 c 0,0,1
100 244 m 0,31,32
 91 254 91 254 75.5 254 c 128,-1,33
 60 254 60 254 47 240 c 0,34,35
 32 228 32 228 32 199.5 c 128,-1,36
 32 171 32 171 46 139 c 1,37,38
 110 194 110 194 110 222 c 0,39,40
 111 236 111 236 100 244 c 0,31,32
EndSplineSet
EndChar

StartChar: uniE653
Encoding: 58963 58963 123
GlifName: uniE_653
Width: 332
Flags: W
HStem: 0 35<189 253> 420 19<-4 34>
VStem: 111 53<62 212> 267 68<62 217>
LayerCount: 2
Fore
SplineSet
2 438 m 0,0,1
 45 438 45 438 150.5 383.5 c 128,-1,2
 256 329 256 329 305 244 c 0,3,4
 335 193 335 193 335 140 c 128,-1,5
 335 87 335 87 301 44 c 0,6,7
 269 0 269 0 223.5 0 c 128,-1,8
 178 0 178 0 144.5 45.5 c 128,-1,9
 111 91 111 91 111 136.5 c 128,-1,10
 111 182 111 182 139 221.5 c 128,-1,11
 167 261 167 261 208 280 c 1,12,13
 169 334 169 334 114 371.5 c 128,-1,14
 59 409 59 409 0 420 c 0,15,16
 -4 421 -4 421 -4 429.5 c 128,-1,17
 -4 438 -4 438 2 438 c 0,0,1
219 265 m 1,18,19
 193 250 193 250 178.5 214.5 c 128,-1,20
 164 179 164 179 164 140 c 128,-1,21
 164 101 164 101 180 68 c 0,22,23
 195 35 195 35 220 35 c 0,24,25
 267 35 267 35 267 114 c 128,-1,26
 267 193 267 193 219 265 c 1,18,19
EndSplineSet
EndChar

StartChar: uniE8C8
Encoding: 59592 59592 124
GlifName: uniE_8C_8
Width: 265
Flags: W
HStem: 0 23<-72 72> 250 23<-233 233> 500 23<-72 72>
VStem: -266 32<175 250 273 350> 233 32<175 250 273 349>
CounterMasks: 1 e0
LayerCount: 2
Fore
SplineSet
266 260.5 m 128,-1,1
 266 151 266 151 188 76 c 0,2,3
 112 0 112 0 0.5 0 c 128,-1,4
 -111 0 -111 0 -188.5 76.5 c 128,-1,5
 -266 153 -266 153 -266 261.5 c 128,-1,6
 -266 370 -266 370 -188.5 446.5 c 128,-1,7
 -111 523 -111 523 0 523 c 128,-1,8
 111 523 111 523 188.5 446.5 c 128,-1,0
 266 370 266 370 266 260.5 c 128,-1,1
233 250 m 1,9,-1
 -233 250 l 1,10,11
 -228 154 -228 154 -161 90 c 0,12,13
 -95 24 -95 24 0 23.5 c 128,-1,14
 95 23 95 23 162 89.5 c 128,-1,15
 229 156 229 156 233 250 c 1,9,-1
-233 273 m 1,16,-1
 233 273 l 1,17,18
 228 369 228 369 161 434 c 0,19,20
 95 500 95 500 0 500 c 128,-1,21
 -95 500 -95 500 -162 433.5 c 128,-1,22
 -229 367 -229 367 -233 273 c 1,16,-1
EndSplineSet
EndChar

StartChar: uniE248
Encoding: 57928 57928 125
GlifName: uniE_248
Width: 238
Flags: W
VStem: 0 31<-615 -507 -373 -275 -143 -42 88 189 322 422 549 635> 156 42<-939 -877> 182 43<112 239> 191 43<-882 -657 -576 -439 -356 -206 -123 26>
LayerCount: 2
Fore
SplineSet
31 422 m 1,0,-1
 31 402 l 2,1,2
 31 335 31 335 80 252 c 0,3,4
 96 226 96 226 123 188 c 128,-1,5
 150 150 150 150 176 111 c 1,6,7
 181 132 181 132 182 157 c 0,8,9
 183 198 183 198 154 254 c 0,10,11
 124 315 124 315 102 341 c 0,12,13
 69 380 69 380 31 422 c 1,0,-1
31 635 m 1,14,15
 31 548 31 548 100 439 c 1,16,-1
 156 352 l 1,17,18
 224 243 224 243 225 157 c 0,19,20
 225 111 225 111 205 61 c 1,21,22
 234 0 234 0 234 -55.5 c 128,-1,23
 234 -111 234 -111 205 -172 c 1,24,25
 234 -233 234 -233 234 -288.5 c 128,-1,26
 234 -344 234 -344 205 -404 c 1,27,28
 234 -465 234 -465 234 -516.5 c 128,-1,29
 234 -568 234 -568 199 -615 c 1,30,31
 240 -687 240 -687 240 -750 c 0,32,33
 240 -836 240 -836 198 -929 c 0,34,35
 193 -940 193 -940 180 -939 c 0,36,37
 170 -939 170 -939 163 -931.5 c 128,-1,38
 156 -924 156 -924 156 -916 c 2,39,-1
 156 -912 l 1,40,41
 198 -832 198 -832 198 -750 c 0,42,43
 198 -689 198 -689 152 -630.5 c 128,-1,44
 106 -572 106 -572 31 -507 c 1,45,-1
 31 -615 l 1,46,-1
 0 -615 l 1,47,-1
 0 635 l 1,48,-1
 31 635 l 1,14,15
31 189 m 1,49,-1
 31 170 l 2,50,51
 31 97 31 97 81 18 c 0,52,53
 104 -19 104 -19 131 -57 c 0,54,55
 178 -123 178 -123 179 -124 c 1,56,57
 192 -89 192 -89 191.5 -49.5 c 128,-1,58
 191 -10 191 -10 163 39.5 c 128,-1,59
 135 89 135 89 104.5 120.5 c 128,-1,60
 74 152 74 152 31 189 c 1,49,-1
31 -42 m 1,61,-1
 31 -62 l 2,62,63
 31 -132 31 -132 81 -215 c 0,64,65
 95 -237 95 -237 135.5 -295 c 128,-1,66
 176 -353 176 -353 179 -356 c 1,67,68
 192 -321 192 -321 191.5 -281.5 c 128,-1,69
 191 -242 191 -242 163 -193 c 128,-1,70
 135 -144 135 -144 101.5 -109 c 128,-1,71
 68 -74 68 -74 31 -42 c 1,61,-1
31 -275 m 1,72,-1
 31 -295 l 2,73,74
 31 -359 31 -359 78 -441 c 0,75,76
 90 -462 90 -462 131.5 -518 c 128,-1,77
 173 -574 173 -574 175 -577 c 1,78,79
 191 -551 191 -551 191 -519 c 0,80,81
 192 -477 192 -477 163 -425 c 0,82,83
 135 -376 135 -376 104.5 -344 c 128,-1,84
 74 -312 74 -312 31 -275 c 1,72,-1
EndSplineSet
EndChar

StartChar: uniE59E
Encoding: 58782 58782 126
GlifName: uniE_59E_
Width: 208
Flags: W
HStem: 0 21G<177 187> 230 20G<107 117>
VStem: 0 294
LayerCount: 2
Fore
SplineSet
166 7 m 2,0,-1
 67 126 l 1,1,-1
 36 79 l 2,2,3
 30 70 30 70 21 70 c 128,-1,4
 12 70 12 70 6 76 c 128,-1,5
 0 82 0 82 0 89 c 128,-1,6
 0 96 0 96 3 101 c 2,7,-1
 96 241 l 2,8,9
 102 250 102 250 112 250 c 128,-1,10
 122 250 122 250 128 243 c 2,11,-1
 227 124 l 1,12,-1
 258 171 l 2,13,14
 264 180 264 180 273 180 c 128,-1,15
 282 180 282 180 288 174 c 128,-1,16
 294 168 294 168 294 161 c 128,-1,17
 294 154 294 154 291 149 c 2,18,-1
 198 9 l 2,19,20
 192 0 192 0 182 0 c 128,-1,21
 172 0 172 0 166 7 c 2,0,-1
EndSplineSet
EndChar

StartChar: uniE247
Encoding: 57927 57927 127
GlifName: uniE_247
Width: 299
Flags: W
VStem: 0 31<-375 -291 -170 -74 50 146 275 362 500 625> 220 42<29 151> 242 42<234 362> 250 42<428 537> 258 42<593 724>
LayerCount: 2
Fore
SplineSet
259 212 m 5,0,1
 262 163 262 163 262 116 c 4,2,3
 262 23 262 23 181 -84 c 4,4,5
 159 -112 159 -112 119 -163 c 4,6,7
 31 -277 31 -277 31 -370 c 6,8,-1
 31 -375 l 5,9,-1
 0 -375 l 5,10,-1
 0 625 l 5,11,-1
 31 625 l 5,12,-1
 31 500 l 5,13,14
 160 520 160 520 221 575 c 4,15,16
 258 609 258 609 258 651 c 4,17,18
 258 668 258 668 255 683.5 c 132,-1,19
 252 699 252 699 252 706 c 132,-1,20
 252 713 252 713 260 718 c 4,21,22
 266 724 266 724 278.5 724 c 132,-1,23
 291 724 291 724 295.5 707.5 c 132,-1,24
 300 691 300 691 300 651.5 c 132,-1,25
 300 612 300 612 281 579 c 5,26,27
 292 534 292 534 292 493 c 132,-1,28
 292 452 292 452 273 415 c 5,29,30
 284 359 284 359 284 310 c 132,-1,31
 284 261 284 261 259 212 c 5,0,1
31 -170 m 5,32,33
 170 -44 170 -44 203 36 c 4,34,35
 220 76 220 76 220 115 c 6,36,-1
 220 151 l 5,37,38
 203 129 203 129 158 80.5 c 132,-1,39
 113 32 113 32 96 10 c 4,40,41
 73 -15 73 -15 52 -60.5 c 132,-1,42
 31 -106 31 -106 31 -150 c 6,43,-1
 31 -170 l 5,32,33
31 50 m 5,44,45
 182 153 182 153 223 236 c 4,46,47
 243 277 243 277 242.5 305 c 132,-1,48
 242 333 242 333 238 363 c 5,49,50
 220 342 220 342 174.5 298.5 c 132,-1,51
 129 255 129 255 102.5 228.5 c 132,-1,52
 76 202 76 202 53.5 160 c 132,-1,53
 31 118 31 118 31 75 c 6,54,-1
 31 50 l 5,44,45
31 275 m 5,55,56
 250 382 250 382 250 496 c 4,57,58
 250 520 250 520 246 537 c 5,59,60
 227 518 227 518 170.5 478 c 132,-1,61
 114 438 114 438 107 434 c 4,62,63
 77 412 77 412 54 376 c 132,-1,64
 31 340 31 340 31 300 c 6,65,-1
 31 275 l 5,55,56
EndSplineSet
EndChar

StartChar: uniE565
Encoding: 58725 58725 128
GlifName: uniE_565
Width: 268
Flags: W
HStem: 223 314
LayerCount: 2
Fore
SplineSet
-206 492 m 2,0,1
 -218 498 -218 498 -218 509.5 c 128,-1,2
 -218 521 -218 521 -211 529 c 128,-1,3
 -204 537 -204 537 -196.5 537 c 128,-1,4
 -189 537 -189 537 -182 534 c 1,5,-1
 281 269 l 2,6,7
 294 262 294 262 294 249.5 c 128,-1,8
 294 237 294 237 286.5 230 c 128,-1,9
 279 223 279 223 271 223 c 128,-1,10
 263 223 263 223 257 226 c 2,11,-1
 -206 492 l 2,0,1
EndSplineSet
EndChar

StartChar: uniE525
Encoding: 58661 58661 129
GlifName: uniE_525
Width: 269
Flags: W
HStem: -15 70<89 253> 0 21G<3 7> 10 57<40 189> 170 82<40 162>
VStem: 256 15<65 114>
LayerCount: 2
Fore
SplineSet
256 84 m 0,0,1
 256 95 256 95 251 109 c 1,2,3
 251 116 251 116 259 116 c 0,4,5
 271 116 271 116 271 76 c 128,-1,6
 271 36 271 36 255 11 c 0,7,8
 241 -14 241 -14 218 -14.5 c 128,-1,9
 195 -15 195 -15 128.5 -2.5 c 128,-1,10
 62 10 62 10 43.5 10 c 128,-1,11
 25 10 25 10 16.5 5 c 128,-1,12
 8 0 8 0 7 0 c 0,13,14
 0 0 0 0 0 7 c 0,15,16
 0 11 0 11 3 14 c 2,17,-1
 204 201 l 1,18,19
 185 195 185 195 109 182.5 c 128,-1,20
 33 170 33 170 32 170 c 0,21,22
 14 170 14 170 15 186 c 0,23,24
 15 210 15 210 40.5 231 c 128,-1,25
 66 252 66 252 96.5 252 c 128,-1,26
 127 252 127 252 166.5 243.5 c 128,-1,27
 206 235 206 235 221.5 235 c 128,-1,28
 237 235 237 235 245.5 240.5 c 128,-1,29
 254 246 254 246 255 246 c 0,30,31
 262 246 262 246 262 238 c 0,32,33
 262 236 262 236 260 232 c 1,34,-1
 69 56 l 1,35,36
 92 67 92 67 107.5 66.5 c 128,-1,37
 123 66 123 66 159 61 c 128,-1,38
 195 56 195 56 220 56 c 0,39,40
 256 56 256 56 256 84 c 0,0,1
EndSplineSet
EndChar

StartChar: uniE271
Encoding: 57969 57969 130
GlifName: uniE_271
Width: 173
Flags: W
HStem: 126 31<52 133>
VStem: -27 52<114 471> -13 23<-461 -425 -260 -178 -143 82> 107 99<-14 119>
LayerCount: 2
Fore
SplineSet
77 -52 m 128,-1,1
 107 11 107 11 107 68.5 c 128,-1,2
 107 126 107 126 74 126 c 0,3,4
 56 126 56 126 43.5 115 c 128,-1,5
 31 104 31 104 16 77 c 1,6,-1
 13 -143 l 1,7,0
 47 -115 47 -115 77 -52 c 128,-1,1
-13 -260 m 1,8,-1
 -27 456 l 2,9,10
 -27 471 -27 471 -1.5 471 c 128,-1,11
 24 471 24 471 24 456 c 2,12,-1
 18 111 l 1,13,14
 45 138 45 138 62.5 147.5 c 128,-1,15
 80 157 80 157 115 157 c 128,-1,16
 150 157 150 157 178 126.5 c 128,-1,17
 206 96 206 96 206 50 c 128,-1,18
 206 4 206 4 154 -54 c 0,19,20
 132 -78 132 -78 84 -121.5 c 128,-1,21
 36 -165 36 -165 28.5 -173 c 128,-1,22
 21 -181 21 -181 12 -187 c 1,23,24
 12 -201 12 -201 11.5 -224 c 128,-1,25
 11 -247 11 -247 11 -260 c 1,26,27
 20 -258 20 -258 46.5 -244 c 128,-1,28
 73 -230 73 -230 80 -230 c 0,29,30
 96 -230 96 -230 96 -246 c 0,31,32
 96 -249 96 -249 91 -259 c 0,33,34
 41 -339 41 -339 18 -443 c 0,35,36
 14 -461 14 -461 0 -461 c 128,-1,37
 -14 -461 -14 -461 -18 -439 c 0,38,39
 -36 -344 -36 -344 -90 -259 c 0,40,41
 -95 -249 -95 -249 -95 -246 c 0,42,43
 -95 -230 -95 -230 -79 -230 c 0,44,45
 -73 -230 -73 -230 -47.5 -244 c 128,-1,46
 -22 -258 -22 -258 -13 -260 c 1,8,-1
EndSplineSet
EndChar

StartChar: uniE069
Encoding: 57449 57449 131
GlifName: uniE_069
Width: 500
Flags: W
HStem: 230 20G<172 275 393 495>
VStem: 167 113<-250 250> 388 112<-250 250>
LayerCount: 2
Fore
SplineSet
490 -250 m 2,0,-1
 398 -250 l 2,1,2
 387 -250 387 -250 388 -240 c 2,3,-1
 388 240 l 2,4,5
 388 250 388 250 398 250 c 2,6,-1
 490 250 l 2,7,8
 500 250 500 250 500 240 c 2,9,-1
 500 -240 l 2,10,11
 500 -250 500 -250 490 -250 c 2,0,-1
270 -250 m 2,12,-1
 177 -250 l 2,13,14
 167 -250 167 -250 167 -240 c 2,15,-1
 167 240 l 2,16,17
 167 250 167 250 177 250 c 2,18,-1
 270 250 l 2,19,20
 281 250 281 250 280 240 c 2,21,-1
 280 -240 l 2,22,23
 281 -250 281 -250 270 -250 c 2,12,-1
EndSplineSet
EndChar

StartChar: uniE4A6
Encoding: 58534 58534 132
GlifName: uniE_4A_6
Width: 99
Flags: W
HStem: 0 263<37 65>
VStem: 0 102<182 249> 38 25<0 51>
LayerCount: 2
Fore
SplineSet
38 13 m 1,0,-1
 0 220 l 1,1,2
 0 237 0 237 14 250 c 128,-1,3
 28 263 28 263 50.5 263 c 128,-1,4
 73 263 73 263 87.5 249.5 c 128,-1,5
 102 236 102 236 102 220 c 1,6,-1
 63 13 l 1,7,8
 62 0 62 0 50.5 0 c 128,-1,9
 39 0 39 0 38 13 c 1,0,-1
EndSplineSet
EndChar

StartChar: uniE4E3
Encoding: 58595 58595 133
GlifName: uniE_4E_3
Width: 375
Flags: W
HStem: -156 156<7 365 10 365>
LayerCount: 2
Fore
SplineSet
365 -156 m 2,0,-1
 10 -156 l 2,1,2
 0 -156 0 -156 0 -146 c 2,3,-1
 0 -10 l 2,4,5
 0 0 0 0 10 0 c 2,6,-1
 365 0 l 2,7,8
 375 0 375 0 375 -10 c 2,9,-1
 375 -146 l 2,10,11
 375 -156 375 -156 365 -156 c 2,0,-1
EndSplineSet
EndChar

StartChar: uniE650
Encoding: 58960 58960 134
GlifName: uniE_650
Width: 798
Flags: W
HStem: 0 35<653 717> 1 54<481 520> 225 66<53 104> 254 33<447 505> 289 64<315 367> 420 19<460 502> 482 18<239 303>
VStem: -1 44<300 379> 125 18<316 355> 164 40<309 388> 252 52<169 218> 371 45<341 426> 399 32<139 227> 509 35<195 249> 576 52<81 211> 732 67<61 212>
LayerCount: 2
Fore
SplineSet
231 102 m 1,0,1
 149 0 149 0 111 0 c 0,2,3
 96 0 96 0 97 13 c 0,4,5
 97 34 97 34 144.5 74.5 c 128,-1,6
 192 115 192 115 222 120 c 1,7,8
 252 156 252 156 252 169 c 0,9,10
 252 194 252 194 208 247 c 128,-1,11
 164 300 164 300 164 318.5 c 128,-1,12
 164 337 164 337 189 401 c 128,-1,13
 214 465 214 465 224 481 c 1,14,15
 143 474 143 474 93 428.5 c 128,-1,16
 43 383 43 383 43 339 c 0,17,18
 43 314 43 314 57 302.5 c 128,-1,19
 71 291 71 291 84.5 291 c 128,-1,20
 98 291 98 291 111.5 308.5 c 128,-1,21
 125 326 125 326 125 350 c 0,22,23
 125 356 125 356 134 355.5 c 128,-1,24
 143 355 143 355 143 350 c 0,25,26
 143 302 143 302 117 263.5 c 128,-1,27
 91 225 91 225 63.5 225 c 128,-1,28
 36 225 36 225 17.5 246.5 c 128,-1,29
 -1 268 -1 268 -1 303 c 0,30,31
 -1 373 -1 373 68.5 436.5 c 128,-1,32
 138 500 138 500 250 500 c 0,33,34
 327 500 327 500 371.5 453.5 c 128,-1,35
 416 407 416 407 416 356 c 0,36,37
 416 326 416 326 399.5 307.5 c 128,-1,38
 383 289 383 289 364 289 c 0,39,40
 307 289 307 289 277 379 c 0,41,42
 276 382 276 382 279.5 385.5 c 128,-1,43
 283 389 283 389 287 389 c 128,-1,44
 291 389 291 389 298 379 c 0,45,46
 315 354 315 354 333.5 354 c 128,-1,47
 352 354 352 354 361.5 363.5 c 128,-1,48
 371 373 371 373 371 390 c 0,49,50
 371 424 371 424 338 453 c 128,-1,51
 305 482 305 482 250 482 c 2,52,-1
 243 482 l 1,53,54
 234 466 234 466 219 423.5 c 128,-1,55
 204 381 204 381 204 374 c 0,56,57
 204 352 204 352 254 294 c 128,-1,58
 304 236 304 236 304 210 c 0,59,60
 304 194 304 194 246 120 c 1,61,62
 266 119 266 119 300 103.5 c 128,-1,63
 334 88 334 88 348 76 c 0,64,65
 356 70 356 70 368 79 c 2,66,-1
 405 107 l 1,67,68
 399 136 399 136 399 155 c 0,69,70
 399 203 399 203 425 245 c 128,-1,71
 451 287 451 287 495 287 c 0,72,73
 519 287 519 287 531.5 273 c 128,-1,74
 544 259 544 259 544 242 c 0,75,76
 544 196 544 196 465 132 c 2,77,-1
 454 123 l 1,78,79
 460 113 460 113 467.5 98 c 128,-1,80
 475 83 475 83 483.5 73.5 c 128,-1,81
 492 64 492 64 496 59 c 128,-1,82
 500 54 500 54 508 55 c 1,83,-1
 521 55 l 1,84,85
 533 58 533 58 582 101 c 1,86,87
 576 123 576 123 576 143 c 0,88,89
 576 182 576 182 604 221.5 c 128,-1,90
 632 261 632 261 673 280 c 1,91,92
 635 332 635 332 578 372.5 c 128,-1,93
 521 413 521 413 465 420 c 0,94,95
 457 421 457 421 460 429.5 c 128,-1,96
 463 438 463 438 468 438 c 0,97,98
 577 438 577 438 702 324 c 0,99,100
 800 234 800 234 800 142 c 0,101,102
 800 87 800 87 766 43.5 c 128,-1,103
 732 0 732 0 687 0 c 0,104,105
 655 0 655 0 628.5 23.5 c 128,-1,106
 602 47 602 47 588 82 c 1,107,108
 526 24 526 24 506.5 12.5 c 128,-1,109
 487 1 487 1 471 1 c 0,110,111
 434 1 434 1 411 86 c 1,112,113
 407 83 407 83 392 70.5 c 128,-1,114
 377 58 377 58 362 46 c 2,115,-1
 348 34 l 2,116,117
 308 2 308 2 294.5 2 c 128,-1,118
 281 2 281 2 265.5 49.5 c 128,-1,119
 250 97 250 97 231 102 c 1,0,1
498 244 m 0,120,121
 489 254 489 254 473.5 254 c 128,-1,122
 458 254 458 254 445 240 c 0,123,124
 431 228 431 228 431.5 199 c 128,-1,125
 432 170 432 170 446 139 c 1,126,127
 508 192 508 192 509 222 c 0,128,129
 509 236 509 236 498 244 c 0,120,121
683 265 m 1,130,131
 656 250 656 250 642 215 c 128,-1,132
 628 180 628 180 628 140.5 c 128,-1,133
 628 101 628 101 643.5 68 c 128,-1,134
 659 35 659 35 685 35 c 128,-1,135
 711 35 711 35 721 59 c 0,136,137
 733 80 733 80 732 116 c 0,138,139
 732 190 732 190 683 265 c 1,130,131
EndSplineSet
EndChar

StartChar: uniE082
Encoding: 57474 57474 135
GlifName: uniE_082
Width: 366
Flags: W
HStem: -250 79<214 308> -184 71<66 132> 227 23<127 199>
VStem: 0 23<-250 -208> 12 103<108 199> 235 116<22 176>
LayerCount: 2
Fore
SplineSet
229 -250 m 0,0,1
 200 -250 200 -250 176 -239.5 c 128,-1,2
 152 -229 152 -229 141 -215 c 0,3,4
 115 -184 115 -184 87.5 -184 c 128,-1,5
 60 -184 60 -184 42.5 -199 c 128,-1,6
 25 -214 25 -214 23 -239 c 0,7,8
 21 -250 21 -250 10.5 -250 c 128,-1,9
 0 -250 0 -250 0 -239 c 0,10,11
 0 -172 0 -172 61 -119 c 0,12,13
 90 -94 90 -94 112.5 -77.5 c 128,-1,14
 135 -61 135 -61 167 -33 c 0,15,16
 235 26 235 26 235 105 c 0,17,18
 235 155 235 155 219 191 c 0,19,20
 201 226 201 226 165 227 c 0,21,22
 143 227 143 227 128.5 217 c 128,-1,23
 114 207 114 207 114 192 c 128,-1,24
 114 177 114 177 131.5 156.5 c 128,-1,25
 149 136 149 136 149 122 c 0,26,27
 149 93 149 93 129 73 c 128,-1,28
 109 53 109 53 80.5 53 c 128,-1,29
 52 53 52 53 31 73 c 0,30,31
 11 94 11 94 12 122 c 0,32,33
 12 178 12 178 57 214 c 128,-1,34
 102 250 102 250 171 250 c 128,-1,35
 240 250 240 250 296 210 c 128,-1,36
 352 170 352 170 352 105 c 0,37,38
 352 16 352 16 292 -21 c 0,39,40
 240 -54 240 -54 182.5 -77.5 c 128,-1,41
 125 -101 125 -101 103 -115 c 1,42,43
 116 -112 116 -112 129 -112 c 0,44,45
 173 -112 173 -112 222.5 -141.5 c 128,-1,46
 272 -171 272 -171 301.5 -171 c 128,-1,47
 331 -171 331 -171 339 -152 c 128,-1,48
 347 -133 347 -133 355 -133 c 0,49,50
 367 -133 367 -133 367 -145 c 0,51,52
 367 -172 367 -172 329 -211 c 128,-1,53
 291 -250 291 -250 229 -250 c 0,0,1
EndSplineSet
EndChar

StartChar: uniE4A7
Encoding: 58535 58535 136
GlifName: uniE_4A_7
Width: 99
Flags: W
HStem: -263 263<37 65>
VStem: 0 102<-249 -182> 38 25<-51 -0>
LayerCount: 2
Fore
SplineSet
38 -13 m 1,0,1
 39 0 39 0 50.5 0 c 128,-1,2
 62 0 62 0 63 -13 c 1,3,-1
 102 -220 l 1,4,5
 102 -237 102 -237 87.5 -250 c 128,-1,6
 73 -263 73 -263 50.5 -263 c 128,-1,7
 28 -263 28 -263 14 -249.5 c 128,-1,8
 0 -236 0 -236 0 -220 c 1,9,-1
 38 -13 l 1,0,1
EndSplineSet
EndChar

StartChar: uniE08B
Encoding: 57483 57483 137
GlifName: uniE_08B_
Width: 424
Flags: W
HStem: -262 23<237 306> 27 151<306 370> 237 24<237 308>
VStem: 0 137<-118 120> 200 37<-350 -262 -230 230 262 350> 284 142<49 155> 408 24<-124 -77>
LayerCount: 2
Fore
SplineSet
406 48 m 0,0,1
 388 27 388 27 361 27 c 128,-1,2
 334 27 334 27 309 46 c 128,-1,3
 284 65 284 65 284 98.5 c 128,-1,4
 284 132 284 132 304 155.5 c 128,-1,5
 324 179 324 179 356 179 c 0,6,7
 367 179 367 179 370 178 c 1,8,9
 325 236 325 236 250 237 c 1,10,-1
 237 237 l 1,11,-1
 237 -237 l 1,12,13
 240 -237 240 -237 244 -238 c 1,14,-1
 250 -238 l 2,15,16
 309 -238 309 -238 350.5 -195.5 c 128,-1,17
 392 -153 392 -153 408 -87 c 0,18,19
 411 -77 411 -77 420 -77 c 0,20,21
 433 -77 433 -77 433 -89 c 0,22,23
 433 -115 433 -115 406 -158 c 1,24,25
 376 -220 376 -220 320 -247 c 0,26,27
 288 -263 288 -263 250 -263 c 0,28,29
 246 -263 246 -263 244 -262 c 1,30,-1
 237 -262 l 1,31,-1
 237 -340 l 2,32,33
 237 -350 237 -350 227 -350 c 2,34,-1
 210 -350 l 2,35,36
 200 -350 200 -350 200 -340 c 2,37,-1
 200 -259 l 1,38,39
 97 -242 97 -242 48.5 -171 c 128,-1,40
 0 -100 0 -100 0 1.5 c 128,-1,41
 0 103 0 103 49 172 c 0,42,43
 95 242 95 242 200 259 c 1,44,-1
 200 340 l 2,45,46
 200 350 200 350 210 350 c 2,47,-1
 227 350 l 2,48,49
 237 350 237 350 237 340 c 1,50,-1
 237 262 l 1,51,-1
 250 262 l 2,52,53
 330 262 330 262 378 207 c 128,-1,54
 426 152 426 152 426 99 c 0,55,56
 426 68 426 68 406 48 c 0,0,1
200 -230 m 1,57,-1
 200 230 l 1,58,59
 160 215 160 215 148.5 173 c 128,-1,60
 137 131 137 131 137 51 c 2,61,-1
 137 -51 l 2,62,63
 137 -131 137 -131 148.5 -173 c 128,-1,64
 160 -215 160 -215 200 -230 c 1,57,-1
EndSplineSet
EndChar

StartChar: uniE56E
Encoding: 58734 58734 138
GlifName: uniE_56E_
Width: 712
Flags: W
HStem: 0 21G<177 187 385.5 395.5 594 604> 230 20G<108.5 118.5 316.5 326.5 525 535>
LayerCount: 2
Fore
SplineSet
20 70 m 128,-1,1
 12 70 12 70 6 76 c 128,-1,2
 0 82 0 82 0 90 c 0,3,4
 0 94 0 94 97 241 c 0,5,6
 103 250 103 250 114 250 c 0,7,8
 123 250 123 250 129 243 c 2,9,-1
 227 124 l 1,10,-1
 305 241 l 1,11,12
 311 250 311 250 322 250 c 0,13,14
 331 250 331 250 337 243 c 2,15,-1
 436 124 l 1,16,-1
 514 241 l 1,17,18
 520 250 520 250 530 250 c 128,-1,19
 540 250 540 250 546 243 c 2,20,-1
 644 124 l 1,21,-1
 675 171 l 1,22,23
 681 180 681 180 692 180 c 0,24,25
 700 180 700 180 706 174 c 128,-1,26
 712 168 712 168 712 160 c 0,27,28
 712 155 712 155 708 149 c 1,29,-1
 615 9 l 1,30,31
 609 0 609 0 599 0 c 128,-1,32
 589 0 589 0 583 7 c 2,33,-1
 485 126 l 1,34,-1
 407 9 l 1,35,36
 401 0 401 0 390 0 c 0,37,38
 381 0 381 0 375 7 c 2,39,-1
 276 126 l 1,40,-1
 198 9 l 1,41,42
 192 0 192 0 182 0 c 128,-1,43
 172 0 172 0 166 7 c 2,44,-1
 68 126 l 1,45,46
 40 84 40 84 34 77 c 128,-1,0
 28 70 28 70 20 70 c 128,-1,1
EndSplineSet
EndChar

StartChar: uniE4E2
Encoding: 58594 58594 139
GlifName: uniE_4E_2
Width: 150
Flags: W
HStem: 0 250<7 140 10 140>
VStem: 0 150<10 240>
LayerCount: 2
Fore
SplineSet
140 0 m 2,0,-1
 10 0 l 2,1,2
 0 0 0 0 0 10 c 2,3,-1
 0 240 l 2,4,5
 0 250 0 250 10 250 c 2,6,-1
 140 250 l 2,7,8
 150 250 150 250 150 240 c 2,9,-1
 150 10 l 2,10,11
 150 0 150 0 140 0 c 2,0,-1
EndSplineSet
EndChar

StartChar: uniE05C
Encoding: 57436 57436 140
GlifName: uniE_05C_
Width: 680
Flags: W
HStem: -500 28<379 480> -233 160<312 371> -70 28<409 507> 42 28<410 507> 73 160<312 371> 472 28<377 480>
VStem: 0 139<-500 500> 180 41<-500 -19 19 500> 263 104<-433 -342 342 443> 305 27<-233 -149 149 233> 555 125<-372 -160 160 372>
LayerCount: 2
Fore
SplineSet
318 0 m 128,-1,1
 318 -73 318 -73 363 -73 c 0,2,3
 378 -73 378 -73 406 -57.5 c 128,-1,4
 434 -42 434 -42 451 -42 c 0,5,6
 544 -42 544 -42 612 -102 c 0,7,8
 679 -164 679 -164 680 -250 c 0,9,10
 680 -500 680 -500 415 -500 c 0,11,12
 352 -500 352 -500 307.5 -459.5 c 128,-1,13
 263 -419 263 -419 263 -358 c 0,14,15
 263 -326 263 -326 285.5 -303.5 c 128,-1,16
 308 -281 308 -281 339 -281 c 128,-1,17
 370 -281 370 -281 392.5 -303.5 c 128,-1,18
 415 -326 415 -326 415 -358 c 0,19,20
 415 -378 415 -378 390.5 -396 c 128,-1,21
 366 -414 366 -414 366 -432.5 c 128,-1,22
 366 -451 366 -451 380.5 -461.5 c 128,-1,23
 395 -472 395 -472 415 -472 c 0,24,25
 496 -472 496 -472 525.5 -416 c 128,-1,26
 555 -360 555 -360 555 -262.5 c 128,-1,27
 555 -165 555 -165 537 -121 c 0,28,29
 518 -70 518 -70 451 -70 c 0,30,31
 400 -70 400 -70 365 -114 c 0,32,33
 332 -159 332 -159 332 -219 c 0,34,35
 332 -234 332 -234 318.5 -233.5 c 128,-1,36
 305 -233 305 -233 305 -219 c 0,37,38
 305 -103 305 -103 221 -19 c 1,39,-1
 221 -490 l 2,40,41
 221 -500 221 -500 211 -500 c 2,42,-1
 190 -500 l 2,43,44
 179 -500 179 -500 180 -490 c 2,45,-1
 180 490 l 2,46,47
 180 500 180 500 190 500 c 2,48,-1
 211 500 l 2,49,50
 221 500 221 500 221 490 c 2,51,-1
 221 19 l 1,52,53
 305 103 305 103 305 219 c 0,54,55
 305 234 305 234 318.5 233.5 c 128,-1,56
 332 233 332 233 332 219 c 0,57,58
 332 159 332 159 365 114 c 0,59,60
 400 70 400 70 451 70 c 0,61,62
 518 70 518 70 537 121 c 0,63,64
 555 165 555 165 555 262.5 c 128,-1,65
 555 360 555 360 525.5 416 c 128,-1,66
 496 472 496 472 415 472 c 0,67,68
 394 472 394 472 381 461 c 0,69,70
 366 452 366 452 366 433 c 128,-1,71
 366 414 366 414 390.5 396 c 128,-1,72
 415 378 415 378 415 358 c 0,73,74
 415 326 415 326 392.5 303.5 c 128,-1,75
 370 281 370 281 339 281 c 128,-1,76
 308 281 308 281 285.5 303.5 c 128,-1,77
 263 326 263 326 263 358 c 0,78,79
 263 418 263 418 307 459 c 0,80,81
 352 500 352 500 415 500 c 0,82,83
 680 500 680 500 680 250 c 0,84,85
 680 163 680 163 612 102 c 0,86,87
 544 42 544 42 451 42 c 0,88,89
 434 42 434 42 406 57.5 c 128,-1,90
 378 73 378 73 363 73 c 0,91,0
 318 73 318 73 318 0 c 128,-1,1
129 -500 m 2,92,-1
 10 -500 l 2,93,94
 0 -500 0 -500 0 -490 c 2,95,-1
 0 490 l 2,96,97
 0 500 0 500 10 500 c 2,98,-1
 129 500 l 2,99,100
 139 500 139 500 139 490 c 2,101,-1
 139 -490 l 2,102,103
 139 -500 139 -500 129 -500 c 2,92,-1
EndSplineSet
EndChar

StartChar: uniE262
Encoding: 57954 57954 141
GlifName: uniE_262
Width: 248
VWidth: 899
Flags: W
VStem: 0 75<-211 -199 39 51> 46 29<-379 -211 -92 39 158 326> 168 29<-331 -162 -42 88 208 374>
LayerCount: 2
Fore
SplineSet
227 220 m 1,0,1
 248 226 248 226 248 209 c 2,2,-1
 248 131 l 2,3,4
 248 119 248 119 229 112 c 2,5,-1
 197 100 l 1,6,-1
 197 -42 l 1,7,-1
 227 -30 l 1,8,9
 248 -24 248 -24 248 -41 c 2,10,-1
 248 -119 l 2,11,12
 248 -131 248 -131 229 -138 c 2,13,-1
 197 -150 l 1,14,-1
 197 -312 l 2,15,16
 197 -331 197 -331 182.5 -331 c 0,17,18
 168 -330 168 -330 168 -312 c 2,19,-1
 168 -162 l 1,20,-1
 75 -199 l 1,21,-1
 75 -360 l 2,22,23
 75 -379 75 -379 60.5 -379 c 128,-1,24
 46 -379 46 -379 46 -360 c 2,25,-1
 46 -211 l 1,26,-1
 21 -222 l 2,27,28
 0 -231 0 -231 0 -210 c 2,29,-1
 0 -133 l 2,30,31
 0 -123 0 -123 18 -115 c 2,32,-1
 46 -104 l 1,33,-1
 46 39 l 1,34,-1
 21 28 l 2,35,36
 0 19 0 19 0 40 c 2,37,-1
 0 117 l 2,38,39
 0 127 0 127 18 135 c 2,40,-1
 46 146 l 1,41,-1
 46 308 l 2,42,43
 46 327 46 327 60.5 326.5 c 128,-1,44
 75 326 75 326 75 308 c 2,45,-1
 75 158 l 1,46,-1
 168 196 l 1,47,-1
 168 355 l 2,48,49
 168 374 168 374 182.5 374 c 128,-1,50
 197 374 197 374 197 355 c 2,51,-1
 197 208 l 1,52,-1
 227 220 l 1,0,1
75 51 m 1,53,-1
 75 -92 l 1,54,-1
 168 -54 l 1,55,-1
 168 88 l 1,56,-1
 75 51 l 1,53,-1
EndSplineSet
EndChar

StartChar: uniE440
Encoding: 58432 58432 142
GlifName: uniE_440
Width: 196
Flags: W
HStem: 126 31<77 156>
VStem: 0 40<121 217 271 328> 9 26<-143 95 111 136> 130 99<-15 119>
LayerCount: 2
Fore
SplineSet
37 77 m 1,0,-1
 35 -143 l 1,1,2
 67 -118 67 -118 98.5 -53.5 c 128,-1,3
 130 11 130 11 130 62 c 0,4,5
 130 86 130 86 122 106 c 128,-1,6
 114 126 114 126 96 126 c 128,-1,7
 78 126 78 126 65 114 c 128,-1,8
 52 102 52 102 37 77 c 1,0,-1
-138 295 m 0,9,10
 -144 313 -144 313 -128 317 c 1,11,-1
 -3 365 l 1,12,13
 -4 381 -4 381 -4 411 c 128,-1,14
 -4 441 -4 441 -5 456 c 0,15,16
 -5 471 -5 471 21 471 c 128,-1,17
 47 471 47 471 47 457 c 128,-1,18
 47 443 47 443 46 419.5 c 128,-1,19
 45 396 45 396 45 384 c 1,20,-1
 164 429 l 2,21,22
 182 435 182 435 187 418 c 128,-1,23
 192 401 192 401 177 396 c 1,24,-1
 45 346 l 1,25,-1
 43 271 l 1,26,27
 62 278 62 278 102 293 c 128,-1,28
 142 308 142 308 164 316 c 0,29,30
 171 318 171 318 178 315 c 128,-1,31
 185 312 185 312 187 306 c 0,32,33
 193 288 193 288 177 283 c 0,34,35
 66 241 66 241 43 232 c 1,36,37
 43 172 43 172 40 111 c 1,38,39
 64 135 64 135 84 146 c 128,-1,40
 104 157 104 157 138.5 157 c 128,-1,41
 173 157 173 157 201 126.5 c 128,-1,42
 229 96 229 96 229 49.5 c 128,-1,43
 229 3 229 3 178 -54 c 0,44,45
 157 -78 157 -78 108 -120.5 c 128,-1,46
 59 -163 59 -163 44.5 -177 c 128,-1,47
 30 -191 30 -191 27 -191 c 2,48,-1
 18 -191 l 2,49,50
 9 -191 9 -191 9 -180 c 2,51,-1
 0 217 l 1,52,53
 -37 202 -37 202 -115 173 c 0,54,55
 -133 167 -133 167 -138.5 183.5 c 128,-1,56
 -144 200 -144 200 -128 205 c 0,57,58
 -47 236 -47 236 0 254 c 1,59,-1
 -2 328 l 1,60,-1
 -115 284 l 2,61,62
 -122 282 -122 282 -129 285 c 128,-1,63
 -136 288 -136 288 -138 295 c 0,9,10
EndSplineSet
EndChar

StartChar: uniE003
Encoding: 57347 57347 143
GlifName: uniE_003
Width: 455
Flags: W
HStem: 0 109<7 160>
LayerCount: 2
Fore
SplineSet
439 380 m 0,0,1
 455 380 455 380 455 364 c 0,2,3
 455 359 455 359 452 355.5 c 128,-1,4
 449 352 449 352 412 295.5 c 128,-1,5
 375 239 375 239 357 212.5 c 128,-1,6
 339 186 339 186 296.5 134.5 c 128,-1,7
 254 83 254 83 224.5 60 c 128,-1,8
 195 37 195 37 154.5 18.5 c 128,-1,9
 114 0 114 0 73 0 c 2,10,-1
 0 0 l 1,11,-1
 0 85 l 2,12,13
 0 96 0 96 7 102.5 c 128,-1,14
 14 109 14 109 24 109 c 2,15,-1
 73 109 l 2,16,17
 182 109 182 109 276 193 c 0,18,19
 354 262 354 262 427 373 c 0,20,21
 430 380 430 380 439 380 c 0,0,1
EndSplineSet
EndChar

StartChar: uniE5B0
Encoding: 58800 58800 144
GlifName: uniE_5B_0
Width: 458
Flags: W
HStem: 0 21G<178 188 386 396> 230 20G<108 118 316 326> 524 21<668 761>
LayerCount: 2
Fore
SplineSet
748 524 m 0,0,1
 656 524 656 524 618 486 c 128,-1,2
 580 448 580 448 557.5 330 c 128,-1,3
 535 212 535 212 486 126 c 1,4,-1
 407 9 l 2,5,6
 401 0 401 0 391 0 c 128,-1,7
 381 0 381 0 375 7 c 2,8,-1
 277 126 l 1,9,-1
 199 9 l 2,10,11
 193 0 193 0 183 0 c 128,-1,12
 173 0 173 0 167 7 c 2,13,-1
 68 126 l 1,14,-1
 37 79 l 2,15,16
 31 70 31 70 22 70 c 128,-1,17
 13 70 13 70 7 76 c 128,-1,18
 1 82 1 82 1 89 c 128,-1,19
 1 96 1 96 4 101 c 2,20,-1
 97 241 l 2,21,22
 103 250 103 250 113 250 c 128,-1,23
 123 250 123 250 129 243 c 2,24,-1
 227 124 l 1,25,-1
 305 241 l 2,26,27
 311 250 311 250 321 250 c 128,-1,28
 331 250 331 250 337 243 c 2,29,-1
 436 124 l 1,30,31
 496 217 496 217 530 383 c 0,32,33
 547 457 547 457 598 508 c 0,34,35
 636 546 636 546 748 546 c 0,36,37
 761 546 761 546 761 535 c 128,-1,38
 761 524 761 524 748 524 c 0,0,1
EndSplineSet
EndChar

StartChar: uniE4C8
Encoding: 58568 58568 145
GlifName: uniE_4C_8
Width: 732
VWidth: 976
Flags: W
HStem: 0 117<325 407> 146 73<156 576> 269 122<34 698>
VStem: 0 34<0 269> 122 34<0 146> 308 117<18 100> 576 34<0 146> 698 34<0 269>
LayerCount: 2
Fore
SplineSet
308 58.5 m 128,-1,1
 308 83 308 83 325 100 c 128,-1,2
 342 117 342 117 366.5 117 c 128,-1,3
 391 117 391 117 408 100 c 128,-1,4
 425 83 425 83 425 58.5 c 128,-1,5
 425 34 425 34 408 17 c 128,-1,6
 391 0 391 0 366.5 0 c 128,-1,7
 342 0 342 0 325 17 c 128,-1,0
 308 34 308 34 308 58.5 c 128,-1,1
131 220 m 2,8,-1
 602 220 l 2,9,10
 611 220 611 220 610 211 c 2,11,-1
 610 17 l 2,12,13
 610 0 610 0 594 0 c 0,14,15
 576 0 576 0 576 17 c 2,16,-1
 576 146 l 1,17,-1
 156 146 l 1,18,-1
 156 17 l 2,19,20
 156 0 156 0 139 0 c 0,21,22
 122 0 122 0 122 17 c 2,23,-1
 122 211 l 2,24,25
 122 220 122 220 131 220 c 2,8,-1
9 391 m 2,26,-1
 724 391 l 2,27,28
 733 391 733 391 732 382 c 2,29,-1
 732 17 l 2,30,31
 732 0 732 0 716 0 c 0,32,33
 698 0 698 0 698 17 c 2,34,-1
 698 269 l 1,35,-1
 34 269 l 1,36,-1
 34 17 l 2,37,38
 34 0 34 0 17 0 c 0,39,40
 0 0 0 0 0 17 c 2,41,-1
 0 382 l 2,42,43
 0 391 0 391 9 391 c 2,26,-1
EndSplineSet
EndChar

StartChar: uniE242
Encoding: 57922 57922 146
GlifName: uniE_242
Width: 240
Flags: W
HStem: -20 20G<0 31>
VStem: 0 31<-500 -425 -292 -213 -82 0> 156 42<-870 -817> 198 42<-800 -599 -516 -401>
LayerCount: 2
Fore
SplineSet
31 0 m 5,0,1
 31 -86 31 -86 104 -192 c 6,2,-1
 162 -278 l 5,3,4
 191 -318 191 -318 212.5 -369 c 132,-1,5
 234 -420 234 -420 234 -468 c 132,-1,6
 234 -516 234 -516 211 -565 c 5,7,8
 240 -625 240 -625 240 -682 c 4,9,10
 240 -782 240 -782 198 -865 c 4,11,12
 192 -877 192 -877 180 -877 c 4,13,14
 170 -877 170 -877 163 -870 c 132,-1,15
 156 -863 156 -863 156 -854 c 6,16,-1
 156 -850 l 5,17,18
 198 -767 198 -767 198 -682 c 4,19,20
 198 -616 198 -616 141 -541 c 4,21,22
 107 -497 107 -497 85.5 -476 c 132,-1,23
 64 -455 64 -455 31 -425 c 5,24,-1
 31 -500 l 5,25,-1
 0 -500 l 5,26,-1
 0 0 l 5,27,-1
 31 0 l 5,0,1
185 -517 m 5,28,29
 192 -496 192 -496 191 -466 c 4,30,31
 191 -404 191 -404 137 -329 c 5,32,33
 86 -266 86 -266 31 -213 c 5,34,35
 31 -282 31 -282 84 -371 c 4,36,37
 97 -392 97 -392 132.5 -440.5 c 132,-1,38
 168 -489 168 -489 185 -517 c 5,28,29
EndSplineSet
EndChar

StartChar: uniE245
Encoding: 57925 57925 147
GlifName: uniE_245
Width: 299
Flags: W
VStem: 0 31<-250 -173 -40 48 185 272 410 500> 237 42<133 258> 250 42<341 483> 258 42<566 720>
LayerCount: 2
Fore
SplineSet
31 -40 m 5,0,1
 72 -12 72 -12 100 9 c 4,2,3
 238 111 238 111 237 207 c 4,4,5
 237 232 237 232 227 259 c 5,6,7
 206 234 206 234 160 190 c 132,-1,8
 114 146 114 146 93.5 124 c 132,-1,9
 73 102 73 102 52 60 c 132,-1,10
 31 18 31 18 31 -25 c 6,11,-1
 31 -40 l 5,0,1
300 636 m 4,12,13
 300 578 300 578 263 521 c 5,14,15
 292 466 292 466 292 410 c 132,-1,16
 292 354 292 354 255 297 c 5,17,18
 279 252 279 252 279 205 c 132,-1,19
 279 158 279 158 254 108.5 c 132,-1,20
 229 59 229 59 191 18 c 6,21,-1
 119 -61 l 6,22,23
 31 -156 31 -156 31 -250 c 5,24,-1
 0 -250 l 5,25,-1
 0 500 l 5,26,-1
 31 500 l 5,27,-1
 31 410 l 5,28,29
 258 516 258 516 258 636 c 4,30,31
 258 662 258 662 244 697 c 5,32,-1
 244 701 l 6,33,34
 244 710 244 710 251 717 c 132,-1,35
 258 724 258 724 268 724 c 4,36,37
 300 724 300 724 300 636 c 4,12,13
31 185 m 5,38,39
 250 295 250 295 250 411 c 4,40,41
 250 446 250 446 232 484 c 5,42,43
 211 458 211 458 168 419 c 132,-1,44
 125 380 125 380 100.5 355 c 132,-1,45
 76 330 76 330 53.5 286.5 c 132,-1,46
 31 243 31 243 31 200 c 6,47,-1
 31 185 l 5,38,39
EndSplineSet
EndChar

StartChar: uniE5E7
Encoding: 58855 58855 148
GlifName: uniE_5E_7
Width: 199
Flags: W
HStem: 0 30<65 134> 220 30<65 134>
VStem: 0 43<47 203> 156 43<47 203>
LayerCount: 2
Fore
SplineSet
199 125 m 128,-1,1
 199 75 199 75 172 37 c 0,2,3
 143 0 143 0 100 0 c 128,-1,4
 57 0 57 0 27 37 c 0,5,6
 0 75 0 75 0 125 c 128,-1,7
 0 175 0 175 27 213 c 0,8,9
 56 250 56 250 99.5 250 c 128,-1,10
 143 250 143 250 172 213 c 0,11,0
 199 175 199 175 199 125 c 128,-1,1
156 125 m 128,-1,13
 156 164 156 164 143 191 c 0,14,15
 130 219 130 219 99.5 219.5 c 128,-1,16
 69 220 69 220 57 191 c 0,17,18
 43 164 43 164 43 125 c 128,-1,19
 43 86 43 86 57 59 c 0,20,21
 70 31 70 31 100 30.5 c 128,-1,22
 130 30 130 30 143 59 c 0,23,12
 156 86 156 86 156 125 c 128,-1,13
EndSplineSet
EndChar

StartChar: uniE4E6
Encoding: 58598 58598 149
GlifName: uniE_4E_6
Width: 250
Flags: W
HStem: 54 53<60.5 169>
VStem: 72 55<-250 -250>
LayerCount: 2
Fore
SplineSet
70 205 m 0,0,1
 97 205 97 205 111.5 189.5 c 128,-1,2
 126 174 126 174 128.5 156 c 128,-1,3
 131 138 131 138 138.5 122.5 c 128,-1,4
 146 107 146 107 161 107 c 0,5,6
 172 107 172 107 193.5 131.5 c 128,-1,7
 215 156 215 156 222 170 c 0,8,9
 226 179 226 179 236 179 c 128,-1,10
 246 179 246 179 250 170 c 1,11,-1
 127 -250 l 1,12,13
 116 -260 116 -260 100 -260 c 0,14,15
 83 -260 83 -260 72 -250 c 1,16,-1
 189 76 l 1,17,18
 127 54 127 54 84 54 c 0,19,20
 48 54 48 54 22.5 77 c 128,-1,21
 -3 100 -3 100 -3 133 c 0,22,23
 -3 163 -3 163 18.5 184 c 128,-1,24
 40 205 40 205 70 205 c 0,0,1
EndSplineSet
EndChar

StartChar: uniE612
Encoding: 58898 58898 150
GlifName: uniE_612
Width: 324
Flags: W
HStem: 0 21G<154 172>
LayerCount: 2
Fore
SplineSet
163.5 0 m 128,-1,1
 146 0 146 0 146 18 c 1,2,-1
 1 498 l 2,3,4
 0 500 0 500 0 505 c 0,5,6
 0 520 0 520 16 520 c 128,-1,7
 32 520 32 520 35 508 c 2,8,-1
 163 81 l 1,9,-1
 291 508 l 2,10,11
 294 520 294 520 310 520 c 128,-1,12
 326 520 326 520 326 505 c 0,13,14
 326 500 326 500 325 498 c 2,15,-1
 181 18 l 1,16,0
 181 0 181 0 163.5 0 c 128,-1,1
EndSplineSet
EndChar

StartChar: uniE4C6
Encoding: 58566 58566 151
GlifName: uniE_4C_6
Width: 610
VWidth: 976
Flags: W
HStem: 0 125<258 351> 271 96<33 576>
VStem: 0 33<0 271> 242 125<16 109> 576 34<0 271>
LayerCount: 2
Fore
SplineSet
242 62.5 m 128,-1,1
 242 88 242 88 260.5 106.5 c 128,-1,2
 279 125 279 125 304.5 125 c 128,-1,3
 330 125 330 125 348.5 106.5 c 128,-1,4
 367 88 367 88 367 62.5 c 128,-1,5
 367 37 367 37 348.5 18.5 c 128,-1,6
 330 0 330 0 304.5 0 c 128,-1,7
 279 0 279 0 260.5 18.5 c 128,-1,0
 242 37 242 37 242 62.5 c 128,-1,1
8 366 m 2,8,-1
 602 366 l 2,9,10
 611 366 611 366 610 357 c 2,11,-1
 610 17 l 2,12,13
 610 0 610 0 593 0 c 0,14,15
 576 0 576 0 576 17 c 2,16,-1
 576 271 l 1,17,-1
 33 271 l 1,18,-1
 33 17 l 2,19,20
 33 0 33 0 16.5 0 c 128,-1,21
 0 0 0 0 0 17 c 2,22,-1
 0 357 l 2,23,24
 0 366 0 366 8 366 c 2,8,-1
EndSplineSet
EndChar

StartChar: uniE654
Encoding: 58964 58964 152
GlifName: uniE_654
Width: 68
Flags: W
HStem: 0 70<3 67>
VStem: 0 70<3 67>
LayerCount: 2
Fore
SplineSet
0 35 m 128,-1,1
 0 49 0 49 10.5 59.5 c 128,-1,2
 21 70 21 70 35 70 c 128,-1,3
 49 70 49 70 59.5 59.5 c 128,-1,4
 70 49 70 49 70 35 c 128,-1,5
 70 21 70 21 59.5 10.5 c 128,-1,6
 49 0 49 0 35 0 c 128,-1,7
 21 0 21 0 10.5 10.5 c 128,-1,0
 0 21 0 21 0 35 c 128,-1,1
EndSplineSet
EndChar

StartChar: uniE631
Encoding: 58929 58929 153
GlifName: uniE_631
Width: 264
Flags: W
HStem: 0 32<78 187> 232 32<77 117 148 188>
VStem: 0 32<78 187> 117 31<117 232 262 349> 233 32<78 187>
CounterMasks: 1 38
LayerCount: 2
Fore
SplineSet
148 133 m 2,0,1
 148 117 148 117 132.5 117 c 128,-1,2
 117 117 117 117 117 133 c 2,3,-1
 117 232 l 1,4,5
 82 226 82 226 57 198.5 c 128,-1,6
 32 171 32 171 32 131 c 128,-1,7
 32 91 32 91 61.5 61.5 c 128,-1,8
 91 32 91 32 133 32 c 128,-1,9
 175 32 175 32 204 61.5 c 128,-1,10
 233 91 233 91 233 131 c 128,-1,11
 233 171 233 171 208.5 199 c 128,-1,12
 184 227 184 227 148 232 c 1,13,-1
 148 133 l 2,0,1
117 265 m 1,14,-1
 117 333 l 2,15,16
 117 349 117 349 132.5 349 c 128,-1,17
 148 349 148 349 148 333 c 2,18,-1
 148 265 l 1,19,20
 197 259 197 259 231.5 221 c 128,-1,21
 266 183 266 183 266 130 c 128,-1,22
 266 77 266 77 227 38.5 c 128,-1,23
 188 0 188 0 132.5 0 c 128,-1,24
 77 0 77 0 38.5 38.5 c 128,-1,25
 0 77 0 77 0 130 c 128,-1,26
 0 183 0 183 33 221 c 0,27,28
 68 259 68 259 117 265 c 1,14,-1
EndSplineSet
EndChar

StartChar: uniE4AD
Encoding: 58541 58541 154
GlifName: uniE_4A_D_
Width: 250
Flags: W
HStem: -275 275
VStem: 226 24<-7 -0>
LayerCount: 2
Fore
SplineSet
237 0 m 0,0,1
 250 0 250 0 250 -12 c 0,2,3
 250 -17 250 -17 249 -18 c 2,4,-1
 136 -268 l 2,5,6
 133 -276 133 -276 125 -275.5 c 128,-1,7
 117 -275 117 -275 114 -268 c 2,8,-1
 1 -18 l 2,9,10
 0 -17 0 -17 0 -12 c 0,11,12
 0 0 0 0 13 0 c 2,13,-1
 79 0 l 2,14,15
 87 0 87 0 91 -7 c 2,16,-1
 159 -157 l 1,17,-1
 226 -7 l 2,18,19
 229 0 229 0 237 0 c 0,0,1
EndSplineSet
EndChar

StartChar: uniE8C7
Encoding: 59591 59591 156
GlifName: uniE_8C_7
Width: 516
Flags: W
HStem: 0 23<-105 105> 250 23<-409 409> 500 23<-484 484> 750 23<-409 409> 1000 23<-105 105>
VStem: -516 31<391 500 523 628> 484 31<395 500 523 632>
LayerCount: 2
Fore
SplineSet
446 768 m 0,0,1
 515 650 515 650 515.5 511.5 c 128,-1,2
 516 373 516 373 447 254.5 c 128,-1,3
 378 136 378 136 258 68 c 0,4,5
 142 0 142 0 0 0 c 128,-1,6
 -142 0 -142 0 -258 68 c 0,7,8
 -378 135 -378 135 -447 254 c 128,-1,9
 -516 373 -516 373 -516 511 c 128,-1,10
 -516 649 -516 649 -446 768 c 0,11,12
 -379 885 -379 885 -259 954 c 128,-1,13
 -139 1023 -139 1023 0 1023 c 128,-1,14
 139 1023 139 1023 259 954 c 128,-1,15
 379 885 379 885 446 768 c 0,0,1
409 250 m 1,16,-1
 -409 250 l 1,17,18
 -344 147 -344 147 -235.5 85 c 128,-1,19
 -127 23 -127 23 0 23 c 128,-1,20
 127 23 127 23 235.5 85 c 128,-1,21
 344 147 344 147 409 250 c 1,16,-1
422 273 m 1,22,23
 480 382 480 382 484 500 c 1,24,-1
 -484 500 l 1,25,26
 -481 381 -481 381 -422 273 c 1,27,-1
 422 273 l 1,22,23
-422 750 m 1,28,29
 -480 641 -480 641 -484 523 c 1,30,-1
 484 523 l 1,31,32
 481 642 481 642 422 750 c 1,33,-1
 -422 750 l 1,28,29
-409 773 m 1,34,-1
 409 773 l 1,35,36
 344 876 344 876 235.5 938 c 128,-1,37
 127 1000 127 1000 0 1000 c 128,-1,38
 -127 1000 -127 1000 -235.5 938 c 128,-1,39
 -344 876 -344 876 -409 773 c 1,34,-1
EndSplineSet
EndChar

StartChar: uniE4C0
Encoding: 58560 58560 157
GlifName: uniE_4C_0
Width: 642
VWidth: 976
Flags: W
HStem: -17 126<277 366> 258 95<217 425>
VStem: -1 34<-17 62> 258 127<2 90> 609 34<-17 62>
CounterMasks: 1 38
LayerCount: 2
Fore
SplineSet
258 46 m 128,-1,1
 258 72 258 72 276.5 90.5 c 128,-1,2
 295 109 295 109 321.5 109 c 128,-1,3
 348 109 348 109 366.5 90.5 c 128,-1,4
 385 72 385 72 385 46 c 128,-1,5
 385 20 385 20 366.5 1.5 c 128,-1,6
 348 -17 348 -17 321.5 -17 c 128,-1,7
 295 -17 295 -17 276.5 1.5 c 128,-1,0
 258 20 258 20 258 46 c 128,-1,1
321.5 353 m 128,-1,9
 380 353 380 353 430.5 329 c 128,-1,10
 481 305 481 305 515 267.5 c 128,-1,11
 549 230 549 230 575.5 188 c 128,-1,12
 602 146 602 146 616 104.5 c 128,-1,13
 630 63 630 63 637 35.5 c 128,-1,14
 644 8 644 8 644 -3 c 0,15,16
 644 -17 644 -17 627 -17 c 0,17,18
 612 -17 612 -17 609 0 c 0,19,20
 589 110 589 110 509 184 c 128,-1,21
 429 258 429 258 321.5 258 c 128,-1,22
 214 258 214 258 133.5 184 c 128,-1,23
 53 110 53 110 33 0 c 0,24,25
 30 -17 30 -17 16 -17 c 0,26,27
 -1 -17 -1 -17 -1 -3 c 0,28,29
 -1 8 -1 8 6 35.5 c 128,-1,30
 13 63 13 63 27 104.5 c 128,-1,31
 41 146 41 146 67.5 188 c 128,-1,32
 94 230 94 230 127.5 267.5 c 128,-1,33
 161 305 161 305 212 329 c 128,-1,8
 263 353 263 353 321.5 353 c 128,-1,9
EndSplineSet
EndChar

StartChar: uniE044
Encoding: 57412 57412 158
GlifName: uniE_044
Width: 113
Flags: W
HStem: -57 113<17 96>
VStem: 0 113<-40 40>
LayerCount: 2
Fore
SplineSet
0 0 m 128,-1,1
 0 23 0 23 16.5 40 c 128,-1,2
 33 57 33 57 56.5 57 c 128,-1,3
 80 57 80 57 96.5 40 c 128,-1,4
 113 23 113 23 113 0 c 128,-1,5
 113 -23 113 -23 96.5 -40 c 128,-1,6
 80 -57 80 -57 56.5 -57 c 128,-1,7
 33 -57 33 -57 16.5 -40 c 128,-1,0
 0 -23 0 -23 0 0 c 128,-1,1
EndSplineSet
EndChar

StartChar: uniE5E5
Encoding: 58853 58853 159
GlifName: uniE_5E_5
Width: 275
Flags: W
HStem: 0 21G<132 143> 112 51<0 112 163 275>
VStem: 112 51<0 112 163 275>
LayerCount: 2
Fore
SplineSet
137.5 0 m 128,-1,1
 127 0 127 0 119.5 8 c 128,-1,2
 112 16 112 16 112 25 c 2,3,-1
 112 112 l 1,4,-1
 25 112 l 2,5,6
 13 112 13 112 8 120 c 0,7,8
 0 127 0 127 0 137.5 c 128,-1,9
 0 148 0 148 8 155.5 c 128,-1,10
 16 163 16 163 25 163 c 2,11,-1
 112 163 l 1,12,-1
 112 250 l 2,13,14
 112 262 112 262 120 268 c 0,15,16
 127 276 127 276 137.5 275.5 c 128,-1,17
 148 275 148 275 155 268 c 0,18,19
 163 262 163 262 163 250 c 2,20,-1
 163 163 l 1,21,-1
 250 163 l 2,22,23
 262 163 262 163 268 155 c 0,24,25
 276 148 276 148 275.5 137.5 c 128,-1,26
 275 127 275 127 268 120 c 0,27,28
 262 112 262 112 250 112 c 2,29,-1
 163 112 l 1,30,-1
 163 25 l 2,31,32
 163 13 163 13 155 8 c 0,33,0
 148 0 148 0 137.5 0 c 128,-1,1
EndSplineSet
EndChar

StartChar: uniEAAE
Encoding: 60078 60078 160
GlifName: uniE_A_A_E_
Width: 257
VWidth: 1024
Flags: W
HStem: -61.5 325
LayerCount: 2
Fore
SplineSet
273 -42 m 2,0,-1
 246 -10 l 2,1,2
 234 4 234 4 220 4 c 128,-1,3
 206 4 206 4 188 -10 c 2,4,-1
 170 -24 l 1,5,6
 158 -36 158 -36 154 -38 c 1,7,-1
 198 -132 l 2,8,9
 202 -140 202 -140 198.5 -143.5 c 128,-1,10
 195 -147 195 -147 190 -146 c 128,-1,11
 185 -145 185 -145 137 -96 c 128,-1,12
 89 -47 89 -47 78 -42 c 0,13,14
 16 -14 16 -14 -10 12 c 0,15,16
 -12 14 -12 14 -12.5 18.5 c 128,-1,17
 -13 23 -13 23 -9 24 c 0,18,19
 18 31 18 31 76.5 79.5 c 128,-1,20
 135 128 135 128 159.5 154 c 128,-1,21
 184 180 184 180 192 181.5 c 128,-1,22
 200 183 200 183 200 176 c 0,23,24
 200 174 200 174 197 168 c 2,25,-1
 159 88 l 1,26,27
 184 82 184 82 203 68 c 1,28,-1
 297 -22 l 1,29,30
 306 -33 306 -33 295 -44 c 128,-1,31
 284 -55 284 -55 273 -42 c 2,0,-1
EndSplineSet
EndChar

StartChar: uniE614
Encoding: 58900 58900 161
GlifName: uniE_614
Width: 265
Flags: W
HStem: 0 20<87 179> 246 20<87 179>
VStem: 0 20<87 179> 246 20<87 179>
LayerCount: 2
Fore
SplineSet
132.5 266 m 128,-1,1
 188 266 188 266 227 227 c 128,-1,2
 266 188 266 188 266 132.5 c 128,-1,3
 266 77 266 77 227 38.5 c 128,-1,4
 188 0 188 0 132.5 0 c 128,-1,5
 77 0 77 0 38.5 38.5 c 128,-1,6
 0 77 0 77 0 132.5 c 128,-1,7
 0 188 0 188 38.5 227 c 128,-1,0
 77 266 77 266 132.5 266 c 128,-1,1
133 246 m 128,-1,9
 86 246 86 246 53 213 c 128,-1,10
 20 180 20 180 20 133 c 128,-1,11
 20 86 20 86 53 53 c 128,-1,12
 86 20 86 20 133 20 c 128,-1,13
 180 20 180 20 213 53 c 128,-1,14
 246 86 246 86 246 133 c 128,-1,15
 246 180 246 180 213 213 c 128,-1,8
 180 246 180 246 133 246 c 128,-1,9
EndSplineSet
EndChar

StartChar: uniE658
Encoding: 58968 58968 163
GlifName: uniE_658
Width: 208
Flags: W
VStem: 0 210
LayerCount: 2
Fore
SplineSet
124 165 m 1,0,-1
 51 169 l 1,1,2
 17 169 17 169 0 155 c 1,3,-1
 35 216 l 1,4,5
 51 229 51 229 86 230 c 1,6,-1
 159 226 l 1,7,8
 194 226 194 226 210 239 c 1,9,-1
 175 179 l 1,10,11
 158 165 158 165 124 165 c 1,0,-1
EndSplineSet
EndChar

StartChar: uniE088
Encoding: 57480 57480 164
GlifName: uniE_088
Width: 366
Flags: W
HStem: -250 23<120 227> 227 23<150 253>
VStem: 0 45<-175 -52> 15 102<110 182> 269 104<-177 -91> 308 43<74 193>
LayerCount: 2
Fore
SplineSet
259 38 m 1,0,1
 308 92 308 92 308 136 c 128,-1,2
 308 180 308 180 274 203.5 c 128,-1,3
 240 227 240 227 198.5 227 c 128,-1,4
 157 227 157 227 136.5 205.5 c 128,-1,5
 116 184 116 184 116 153 c 128,-1,6
 116 122 116 122 146 104 c 2,7,-1
 259 38 l 1,0,1
62.5 210 m 128,-1,9
 110 250 110 250 182.5 250 c 128,-1,10
 255 250 255 250 303 221 c 128,-1,11
 351 192 351 192 351 140 c 128,-1,12
 351 88 351 88 289 21 c 1,13,14
 372 -27 372 -27 372 -106 c 0,15,16
 372 -166 372 -166 322 -208 c 128,-1,17
 272 -250 272 -250 189 -250 c 128,-1,18
 106 -250 106 -250 55 -211 c 0,19,20
 0 -172 0 -172 0 -110 c 0,21,22
 0 -88 0 -88 14 -64 c 0,23,24
 26 -38 26 -38 76 10 c 1,25,26
 14 53 14 53 14.5 111.5 c 128,-1,8
 15 170 15 170 62.5 210 c 128,-1,9
106 -8 m 1,27,28
 44 -63 44 -63 44.5 -112 c 128,-1,29
 45 -161 45 -161 85.5 -194 c 128,-1,30
 126 -227 126 -227 174.5 -227 c 128,-1,31
 223 -227 223 -227 245 -201 c 0,32,33
 268 -178 268 -178 268.5 -140 c 128,-1,34
 269 -102 269 -102 234 -82 c 2,35,-1
 106 -8 l 1,27,28
EndSplineSet
EndChar

StartChar: uniE089
Encoding: 57481 57481 165
GlifName: uniE_089
Width: 339
Flags: W
HStem: -250 23<115 191> -29 23<132 205> 227 23<130 204>
VStem: 0 109<31 188> 12 92<-205 -123> 223 117<-117 -16 2 127>
LayerCount: 2
Fore
SplineSet
170 -6 m 128,-1,1
 207 -6 207 -6 216 23 c 0,2,3
 223 45 223 45 223 96 c 2,4,-1
 223 125 l 2,5,6
 223 176 223 176 216 197 c 0,7,8
 207 226 207 226 166.5 226.5 c 128,-1,9
 126 227 126 227 117.5 194 c 128,-1,10
 109 161 109 161 109 104.5 c 128,-1,11
 109 48 109 48 121 21 c 128,-1,0
 133 -6 133 -6 170 -6 c 128,-1,1
223 -16 m 1,12,13
 190 -30 190 -30 170 -29 c 0,14,15
 92 -29 92 -29 45 6 c 0,16,17
 0 42 0 42 0 110 c 128,-1,18
 0 178 0 178 45.5 214 c 128,-1,19
 91 250 91 250 170.5 250 c 128,-1,20
 250 250 250 250 295 176 c 128,-1,21
 340 102 340 102 340 1 c 128,-1,22
 340 -100 340 -100 287.5 -175 c 128,-1,23
 235 -250 235 -250 150 -250 c 0,24,25
 95 -250 95 -250 53 -222 c 0,26,27
 12 -194 12 -194 12 -147 c 0,28,29
 12 -119 12 -119 31 -101 c 0,30,31
 49 -81 49 -81 76.5 -81 c 128,-1,32
 104 -81 104 -81 123.5 -100.5 c 128,-1,33
 143 -120 143 -120 143 -147 c 0,34,35
 143 -158 143 -158 123 -172 c 0,36,37
 103 -184 103 -184 103.5 -197 c 128,-1,38
 104 -210 104 -210 117 -219 c 0,39,40
 133 -227 133 -227 150 -227 c 0,41,42
 195 -227 195 -227 210 -190.5 c 128,-1,43
 225 -154 225 -154 225 -88 c 0,44,45
 225 -68 225 -68 224 -52 c 128,-1,46
 223 -36 223 -36 223 -16 c 1,12,13
EndSplineSet
EndChar

StartChar: uniE0A8
Encoding: 57512 57512 166
GlifName: uniE_0A_8
Width: 378
Flags: W
HStem: -141 281
LayerCount: 2
Fore
SplineSet
198 35 m 2,0,1
 193 32 193 32 189.5 32 c 128,-1,2
 186 32 186 32 181 35 c 2,3,-1
 78 110 l 1,4,-1
 40 82 l 1,5,-1
 135 12 l 1,6,7
 141 6 141 6 141 0 c 128,-1,8
 141 -6 141 -6 135 -12 c 1,9,-1
 40 -82 l 1,10,-1
 78 -110 l 1,11,-1
 181 -35 l 2,12,13
 186 -32 186 -32 189.5 -32 c 128,-1,14
 193 -32 193 -32 198 -35 c 2,15,-1
 301 -110 l 1,16,-1
 339 -82 l 1,17,-1
 244 -12 l 1,18,19
 238 -6 238 -6 238 0 c 128,-1,20
 238 6 238 6 244 12 c 1,21,-1
 339 82 l 1,22,-1
 301 110 l 1,23,-1
 198 35 l 2,0,1
189 65 m 1,24,-1
 292 141 l 2,25,26
 297 144 297 144 301 144 c 128,-1,27
 305 144 305 144 310 141 c 2,28,-1
 373 94 l 2,29,30
 379 90 379 90 379 82 c 128,-1,31
 379 74 379 74 373 70 c 2,32,-1
 278 0 l 1,33,-1
 373 -70 l 2,34,35
 379 -74 379 -74 379 -82 c 128,-1,36
 379 -90 379 -90 373 -94 c 2,37,-1
 310 -141 l 2,38,39
 305 -144 305 -144 301 -144 c 128,-1,40
 297 -144 297 -144 292 -141 c 2,41,-1
 189 -65 l 1,42,-1
 87 -141 l 2,43,44
 82 -144 82 -144 78 -144 c 128,-1,45
 74 -144 74 -144 69 -141 c 2,46,-1
 6 -94 l 2,47,48
 0 -90 0 -90 0 -82 c 128,-1,49
 0 -74 0 -74 6 -70 c 2,50,-1
 101 0 l 1,51,-1
 6 70 l 2,52,53
 0 74 0 74 0 82 c 128,-1,54
 0 90 0 90 6 94 c 2,55,-1
 69 141 l 2,56,57
 74 144 74 144 78 144 c 128,-1,58
 82 144 82 144 87 141 c 2,59,-1
 189 65 l 1,24,-1
EndSplineSet
EndChar

StartChar: uniE0BE
Encoding: 57534 57534 167
GlifName: uniE_0B_E_
Width: 328
Flags: W
HStem: -112 226<139 191>
VStem: 0 329<-106 -57>
LayerCount: 2
Fore
SplineSet
22 -112 m 2,0,1
 13 -112 13 -112 6.5 -106 c 128,-1,2
 0 -100 0 -100 0 -92 c 128,-1,3
 0 -84 0 -84 5 -77 c 2,4,-1
 147 104 l 2,5,6
 154 114 154 114 165 113.5 c 128,-1,7
 176 113 176 113 183 104 c 2,8,-1
 324 -77 l 2,9,10
 329 -84 329 -84 329 -92 c 128,-1,11
 329 -100 329 -100 322.5 -106 c 128,-1,12
 316 -112 316 -112 307 -112 c 2,13,-1
 22 -112 l 2,0,1
EndSplineSet
EndChar

StartChar: uniE084
Encoding: 57476 57476 168
GlifName: uniE_084
Width: 399
Flags: W
HStem: -250 23<111 159 350 397> -125 29<29 196 313 399> 230 20G<145 153 299 308>
VStem: 196 117<-198 -125 -96 67>
LayerCount: 2
Fore
SplineSet
274.5 244 m 128,-1,1
 295 251 295 251 303.5 251 c 128,-1,2
 312 251 312 251 315 240 c 0,3,4
 315 239 315 239 313 234 c 1,5,-1
 29 -96 l 1,6,-1
 196 -96 l 1,7,-1
 196 35 l 2,8,9
 196 59 196 59 225 70 c 0,10,11
 254 81 254 81 291 157 c 0,12,13
 294 163 294 163 300 163 c 0,14,15
 312 163 312 163 313 149 c 1,16,-1
 313 -96 l 1,17,-1
 385 -96 l 2,18,19
 399 -96 399 -96 399.5 -110.5 c 128,-1,20
 400 -125 400 -125 385 -125 c 2,21,-1
 313 -125 l 1,22,-1
 313 -133 l 2,23,24
 313 -172 313 -172 333 -199 c 0,25,26
 355 -226 355 -226 386 -227 c 0,27,28
 398 -227 398 -227 397.5 -238.5 c 128,-1,29
 397 -250 397 -250 381 -250 c 128,-1,30
 365 -250 365 -250 321 -243.5 c 128,-1,31
 277 -237 277 -237 253 -237 c 128,-1,32
 229 -237 229 -237 187 -243.5 c 128,-1,33
 145 -250 145 -250 123 -250 c 0,34,35
 111 -250 111 -250 111 -238.5 c 128,-1,36
 111 -227 111 -227 123 -227 c 0,37,38
 153 -227 153 -227 176 -199 c 0,39,40
 197 -171 197 -171 196 -133 c 2,41,-1
 196 -125 l 1,42,-1
 29 -125 l 2,43,44
 16 -125 16 -125 7 -118 c 128,-1,45
 -2 -111 -2 -111 -2 -105.5 c 128,-1,46
 -2 -100 -2 -100 22.5 -70.5 c 128,-1,47
 47 -41 47 -41 92.5 42.5 c 128,-1,48
 138 126 138 126 138 234 c 0,49,50
 138 250 138 250 151 250 c 0,51,52
 154 250 154 250 160.5 248 c 128,-1,53
 167 246 167 246 188 241.5 c 128,-1,54
 209 237 209 237 231.5 237 c 128,-1,0
 254 237 254 237 274.5 244 c 128,-1,1
EndSplineSet
EndChar

StartChar: uniE8CA
Encoding: 59594 59594 169
GlifName: uniE_8C_A_
Width: 60
Flags: W
HStem: -62 123<-43 43>
VStem: -62 123<-43 43>
LayerCount: 2
Fore
SplineSet
-62 0 m 128,-1,1
 -62 26 -62 26 -44 44 c 128,-1,2
 -26 62 -26 62 0 62 c 128,-1,3
 26 62 26 62 44 44 c 128,-1,4
 62 26 62 26 62 0 c 128,-1,5
 62 -26 62 -26 44 -44 c 128,-1,6
 26 -62 26 -62 0 -62 c 128,-1,7
 -26 -62 -26 -62 -44 -44 c 128,-1,0
 -62 -26 -62 -26 -62 0 c 128,-1,1
EndSplineSet
EndChar

StartChar: uniE275
Encoding: 57973 57973 170
GlifName: uniE_275
Width: 254
Flags: W
VStem: 0 83<-217 -202 39 54> 45 38<-437 -218 -92 38 164 334> 170 85<-59 -44 197 213> 170 39<-339 -169 -44 87 213 384>
LayerCount: 2
Fore
SplineSet
209 -320 m 2,0,1
 209 -339 209 -339 189.5 -339 c 128,-1,2
 170 -339 170 -339 170 -320 c 2,3,-1
 170 -169 l 1,4,-1
 83 -202 l 1,5,-1
 83 -437 l 1,6,7
 103 -429 103 -429 116.5 -420.5 c 128,-1,8
 130 -412 130 -412 135 -412 c 0,9,10
 150 -412 150 -412 149 -426 c 0,11,12
 149 -431 149 -431 145 -438 c 0,13,14
 98 -511 98 -511 79 -604 c 0,15,16
 75 -621 75 -621 63 -620 c 0,17,18
 61 -620 61 -620 55.5 -617 c 128,-1,19
 50 -614 50 -614 47 -601 c 0,20,21
 26 -507 26 -507 -18 -438 c 0,22,23
 -23 -428 -23 -428 -22 -426 c 0,24,25
 -22 -412 -22 -412 -9 -412 c 0,26,27
 -3 -412 -3 -412 14 -422.5 c 128,-1,28
 31 -433 31 -433 45 -438 c 1,29,-1
 45 -218 l 1,30,-1
 21 -227 l 2,31,32
 0 -236 0 -236 0 -215 c 2,33,-1
 0 -136 l 2,34,35
 0 -125 0 -125 18 -118 c 2,36,-1
 45 -107 l 1,37,-1
 45 38 l 1,38,-1
 21 29 l 2,39,40
 0 20 0 20 0 41 c 2,41,-1
 0 120 l 2,42,43
 0 131 0 131 18 139 c 1,44,-1
 45 148 l 1,45,-1
 45 314 l 2,46,47
 45 334 45 334 64 334 c 128,-1,48
 83 334 83 334 83 314 c 2,49,-1
 83 164 l 1,50,-1
 170 197 l 1,51,-1
 170 364 l 2,52,53
 170 384 170 384 189.5 384 c 128,-1,54
 209 384 209 384 209 364 c 2,55,-1
 209 213 l 1,56,-1
 233 222 l 1,57,58
 254 228 254 228 255 210 c 2,59,-1
 255 131 l 2,60,61
 255 117 255 117 235 111 c 1,62,-1
 209 102 l 1,63,-1
 209 -44 l 1,64,-1
 233 -34 l 1,65,66
 254 -28 254 -28 255 -46 c 2,67,-1
 255 -125 l 2,68,69
 255 -139 255 -139 235 -145 c 1,70,-1
 209 -155 l 1,71,-1
 209 -320 l 2,0,1
83 -92 m 1,72,-1
 170 -59 l 1,73,-1
 170 87 l 1,74,-1
 83 54 l 1,75,-1
 83 -92 l 1,72,-1
EndSplineSet
EndChar

StartChar: uniE283
Encoding: 57987 57987 171
GlifName: uniE_283
Width: 362
Flags: W
VStem: 45 38<-388 -221 -101 35 155 334> 158 38<-361 -191 -71 64 185 360> 271 37<-339 -163 -43 93 213 383>
LayerCount: 2
Fore
SplineSet
83 -368 m 2,0,1
 83 -388 83 -388 64 -388 c 128,-1,2
 45 -388 45 -388 45 -368 c 2,3,-1
 45 -221 l 1,4,-1
 21 -227 l 2,5,6
 0 -233 0 -233 0 -215 c 2,7,-1
 0 -136 l 2,8,9
 0 -122 0 -122 18 -118 c 1,10,-1
 45 -110 l 1,11,-1
 45 35 l 1,12,-1
 21 29 l 2,13,14
 0 23 0 23 0 41 c 2,15,-1
 0 120 l 2,16,17
 0 135 0 135 18 139 c 1,18,-1
 45 146 l 1,19,-1
 45 314 l 2,20,21
 45 334 45 334 64 334 c 128,-1,22
 83 334 83 334 83 314 c 2,23,-1
 83 155 l 1,24,-1
 158 175 l 1,25,-1
 158 342 l 2,26,27
 158 361 158 361 177 360.5 c 128,-1,28
 196 360 196 360 196 342 c 2,29,-1
 196 185 l 1,30,-1
 271 203 l 1,31,-1
 271 363 l 2,32,33
 271 383 271 383 290 383 c 128,-1,34
 309 383 309 383 309 363 c 2,35,-1
 309 213 l 1,36,-1
 341 222 l 2,37,38
 362 228 362 228 362 210 c 2,39,-1
 362 131 l 2,40,41
 362 118 362 118 344 111 c 1,42,-1
 309 103 l 1,43,-1
 309 -43 l 1,44,-1
 341 -34 l 2,45,46
 362 -28 362 -28 362 -46 c 2,47,-1
 362 -125 l 2,48,49
 362 -138 362 -138 344 -145 c 1,50,-1
 309 -153 l 1,51,-1
 309 -320 l 2,52,53
 309 -339 309 -339 290 -339 c 128,-1,54
 271 -339 271 -339 271 -320 c 2,55,-1
 271 -163 l 1,56,-1
 196 -182 l 1,57,-1
 196 -342 l 2,58,59
 196 -362 196 -362 177 -361.5 c 128,-1,60
 158 -361 158 -361 158 -342 c 2,61,-1
 158 -191 l 1,62,-1
 83 -211 l 1,63,-1
 83 -368 l 2,0,1
271 -53 m 1,64,-1
 271 93 l 1,65,-1
 196 74 l 1,66,-1
 196 -71 l 1,67,-1
 271 -53 l 1,64,-1
83 -101 m 1,68,-1
 158 -82 l 1,69,-1
 158 64 l 1,70,-1
 83 45 l 1,71,-1
 83 -101 l 1,68,-1
EndSplineSet
EndChar

StartChar: uniE080
Encoding: 57472 57472 172
GlifName: uniE_080
Width: 366
Flags: W
HStem: -250 29<148 219> 221 29<148 219>
VStem: 0 116<-121 121> 251 116<-121 121>
LayerCount: 2
Fore
SplineSet
184 221 m 128,-1,1
 141 221 141 221 127 166 c 0,2,3
 116 121 116 121 116 55 c 2,4,-1
 116 -55 l 2,5,6
 116 -121 116 -121 127 -166 c 0,7,8
 141 -221 141 -221 184 -221 c 128,-1,9
 227 -221 227 -221 240 -166 c 0,10,11
 251 -121 251 -121 251 -55 c 2,12,-1
 251 55 l 2,13,14
 251 121 251 121 240 166 c 0,15,0
 227 221 227 221 184 221 c 128,-1,1
184 250 m 128,-1,17
 267 250 267 250 317 176 c 128,-1,18
 367 102 367 102 367 0 c 128,-1,19
 367 -102 367 -102 317 -176 c 128,-1,20
 267 -250 267 -250 184 -250 c 128,-1,21
 101 -250 101 -250 50.5 -176 c 128,-1,22
 0 -102 0 -102 0 0 c 128,-1,23
 0 102 0 102 50.5 176 c 128,-1,16
 101 250 101 250 184 250 c 128,-1,17
EndSplineSet
EndChar

StartChar: uniE081
Encoding: 57473 57473 173
GlifName: uniE_081
Width: 317
Flags: W
HStem: -250 23<32 80 271 318> 231 20G<219 226>
VStem: -2 28<-21 -12> 117 116<-198 131>
LayerCount: 2
Fore
SplineSet
143.5 245 m 128,-1,1
 162 237 162 237 175 237 c 128,-1,2
 188 237 188 237 203 244 c 128,-1,3
 218 251 218 251 221 251 c 0,4,5
 232 251 232 251 233 234 c 1,6,-1
 233 -133 l 2,7,8
 233 -171 233 -171 254 -199 c 0,9,10
 275 -226 275 -226 307 -227 c 0,11,12
 319 -227 319 -227 318.5 -238.5 c 128,-1,13
 318 -250 318 -250 307 -250 c 0,14,15
 279 -250 279 -250 238.5 -243.5 c 128,-1,16
 198 -237 198 -237 174.5 -237 c 128,-1,17
 151 -237 151 -237 108 -243.5 c 128,-1,18
 65 -250 65 -250 44 -250 c 0,19,20
 32 -250 32 -250 32 -238.5 c 128,-1,21
 32 -227 32 -227 44 -227 c 0,22,23
 75 -227 75 -227 97 -199 c 0,24,25
 118 -171 118 -171 117 -133 c 2,26,-1
 117 112 l 2,27,28
 117 117 117 117 112 124 c 128,-1,29
 107 131 107 131 100 131 c 128,-1,30
 93 131 93 131 90 124 c 2,31,-1
 26 -12 l 2,32,33
 22 -22 22 -22 14.5 -21.5 c 128,-1,34
 7 -21 7 -21 2.5 -17 c 128,-1,35
 -2 -13 -2 -13 -2 -9.5 c 128,-1,36
 -2 -6 -2 -6 0 0 c 2,37,-1
 117 250 l 2,38,39
 119 253 119 253 122 253 c 128,-1,0
 125 253 125 253 143.5 245 c 128,-1,1
EndSplineSet
EndChar

StartChar: uniE249
Encoding: 57929 57929 174
GlifName: uniE_249
Width: 299
Flags: W
VStem: 0 31<-601 -503 -392 -290 -171 -74 50 144 274 362 499 649> 199 42<-174 -59 -8 92> 220 43<25 149> 242 42<231 361 496 536> 250 42<427 536> 258 42<592 717>
LayerCount: 2
Fore
SplineSet
295 708 m 4,0,1
 300 691 300 691 300 651 c 132,-1,2
 300 611 300 611 281 578 c 5,3,4
 292 533 292 533 292 492 c 132,-1,5
 292 451 292 451 273 414 c 5,6,7
 284 358 284 358 284 309 c 132,-1,8
 284 260 284 260 259 211 c 5,9,10
 263 147 263 147 263 105.5 c 132,-1,11
 263 64 263 64 238 12 c 5,12,13
 241 -34 241 -34 241 -90 c 132,-1,14
 241 -146 241 -146 207.5 -215.5 c 132,-1,15
 174 -285 174 -285 137 -337 c 4,16,17
 102 -383 102 -383 66.5 -454 c 132,-1,18
 31 -525 31 -525 31 -592 c 6,19,-1
 31 -601 l 5,20,-1
 0 -601 l 5,21,-1
 0 649 l 5,22,-1
 31 649 l 5,23,-1
 31 499 l 5,24,25
 160 519 160 519 221 574 c 4,26,27
 258 608 258 608 258 650 c 4,28,29
 258 667 258 667 255 682.5 c 132,-1,30
 252 698 252 698 252 704.5 c 132,-1,31
 252 711 252 711 259 717.5 c 132,-1,32
 266 724 266 724 278.5 724 c 132,-1,33
 291 724 291 724 295 708 c 4,0,1
31 -392 m 5,34,35
 89 -324 89 -324 114 -292 c 132,-1,36
 139 -260 139 -260 169 -196 c 132,-1,37
 199 -132 199 -132 199 -82 c 6,38,-1
 199 -70 l 5,39,40
 198 -65 198 -65 198 -59 c 5,41,42
 186 -78 186 -78 142 -135.5 c 132,-1,43
 98 -193 98 -193 83.5 -213 c 132,-1,44
 69 -233 69 -233 50 -279.5 c 132,-1,45
 31 -326 31 -326 31 -370 c 6,46,-1
 31 -392 l 5,34,35
31 -171 m 5,47,48
 170 -45 170 -45 203 35 c 4,49,50
 220 75 220 75 220 114 c 6,51,-1
 220 150 l 5,52,53
 203 128 203 128 163 85 c 132,-1,54
 123 42 123 42 98 12.5 c 132,-1,55
 73 -17 73 -17 52 -61.5 c 132,-1,56
 31 -106 31 -106 31 -150 c 6,57,-1
 31 -171 l 5,47,48
31 50 m 5,58,59
 116 109 116 109 170 162 c 4,60,61
 242 234 242 234 242 312 c 4,62,63
 242 332 242 332 238 362 c 5,64,65
 217 338 217 338 166 289 c 132,-1,66
 115 240 115 240 105 229 c 4,67,68
 77 204 77 204 55 160 c 4,69,70
 32 118 32 118 31 74 c 6,71,-1
 31 50 l 5,58,59
31 274 m 5,72,73
 250 381 250 381 250 495 c 4,74,75
 250 519 250 519 246 536 c 5,76,77
 227 517 227 517 170.5 477.5 c 132,-1,78
 114 438 114 438 107 433 c 4,79,80
 77 411 77 411 54 376 c 132,-1,81
 31 341 31 341 31 300 c 6,82,-1
 31 274 l 5,72,73
EndSplineSet
EndChar

StartChar: uniE4B2
Encoding: 58546 58546 175
GlifName: uniE_4B_2
Width: 300
Flags: W
HStem: 0 80<122 178> 188 35<6 295>
VStem: 110 80<12 68>
LayerCount: 2
Fore
SplineSet
110 40 m 128,-1,1
 110 57 110 57 122 68.5 c 128,-1,2
 134 80 134 80 150.5 80 c 128,-1,3
 167 80 167 80 178.5 68.5 c 128,-1,4
 190 57 190 57 190 40 c 128,-1,5
 190 23 190 23 178.5 11.5 c 128,-1,6
 167 0 167 0 150.5 0 c 128,-1,7
 134 0 134 0 122 11.5 c 128,-1,0
 110 23 110 23 110 40 c 128,-1,1
282 223 m 2,8,9
 290 223 290 223 295.5 218 c 128,-1,10
 301 213 301 213 301 205 c 0,11,12
 301 188 301 188 282 188 c 2,13,-1
 19 188 l 2,14,15
 0 188 0 188 0 205 c 0,16,17
 0 213 0 213 5.5 218 c 128,-1,18
 11 223 11 223 19 223 c 2,19,-1
 282 223 l 2,8,9
EndSplineSet
EndChar

StartChar: uniE4F2
Encoding: 58610 58610 176
GlifName: uniE_4F_2
Width: 250
Flags: W
HStem: 54 53<81 189.5>
VStem: 123 55<-250 -250>
LayerCount: 2
Fore
SplineSet
180 205 m 0,0,1
 210 205 210 205 231.5 184 c 128,-1,2
 253 163 253 163 253 133 c 0,3,4
 253 100 253 100 227.5 77 c 128,-1,5
 202 54 202 54 166 54 c 0,6,7
 123 54 123 54 61 76 c 1,8,-1
 178 -250 l 1,9,10
 167 -260 167 -260 150 -260 c 0,11,12
 134 -260 134 -260 123 -250 c 1,13,-1
 0 170 l 1,14,15
 4 179 4 179 14 179 c 128,-1,16
 24 179 24 179 28 170 c 0,17,18
 35 156 35 156 56.5 131.5 c 128,-1,19
 78 107 78 107 89 107 c 0,20,21
 104 107 104 107 111.5 122.5 c 128,-1,22
 119 138 119 138 121.5 156 c 128,-1,23
 124 174 124 174 138.5 189.5 c 128,-1,24
 153 205 153 205 180 205 c 0,0,1
EndSplineSet
EndChar

StartChar: uniEB7C
Encoding: 60284 60284 180
GlifName: uniE_B_7C_
Width: 250
Flags: W
HStem: 0 260
VStem: 115 20<0 63>
LayerCount: 2
Fore
SplineSet
125 0 m 128,-1,1
 115 0 115 0 115 10 c 0,2,3
 115 55 115 55 77 135 c 128,-1,4
 39 215 39 215 4 242 c 0,5,6
 0 245 0 245 0 250 c 0,7,8
 0 260 0 260 10 260 c 1,9,10
 20 256 20 256 63.5 251.5 c 128,-1,11
 107 247 107 247 128.5 247 c 128,-1,12
 150 247 150 247 189.5 251.5 c 128,-1,13
 229 256 229 256 232.5 258 c 128,-1,14
 236 260 236 260 240 260 c 0,15,16
 250 260 250 260 250 250 c 0,17,18
 250 245 250 245 246 242 c 0,19,20
 211 215 211 215 173 135 c 128,-1,21
 135 55 135 55 135 10 c 0,22,0
 135 0 135 0 125 0 c 128,-1,1
EndSplineSet
EndChar

StartChar: uniE0B3
Encoding: 57523 57523 181
GlifName: uniE_0B_3
Width: 390
Flags: W
HStem: -173 37<116 276> 136 37<116 275>
VStem: 0 36<-62 61> 355 35<-62 62>
LayerCount: 2
Fore
SplineSet
334 -123 m 0,0,1
 275 -173 275 -173 194.5 -173 c 128,-1,2
 114 -173 114 -173 57 -122 c 128,-1,3
 0 -71 0 -71 0 0.5 c 128,-1,4
 0 72 0 72 57 122.5 c 128,-1,5
 114 173 114 173 195.5 173 c 128,-1,6
 277 173 277 173 334 123 c 128,-1,7
 391 73 391 73 391 1 c 128,-1,8
 391 -71 391 -71 334 -123 c 0,0,1
196 24 m 1,9,-1
 292 108 l 1,10,11
 249 135 249 135 196.5 135.5 c 128,-1,12
 144 136 144 136 99 108 c 1,13,-1
 196 24 l 1,9,-1
168 0 m 1,14,-1
 71 85 l 1,15,16
 36 47 36 47 36 0 c 128,-1,17
 36 -47 36 -47 71 -85 c 1,18,-1
 168 0 l 1,14,-1
223 0 m 1,19,-1
 321 -85 l 1,20,21
 355 -48 355 -48 355 0 c 128,-1,22
 355 48 355 48 321 85 c 1,23,-1
 223 0 l 1,19,-1
196 -24 m 1,24,-1
 99 -108 l 1,25,26
 144 -135 144 -135 197 -135.5 c 128,-1,27
 250 -136 250 -136 292 -108 c 1,28,-1
 196 -24 l 1,24,-1
EndSplineSet
EndChar

StartChar: uniE270
Encoding: 57968 57968 182
GlifName: uniE_270
Width: 173
Flags: W
HStem: 126 31<52 133>
VStem: -26 50<111 435> -15 30<-143 100 111 187> 107 99<-14 119>
LayerCount: 2
Fore
SplineSet
16 77 m 1,0,-1
 13 -143 l 1,1,2
 44 -119 44 -119 75.5 -53 c 128,-1,3
 107 13 107 13 107 62 c 0,4,5
 107 126 107 126 74 126 c 0,6,7
 56 126 56 126 44 114.5 c 128,-1,8
 32 103 32 103 16 77 c 1,0,-1
23 435 m 1,9,-1
 18 111 l 1,10,11
 45 138 45 138 62.5 147.5 c 128,-1,12
 80 157 80 157 115 157 c 128,-1,13
 150 157 150 157 178 126.5 c 128,-1,14
 206 96 206 96 206 50 c 128,-1,15
 206 4 206 4 154 -54 c 0,16,17
 132 -78 132 -78 84 -121.5 c 128,-1,18
 36 -165 36 -165 23.5 -177.5 c 128,-1,19
 11 -190 11 -190 5 -190 c 2,20,-1
 -5 -190 l 2,21,22
 -15 -190 -15 -190 -15 -181 c 2,23,-1
 -26 435 l 1,24,25
 -44 428 -44 428 -58.5 418.5 c 128,-1,26
 -73 409 -73 409 -79 409 c 0,27,28
 -95 409 -95 409 -95 425 c 0,29,30
 -95 431 -95 431 -90 438 c 0,31,32
 -41 515 -41 515 -18 618 c 0,33,34
 -14 639 -14 639 0 639.5 c 128,-1,35
 14 640 14 640 18 622 c 0,36,37
 39 519 39 519 91 438 c 0,38,39
 96 428 96 428 96 425 c 0,40,41
 96 409 96 409 80 409 c 0,42,43
 73 409 73 409 62 415.5 c 128,-1,44
 51 422 51 422 23 435 c 1,9,-1
EndSplineSet
EndChar

StartChar: uniE241
Encoding: 57921 57921 183
GlifName: uniE_241
Width: 299
Flags: W
HStem: 0 21G<0 31>
VStem: 0 31<0 83> 258 42<434 627>
LayerCount: 2
Fore
SplineSet
228 724 m 4,0,1
 250 724 250 724 275 651 c 132,-1,2
 300 578 300 578 300 517.5 c 132,-1,3
 300 457 300 457 272 400.5 c 132,-1,4
 244 344 244 344 205 301 c 6,5,-1
 125 211 l 6,6,7
 88 168 88 168 59.5 112.5 c 132,-1,8
 31 57 31 57 31 0 c 5,9,-1
 0 0 l 5,10,-1
 0 250 l 5,11,-1
 31 250 l 5,12,13
 195 354 195 354 237 434 c 4,14,15
 258 473 258 473 258 513 c 4,16,17
 258 606 258 606 204 697 c 5,18,-1
 204 701 l 6,19,20
 204 710 204 710 211 717 c 132,-1,21
 218 724 218 724 228 724 c 4,0,1
EndSplineSet
EndChar

StartChar: uniE087
Encoding: 57479 57479 184
GlifName: uniE_087
Width: 336
Flags: W
HStem: 0 21G<7 22> 103 92<167 269> 160 90<64 137>
VStem: 0 29<0 142 207 250>
LayerCount: 2
Fore
SplineSet
39 -253 m 0,0,1
 26 -253 26 -253 26 -241 c 0,2,3
 26 -238 26 -238 27 -236 c 0,4,5
 87 -96 87 -96 243 119 c 1,6,7
 216 104 216 104 184 103 c 0,8,9
 150 103 150 103 120 131.5 c 128,-1,10
 90 160 90 160 71.5 160 c 128,-1,11
 53 160 53 160 41 142.5 c 128,-1,12
 29 125 29 125 29 90 c 2,13,-1
 29 15 l 2,14,15
 29 0 29 0 14.5 0 c 128,-1,16
 0 0 0 0 0 15 c 2,17,-1
 0 235 l 2,18,19
 0 250 0 250 13.5 250 c 128,-1,20
 27 250 27 250 29 235 c 1,21,-1
 29 221 l 2,22,23
 29 209 29 209 36 207 c 128,-1,24
 43 205 43 205 44 206 c 0,25,26
 76 250 76 250 119 250 c 128,-1,27
 162 250 162 250 194 222 c 128,-1,28
 226 194 226 194 249 194 c 0,29,30
 291 194 291 194 328 236 c 0,31,32
 340 250 340 250 345.5 250 c 128,-1,33
 351 250 351 250 355.5 245.5 c 128,-1,34
 360 241 360 241 360 237 c 128,-1,35
 360 233 360 233 335.5 194.5 c 128,-1,36
 311 156 311 156 279 106 c 128,-1,37
 247 56 247 56 225 -18 c 0,38,39
 200 -90 200 -90 199.5 -143.5 c 128,-1,40
 199 -197 199 -197 205 -221 c 0,41,42
 205 -229 205 -229 207 -238 c 1,43,-1
 207 -241 l 2,44,45
 207 -253 207 -253 194 -253 c 1,46,-1
 166 -245 l 2,47,48
 135 -237 135 -237 116.5 -237 c 128,-1,49
 98 -237 98 -237 69 -245 c 128,-1,50
 40 -253 40 -253 39 -253 c 0,0,1
EndSplineSet
EndChar

StartChar: uniE460
Encoding: 58464 58464 185
GlifName: uniE_460
Width: 551
Flags: W
VStem: -15 58<-464 -138 -77 78>
LayerCount: 2
Fore
SplineSet
295 0 m 128,-1,1
 295 -9 295 -9 287 -14 c 2,2,-1
 43 -138 l 1,3,-1
 43 -449 l 2,4,5
 43 -464 43 -464 27 -464 c 2,6,-1
 0 -464 l 2,7,8
 -15 -464 -15 -464 -15 -449 c 2,9,-1
 -15 142 l 2,10,11
 -15 159 -15 159 -4 158 c 0,12,13
 0 158 0 158 8 155 c 2,14,-1
 287 14 l 2,15,0
 295 9 295 9 295 0 c 128,-1,1
43 -77 m 1,16,-1
 194 0 l 1,17,-1
 43 78 l 1,18,-1
 43 -77 l 1,16,-1
EndSplineSet
EndChar

StartChar: uniE0BB
Encoding: 57531 57531 186
GlifName: uniE_0B_B_
Width: 494
Flags: W
HStem: -112 43<84 411>
LayerCount: 2
Fore
SplineSet
84 -69 m 1,0,-1
 411 -69 l 1,1,-1
 248 63 l 1,2,-1
 84 -69 l 1,0,-1
22 -112 m 2,3,4
 13 -112 13 -112 6.5 -106 c 128,-1,5
 0 -100 0 -100 0 -90 c 128,-1,6
 0 -80 0 -80 8 -74 c 2,7,-1
 234 108 l 2,8,9
 238 112 238 112 247.5 112 c 128,-1,10
 257 112 257 112 261 108 c 2,11,-1
 487 -74 l 2,12,13
 495 -80 495 -80 495 -90 c 128,-1,14
 495 -100 495 -100 488.5 -106 c 128,-1,15
 482 -112 482 -112 473 -112 c 2,16,-1
 22 -112 l 2,3,4
EndSplineSet
EndChar

StartChar: uniE8C9
Encoding: 59593 59593 188
GlifName: uniE_8C_9
Width: 265
Flags: W
HStem: 0 33<-234 234> 250 33<-234 234> 500 33<-234 234> 750 33<-234 234>
VStem: -266 31<33 250 283 500 533 750> 234 31<33 250 283 500 533 750>
LayerCount: 2
Fore
SplineSet
250 783 m 2,0,1
 266 783 266 783 266 766 c 2,2,-1
 266 16 l 2,3,4
 266 0 266 0 250 0 c 2,5,-1
 -250 0 l 2,6,7
 -266 0 -266 0 -266 16 c 2,8,-1
 -266 766 l 2,9,10
 -266 784 -266 784 -250 783 c 2,11,-1
 250 783 l 2,0,1
234 750 m 1,12,-1
 -234 750 l 1,13,-1
 -234 533 l 1,14,-1
 234 533 l 1,15,-1
 234 750 l 1,12,-1
234 500 m 1,16,-1
 -234 500 l 1,17,-1
 -234 283 l 1,18,-1
 234 283 l 1,19,-1
 234 500 l 1,16,-1
234 250 m 1,20,-1
 -234 250 l 1,21,-1
 -234 33 l 1,22,-1
 234 33 l 1,23,-1
 234 250 l 1,20,-1
EndSplineSet
EndChar

StartChar: uniEAAD
Encoding: 60077 60077 189
GlifName: uniE_A_A_D_
Width: 257
VWidth: 1024
Flags: W
HStem: -62 328
VStem: -89 314
LayerCount: 2
Fore
SplineSet
-59 42 m 2,0,1
 -65 36 -65 36 -72.5 36 c 128,-1,2
 -80 36 -80 36 -84.5 41.5 c 128,-1,3
 -89 47 -89 47 -89 52.5 c 128,-1,4
 -89 58 -89 58 -83 64 c 2,5,-1
 11 152 l 2,6,7
 26 167 26 167 53 172 c 1,8,-1
 15 252 l 2,9,10
 12 257 12 257 13 260 c 0,11,12
 13 266 13 266 20 266 c 128,-1,13
 27 266 27 266 57 234 c 128,-1,14
 87 202 87 202 136.5 161 c 128,-1,15
 186 120 186 120 223 108 c 0,16,17
 225 108 225 108 225 102.5 c 128,-1,18
 225 97 225 97 223 96 c 0,19,20
 182 83 182 83 134.5 42.5 c 128,-1,21
 87 2 87 2 57 -30 c 128,-1,22
 27 -62 27 -62 20.5 -62 c 128,-1,23
 14 -62 14 -62 13.5 -59 c 128,-1,24
 13 -56 13 -56 15 -48 c 1,25,-1
 59 46 l 1,26,27
 58 47 58 47 55 49 c 128,-1,28
 52 51 52 51 49 53.5 c 128,-1,29
 46 56 46 56 43 58.5 c 128,-1,30
 40 61 40 61 35.5 65 c 128,-1,31
 31 69 31 69 28.5 71 c 128,-1,32
 26 73 26 73 25 74 c 0,33,34
 11 88 11 88 -5 88 c 128,-1,35
 -21 88 -21 88 -33 74 c 2,36,-1
 -59 42 l 2,0,1
EndSplineSet
EndChar

StartChar: uniE085
Encoding: 57477 57477 190
GlifName: uniE_085
Width: 336
Flags: W
HStem: -250 23<105 197> 42 29<97 201> 141 109<58 187>
VStem: 0 91<-198 -124> 29 28<28 140> 233 115<-166 0>
LayerCount: 2
Fore
SplineSet
45 250 m 0,0,1
 53 250 53 250 62 247 c 1,2,3
 62 247 62 247 107.5 242 c 130,-1,4
 153 237 153 237 188.5 237 c 128,-1,5
 224 237 224 237 275 243.5 c 128,-1,6
 326 250 326 250 328 250 c 0,7,8
 341 250 341 250 341 241 c 0,9,10
 341 237 341 237 338 234 c 0,11,12
 246 142 246 142 75 141 c 0,13,14
 69 141 69 141 63.5 136 c 128,-1,15
 58 131 58 131 58 124 c 2,16,-1
 58 28 l 1,17,18
 101 71 101 71 163 71 c 0,19,20
 252 71 252 71 300.5 31 c 128,-1,21
 349 -9 349 -9 349 -83.5 c 128,-1,22
 349 -158 349 -158 294 -205 c 0,23,24
 238 -250 238 -250 167 -250 c 128,-1,25
 96 -250 96 -250 48 -220 c 128,-1,26
 0 -190 0 -190 0 -137 c 0,27,28
 0 -112 0 -112 20 -90 c 0,29,30
 41 -71 41 -71 67.5 -71 c 128,-1,31
 94 -71 94 -71 111 -91 c 0,32,33
 131 -110 131 -110 131 -137 c 0,34,35
 131 -150 131 -150 111 -164 c 0,36,37
 90 -178 90 -178 91 -190 c 0,38,39
 91 -226 91 -226 162 -226.5 c 128,-1,40
 233 -227 233 -227 233 -92.5 c 128,-1,41
 233 42 233 42 163 42 c 0,42,43
 100 42 100 42 74 17 c 0,44,45
 65 6 65 6 56 -1.5 c 128,-1,46
 47 -9 47 -9 44 -9 c 0,47,48
 29 -9 29 -9 29 6 c 2,49,-1
 29 234 l 2,50,51
 29 250 29 250 45 250 c 0,0,1
EndSplineSet
EndChar

StartChar: uniE0DB
Encoding: 57563 57563 191
GlifName: uniE_0D_B_
Width: 368
Flags: W
HStem: -137 273
LayerCount: 2
Fore
SplineSet
188 137 m 1,0,-1
 260 125 l 1,1,2
 272 125 272 125 296 131.5 c 128,-1,3
 320 138 320 138 335 138 c 128,-1,4
 350 138 350 138 359.5 124.5 c 128,-1,5
 369 111 369 111 369 95 c 128,-1,6
 369 79 369 79 330 45 c 128,-1,7
 291 11 291 11 284 -1.5 c 128,-1,8
 277 -14 277 -14 258 -56 c 128,-1,9
 239 -98 239 -98 222.5 -117.5 c 128,-1,10
 206 -137 206 -137 180 -137 c 1,11,-1
 107 -125 l 1,12,13
 95 -125 95 -125 71.5 -131.5 c 128,-1,14
 48 -138 48 -138 33.5 -138 c 128,-1,15
 19 -138 19 -138 9 -125 c 0,16,17
 0 -110 0 -110 0 -99 c 0,18,19
 0 -78 0 -78 39 -44.5 c 128,-1,20
 78 -11 78 -11 88 6 c 128,-1,21
 98 23 98 23 109 54 c 0,22,23
 141 137 141 137 188 137 c 1,0,-1
EndSplineSet
EndChar

StartChar: uniE4E4
Encoding: 58596 58596 192
GlifName: uniE_4E_4
Width: 375
Flags: W
HStem: 0 156<7 365 10 365>
LayerCount: 2
Fore
SplineSet
365 0 m 2,0,-1
 10 0 l 2,1,2
 0 0 0 0 0 10 c 2,3,-1
 0 146 l 2,4,5
 0 156 0 156 10 156 c 2,6,-1
 365 156 l 2,7,8
 375 156 375 156 375 146 c 2,9,-1
 375 10 l 2,10,11
 375 0 375 0 365 0 c 2,0,-1
EndSplineSet
EndChar

StartChar: uniE006
Encoding: 57350 57350 193
GlifName: uniE_006
Width: 455
Flags: W
HStem: -109 109<293 448>
LayerCount: 2
Fore
SplineSet
16 -380 m 0,0,1
 0 -380 0 -380 0 -364 c 0,2,3
 0 -359 0 -359 4.5 -353.5 c 128,-1,4
 9 -348 9 -348 44.5 -293.5 c 128,-1,5
 80 -239 80 -239 98 -212.5 c 128,-1,6
 116 -186 116 -186 158.5 -134.5 c 128,-1,7
 201 -83 201 -83 230 -61 c 0,8,9
 307 0 307 0 382 0 c 2,10,-1
 455 0 l 1,11,-1
 455 -85 l 2,12,13
 455 -96 455 -96 448 -102.5 c 128,-1,14
 441 -109 441 -109 431 -109 c 2,15,-1
 382 -109 l 2,16,17
 273 -109 273 -109 179 -193 c 0,18,19
 101 -262 101 -262 28 -373 c 0,20,21
 25 -380 25 -380 16 -380 c 0,0,1
EndSplineSet
EndChar

StartChar: uniE662
Encoding: 58978 58978 194
GlifName: uniE_662
Width: 250
Flags: W
HStem: 0 21G<15 23 227 235> 254 38<71.1419 178.858>
VStem: 0 38<5.67249 220.596> 212 38<5.67249 220.596>
LayerCount: 2
Fore
SplineSet
125 254 m 128,-1,1
 89 254 89 254 63.5 228.5 c 128,-1,2
 38 203 38 203 38 167 c 2,3,-1
 38 19 l 2,4,5
 38 11 38 11 32.5 5.5 c 128,-1,6
 27 0 27 0 19 0 c 128,-1,7
 11 0 11 0 5.5 5.5 c 128,-1,8
 0 11 0 11 0 19 c 2,9,-1
 0 167 l 2,10,11
 0 219 0 219 36.5 255.5 c 128,-1,12
 73 292 73 292 125 292 c 128,-1,13
 177 292 177 292 213.5 255.5 c 128,-1,14
 250 219 250 219 250 167 c 2,15,-1
 250 19 l 2,16,17
 250 11 250 11 244.5 5.5 c 128,-1,18
 239 0 239 0 231 0 c 128,-1,19
 223 0 223 0 217.5 5.5 c 128,-1,20
 212 11 212 11 212 19 c 2,21,-1
 212 167 l 2,22,23
 212 203 212 203 186.5 228.5 c 128,-1,0
 161 254 161 254 125 254 c 128,-1,1
EndSplineSet
EndChar

StartChar: uniE661
Encoding: 58977 58977 195
GlifName: uniE_661
Width: 250
Flags: W
HStem: 0 38<71.1419 178.858>
VStem: 0 38<71.4043 286.328> 212 38<71.4043 286.328>
LayerCount: 2
Fore
SplineSet
125 38 m 128,-1,1
 161 38 161 38 186.5 63.5 c 128,-1,2
 212 89 212 89 212 125 c 2,3,-1
 212 273 l 2,4,5
 212 281 212 281 217.5 286.5 c 128,-1,6
 223 292 223 292 231 292 c 128,-1,7
 239 292 239 292 244.5 286.5 c 128,-1,8
 250 281 250 281 250 273 c 2,9,-1
 250 125 l 2,10,11
 250 73 250 73 213.5 36.5 c 128,-1,12
 177 0 177 0 125 0 c 128,-1,13
 73 0 73 0 36.5 36.5 c 128,-1,14
 0 73 0 73 0 125 c 2,15,-1
 0 273 l 2,16,17
 0 281 0 281 5.5 286.5 c 128,-1,18
 11 292 11 292 19 292 c 128,-1,19
 27 292 27 292 32.5 286.5 c 128,-1,20
 38 281 38 281 38 273 c 2,21,-1
 38 125 l 2,22,23
 38 89 38 89 63.5 63.5 c 128,-1,0
 89 38 89 38 125 38 c 128,-1,1
EndSplineSet
EndChar

StartChar: uniE521
Encoding: 58657 58657 196
GlifName: uniE_521
Width: 431
Flags: W
HStem: 0 21G<17 80 148 211> 221 60<59 114 179 223 298 344>
VStem: 281 86<12 90> 320 83<175 221>
LayerCount: 2
Fore
SplineSet
-14 135 m 2,0,1
 -14 135 -14 135 -14 137 c 1,2,3
 -11 144 -11 144 -4 165.5 c 128,-1,4
 3 187 3 187 36 233.5 c 128,-1,5
 69 280 69 280 113 280 c 0,6,7
 147 280 147 280 154 229 c 1,8,9
 188 281 188 281 229 280 c 0,10,11
 246 280 246 280 259 265 c 0,12,13
 271 248 271 248 273 227 c 1,14,15
 305 281 305 281 346 280 c 0,16,17
 368 280 368 280 385.5 261 c 128,-1,18
 403 242 403 242 403 217 c 0,19,20
 403 213 403 213 401 203 c 2,21,22
 401 202 401 202 368 62 c 2,23,24
 367 61 367 61 367 55.5 c 128,-1,25
 367 50 367 50 375 50 c 128,-1,26
 383 50 383 50 404 66 c 2,27,-1
 426 83 l 1,28,29
 432 83 432 83 432 78.5 c 128,-1,30
 432 74 432 74 429 71 c 0,31,32
 383 27 383 27 360.5 11.5 c 128,-1,33
 338 -4 338 -4 317.5 -4 c 128,-1,34
 297 -4 297 -4 290 5 c 0,35,36
 281 12 281 12 281 21 c 128,-1,37
 281 30 281 30 282 35 c 2,38,-1
 318 190 l 2,39,40
 320 196 320 196 320 208.5 c 128,-1,41
 320 221 320 221 308.5 221 c 128,-1,42
 297 221 297 221 285 211 c 128,-1,43
 273 201 273 201 271 190 c 2,44,-1
 219 10 l 2,45,46
 216 0 216 0 207 0 c 2,47,-1
 153 0 l 2,48,49
 143 0 143 0 146 10 c 2,50,-1
 197 190 l 2,51,52
 200 199 200 199 200 205 c 0,53,54
 200 221 200 221 188 221 c 128,-1,55
 176 221 176 221 165 212 c 128,-1,56
 154 203 154 203 149 190 c 2,57,-1
 88 10 l 2,58,59
 85 0 85 0 75 0 c 2,60,-1
 21 0 l 2,61,62
 12 0 12 0 16 10 c 2,63,-1
 77 190 l 2,64,65
 80 201 80 201 80 204 c 0,66,67
 80 221 80 221 66 221 c 0,68,69
 46 221 46 221 29.5 192 c 128,-1,70
 13 163 13 163 5 138 c 0,71,72
 2 129 2 129 -8 129 c 0,73,74
 -14 131 -14 131 -14 135 c 2,0,1
EndSplineSet
EndChar

StartChar: uniEB78
Encoding: 60280 60280 197
GlifName: uniE_B_78
Width: 250
Flags: W
HStem: 0 260
VStem: 115 20<196 260>
LayerCount: 2
Fore
SplineSet
125 260 m 128,-1,1
 135 260 135 260 135 250 c 0,2,3
 135 205 135 205 173 125 c 128,-1,4
 211 45 211 45 246 18 c 0,5,6
 250 15 250 15 250 10 c 0,7,8
 250 0 250 0 240 0 c 1,9,10
 230 4 230 4 186.5 8.5 c 128,-1,11
 143 13 143 13 121.5 13 c 128,-1,12
 100 13 100 13 60.5 8.5 c 128,-1,13
 21 4 21 4 17.5 2 c 128,-1,14
 14 0 14 0 10 0 c 0,15,16
 0 0 0 0 0 10 c 0,17,18
 0 15 0 15 4 18 c 0,19,20
 39 45 39 45 77 125 c 128,-1,21
 115 205 115 205 115 250 c 0,22,0
 115 260 115 260 125 260 c 128,-1,1
EndSplineSet
EndChar

StartChar: uniE4C1
Encoding: 58561 58561 198
GlifName: uniE_4C_1
Width: 642
VWidth: 976
Flags: W
HStem: -353 95<217 425> -109 126<277 366>
VStem: -1 34<-62 17> 258 127<-90 -2> 609 34<-62 17>
CounterMasks: 1 38
LayerCount: 2
Fore
SplineSet
258 -46 m 128,-1,1
 258 -20 258 -20 276.5 -1.5 c 128,-1,2
 295 17 295 17 321.5 17 c 128,-1,3
 348 17 348 17 366.5 -1.5 c 128,-1,4
 385 -20 385 -20 385 -46 c 128,-1,5
 385 -72 385 -72 366.5 -90.5 c 128,-1,6
 348 -109 348 -109 321.5 -109 c 128,-1,7
 295 -109 295 -109 276.5 -90.5 c 128,-1,0
 258 -72 258 -72 258 -46 c 128,-1,1
321.5 -353 m 128,-1,9
 263 -353 263 -353 212 -329 c 128,-1,10
 161 -305 161 -305 127.5 -267.5 c 128,-1,11
 94 -230 94 -230 67.5 -188 c 128,-1,12
 41 -146 41 -146 27 -104.5 c 128,-1,13
 13 -63 13 -63 6 -35.5 c 128,-1,14
 -1 -8 -1 -8 -1 3 c 0,15,16
 -1 17 -1 17 16 17 c 0,17,18
 31 17 31 17 33 0 c 0,19,20
 53 -110 53 -110 133.5 -184 c 128,-1,21
 214 -258 214 -258 321.5 -258 c 128,-1,22
 429 -258 429 -258 509.5 -184 c 128,-1,23
 590 -110 590 -110 609 0 c 0,24,25
 612 17 612 17 627 17 c 0,26,27
 644 17 644 17 644 3 c 0,28,29
 644 -8 644 -8 637 -35.5 c 128,-1,30
 630 -63 630 -63 616 -104.5 c 128,-1,31
 602 -146 602 -146 575.5 -188 c 128,-1,32
 549 -230 549 -230 515 -267.5 c 128,-1,33
 481 -305 481 -305 430.5 -329 c 128,-1,8
 380 -353 380 -353 321.5 -353 c 128,-1,9
EndSplineSet
EndChar

StartChar: uniE8C6
Encoding: 59590 59590 199
GlifName: uniE_8C_6
Width: 390
Flags: W
HStem: 0 23<-91 91> 250 23<-333 333> 500 23<-333 333> 750 23<-91 91>
VStem: -391 32<280 495> 358 32<280 495>
LayerCount: 2
Fore
SplineSet
0 773 m 128,-1,1
 160 773 160 773 275.5 659.5 c 128,-1,2
 391 546 391 546 391 385.5 c 128,-1,3
 391 225 391 225 276 113 c 0,4,5
 163 0 163 0 0 0 c 128,-1,6
 -163 0 -163 0 -277 113.5 c 128,-1,7
 -391 227 -391 227 -391 386.5 c 128,-1,8
 -391 546 -391 546 -275.5 659.5 c 128,-1,0
 -160 773 -160 773 0 773 c 128,-1,1
333 250 m 1,9,-1
 -333 250 l 1,10,11
 -295 152 -295 152 -203 86 c 0,12,13
 -111 24 -111 24 0 23.5 c 128,-1,14
 111 23 111 23 203 86 c 0,15,16
 295 152 295 152 333 250 c 1,9,-1
-341 500 m 1,17,18
 -359 444 -359 444 -358.5 383.5 c 128,-1,19
 -358 323 -358 323 -341 273 c 1,20,-1
 341 273 l 1,21,22
 359 329 359 329 358.5 389.5 c 128,-1,23
 358 450 358 450 341 500 c 1,24,-1
 -341 500 l 1,17,18
-333 523 m 1,25,-1
 333 523 l 1,26,27
 294 624 294 624 203 688 c 0,28,29
 111 750 111 750 0 750 c 128,-1,30
 -111 750 -111 750 -203 688 c 0,31,32
 -295 622 -295 622 -333 523 c 1,25,-1
EndSplineSet
EndChar

StartChar: uniE0A7
Encoding: 57511 57511 200
GlifName: uniE_0A_7
Width: 428
Flags: W
HStem: -147 295
LayerCount: 2
Fore
SplineSet
223 44 m 2,0,1
 219 42 219 42 215 42 c 128,-1,2
 211 42 211 42 207 44 c 2,3,-1
 99 117 l 1,4,-1
 42 78 l 1,5,-1
 139 12 l 2,6,7
 147 6 147 6 146.5 0 c 128,-1,8
 146 -6 146 -6 139 -12 c 2,9,-1
 42 -78 l 1,10,-1
 99 -117 l 1,11,-1
 207 -44 l 2,12,13
 211 -42 211 -42 215 -42 c 128,-1,14
 219 -42 219 -42 223 -44 c 2,15,-1
 330 -117 l 1,16,-1
 387 -78 l 1,17,-1
 291 -12 l 2,18,19
 283 -6 283 -6 283 0 c 128,-1,20
 283 6 283 6 291 12 c 2,21,-1
 387 78 l 1,22,-1
 330 117 l 1,23,-1
 223 44 l 2,0,1
215 75 m 1,24,-1
 322 147 l 2,25,26
 325 150 325 150 330.5 150 c 128,-1,27
 336 150 336 150 339 147 c 2,28,-1
 422 91 l 2,29,30
 429 87 429 87 429 78.5 c 128,-1,31
 429 70 429 70 422 66 c 2,32,-1
 325 0 l 1,33,-1
 422 -66 l 2,34,35
 429 -70 429 -70 429 -78.5 c 128,-1,36
 429 -87 429 -87 422 -91 c 2,37,-1
 339 -147 l 2,38,39
 336 -150 336 -150 330.5 -150 c 128,-1,40
 325 -150 325 -150 322 -147 c 2,41,-1
 215 -75 l 1,42,-1
 107 -147 l 2,43,44
 104 -150 104 -150 98.5 -150 c 128,-1,45
 93 -150 93 -150 90 -147 c 2,46,-1
 7 -91 l 2,47,48
 0 -87 0 -87 0 -78.5 c 128,-1,49
 0 -70 0 -70 7 -66 c 2,50,-1
 104 0 l 1,51,-1
 7 66 l 2,52,53
 0 70 0 70 0 78.5 c 128,-1,54
 0 87 0 87 7 91 c 2,55,-1
 90 147 l 2,56,57
 93 150 93 150 98.5 150 c 128,-1,58
 104 150 104 150 107 147 c 2,59,-1
 215 75 l 1,24,-1
EndSplineSet
EndChar

StartChar: uniE4CE
Encoding: 58574 58574 202
GlifName: uniE_4C_E_
Width: 115
Flags: W
HStem: 0 311<15 58>
VStem: 53 62<121 247>
LayerCount: 2
Fore
SplineSet
0 16 m 0,0,1
 0 18 0 18 13 39 c 128,-1,2
 26 60 26 60 39.5 94.5 c 128,-1,3
 53 129 53 129 53 167.5 c 128,-1,4
 53 206 53 206 36 235 c 0,5,6
 20 268 20 268 20.5 277.5 c 128,-1,7
 21 287 21 287 31.5 299 c 128,-1,8
 42 311 42 311 58 311 c 0,9,10
 85 311 85 311 100 277.5 c 128,-1,11
 115 244 115 244 115 212 c 0,12,13
 115 132 115 132 28 7 c 0,14,15
 24 0 24 0 15 0 c 0,16,17
 0 0 0 0 0 16 c 0,0,1
EndSplineSet
EndChar

StartChar: uniE59D
Encoding: 58781 58781 205
GlifName: uniE_59D_
Width: 208
VWidth: 999
Flags: W
HStem: 0 253
VStem: 3 254
LayerCount: 2
Fore
SplineSet
166 10 m 2,0,-1
 67 129 l 1,1,-1
 36 82 l 2,2,3
 30 73 30 73 21 73 c 128,-1,4
 12 73 12 73 6 79 c 128,-1,5
 0 85 0 85 0 92 c 128,-1,6
 0 99 0 99 3 104 c 2,7,-1
 96 243 l 2,8,9
 103 253 103 253 112.5 253 c 128,-1,10
 122 253 122 253 128 246 c 2,11,-1
 257 100 l 1,12,-1
 198 9 l 2,13,14
 192 0 192 0 183 0 c 128,-1,15
 174 0 174 0 166 10 c 2,0,-1
EndSplineSet
EndChar

StartChar: uniE050
Encoding: 57424 57424 206
GlifName: uniE_050
Width: 625
Flags: W
HStem: -620 42<185 327> -521 193<143 229> -256 42<227 409> 147 109<282 325 392 463>
VStem: 0 72<-22 147> 63 202<-487 -368> 169 59<-32 95> 193 47<652 876> 418 70<772 948> 419 40<-473 -248> 561 69<-104 47>
LayerCount: 2
Fore
SplineSet
419 -321 m 1,0,-1
 419 -300 l 1,1,2
 418 -283 418 -283 414 -248 c 1,3,4
 365 -256 365 -256 327 -256 c 0,5,6
 190 -256 190 -256 95 -148 c 128,-1,7
 0 -40 0 -40 0 109 c 0,8,9
 0 149 0 149 15.5 205.5 c 128,-1,10
 31 262 31 262 44.5 281 c 128,-1,11
 58 300 58 300 84 348 c 0,12,13
 92 363 92 363 135 412 c 0,14,15
 143 423 143 423 148.5 430 c 128,-1,16
 154 437 154 437 167.5 454.5 c 128,-1,17
 181 472 181 472 196 487 c 128,-1,18
 211 502 211 502 222.5 516 c 128,-1,19
 234 530 234 530 244 540 c 1,20,21
 209 656 209 656 201 718.5 c 128,-1,22
 193 781 193 781 193 872 c 128,-1,23
 193 963 193 963 232 1037 c 0,24,25
 270 1114 270 1114 339 1163 c 0,26,27
 343 1166 343 1166 349 1166 c 128,-1,28
 355 1166 355 1166 358 1163 c 0,29,30
 411 1100 411 1100 449.5 998 c 128,-1,31
 488 896 488 896 488 808 c 128,-1,32
 488 720 488 720 443 638 c 0,33,34
 392 551 392 551 312 458 c 1,35,36
 333 394 333 394 367 256 c 1,37,-1
 373 256 l 1,38,39
 377 257 377 257 380 257 c 0,40,41
 490 257 490 257 560 179.5 c 128,-1,42
 630 102 630 102 630 0 c 0,43,44
 630 -126 630 -126 525 -203 c 0,45,46
 495 -225 495 -225 454 -238 c 1,47,48
 459 -301 459 -301 459 -322.5 c 128,-1,49
 459 -344 459 -344 457 -397 c 0,50,51
 456 -489 456 -489 394.5 -554.5 c 128,-1,52
 333 -620 333 -620 254 -620 c 128,-1,53
 175 -620 175 -620 119 -564 c 128,-1,54
 63 -508 63 -508 63 -428 c 0,55,56
 63 -386 63 -386 96 -356 c 0,57,58
 129 -327 129 -327 170.5 -327 c 128,-1,59
 212 -327 212 -327 238 -357 c 0,60,61
 265 -385 265 -385 265.5 -425.5 c 128,-1,62
 266 -466 266 -466 238.5 -493.5 c 128,-1,63
 211 -521 211 -521 173 -521 c 0,64,65
 157 -521 157 -521 143 -515 c 1,66,67
 186 -578 186 -578 253 -578 c 128,-1,68
 320 -578 320 -578 368 -522.5 c 128,-1,69
 416 -467 416 -467 416 -392 c 1,70,-1
 419 -321 l 1,0,-1
450 -198 m 1,71,72
 501 -179 501 -179 531 -132 c 128,-1,73
 561 -85 561 -85 561 -38 c 0,74,75
 561 31 561 31 513 86 c 128,-1,76
 465 141 465 141 392 147 c 1,77,78
 433 -58 433 -58 450 -198 c 1,71,72
72 27 m 0,79,80
 72 -70 72 -70 149.5 -142 c 128,-1,81
 227 -214 227 -214 330 -214 c 0,82,83
 371 -214 371 -214 410 -208 c 1,84,85
 394 -60 394 -60 349 147 c 1,86,87
 291 141 291 141 259.5 107.5 c 128,-1,88
 228 74 228 74 228 31 c 0,89,90
 228 -43 228 -43 307 -89 c 0,91,92
 314 -93 314 -93 313.5 -102 c 128,-1,93
 313 -111 313 -111 307 -118 c 128,-1,94
 301 -125 301 -125 296 -125 c 128,-1,95
 291 -125 291 -125 283 -123 c 0,96,97
 169 -61 169 -61 169 65 c 0,98,99
 169 125 169 125 211 180 c 0,100,101
 255 235 255 235 325 250 c 1,102,103
 298 359 298 359 280 421 c 1,104,105
 146 271 146 271 114 198 c 0,106,107
 72 104 72 104 72 27 c 0,79,80
398 1021 m 1,108,109
 325 985 325 985 282.5 916.5 c 128,-1,110
 240 848 240 848 240 772.5 c 128,-1,111
 240 697 240 697 275 578 c 1,112,113
 345 663 345 663 381.5 737.5 c 128,-1,114
 418 812 418 812 418 885 c 128,-1,115
 418 958 418 958 398 1021 c 1,108,109
EndSplineSet
EndChar

StartChar: uniE4EA
Encoding: 58602 58602 208
GlifName: uniE_4E_A_
Width: 375
Flags: W
HStem: -446 53<3.5 112> -196 53<53.5 161.5> 54 53<104.5 212> 304 53<154.5 261.5> 554 53<205.5 316.5>
LayerCount: 2
Fore
SplineSet
214 705 m 0,0,1
 241 705 241 705 255.5 689.5 c 128,-1,2
 270 674 270 674 272.5 656 c 128,-1,3
 275 638 275 638 282.5 622.5 c 128,-1,4
 290 607 290 607 305 607 c 0,5,6
 313 607 313 607 321 619 c 128,-1,7
 329 631 329 631 334.5 645 c 128,-1,8
 340 659 340 659 348.5 670 c 128,-1,9
 357 681 357 681 365 679 c 0,10,11
 372 678 372 678 375 670 c 1,12,-1
 138 -750 l 1,13,14
 127 -760 127 -760 110 -760 c 0,15,16
 94 -760 94 -760 83 -750 c 1,17,-1
 144 -421 l 1,18,19
 76 -446 76 -446 27 -446 c 0,20,21
 -9 -446 -9 -446 -34.5 -423 c 128,-1,22
 -60 -400 -60 -400 -60 -367 c 0,23,24
 -60 -337 -60 -337 -39 -316 c 128,-1,25
 -18 -295 -18 -295 12 -295 c 0,26,27
 39 -295 39 -295 53.5 -310.5 c 128,-1,28
 68 -326 68 -326 70.5 -344 c 128,-1,29
 73 -362 73 -362 80.5 -377.5 c 128,-1,30
 88 -393 88 -393 103 -393 c 0,31,32
 116 -393 116 -393 138.5 -363 c 128,-1,33
 161 -333 161 -333 163 -317 c 2,34,-1
 190 -172 l 1,35,36
 122 -196 122 -196 77 -196 c 0,37,38
 41 -196 41 -196 15.5 -173 c 128,-1,39
 -10 -150 -10 -150 -10 -117 c 0,40,41
 -10 -87 -10 -87 11 -66 c 128,-1,42
 32 -45 32 -45 62 -45 c 0,43,44
 89 -45 89 -45 103.5 -60.5 c 128,-1,45
 118 -76 118 -76 120.5 -94 c 128,-1,46
 123 -112 123 -112 130.5 -127.5 c 128,-1,47
 138 -143 138 -143 153 -143 c 0,48,49
 165 -143 165 -143 185.5 -114 c 128,-1,50
 206 -85 206 -85 209 -70 c 2,51,-1
 236 77 l 1,52,53
 174 54 174 54 128 54 c 0,54,55
 92 54 92 54 66.5 77 c 128,-1,56
 41 100 41 100 41 133 c 0,57,58
 41 163 41 163 62 184 c 128,-1,59
 83 205 83 205 113 205 c 0,60,61
 140 205 140 205 154.5 189.5 c 128,-1,62
 169 174 169 174 171.5 156 c 128,-1,63
 174 138 174 138 181.5 122.5 c 128,-1,64
 189 107 189 107 204 107 c 0,65,66
 215 107 215 107 233.5 135 c 128,-1,67
 252 163 252 163 255 178 c 2,68,-1
 283 326 l 1,69,70
 221 304 221 304 178 304 c 0,71,72
 142 304 142 304 116.5 327 c 128,-1,73
 91 350 91 350 91 383 c 0,74,75
 91 413 91 413 112 434 c 128,-1,76
 133 455 133 455 163 455 c 0,77,78
 190 455 190 455 204.5 439.5 c 128,-1,79
 219 424 219 424 221.5 406 c 128,-1,80
 224 388 224 388 231.5 372.5 c 128,-1,81
 239 357 239 357 254 357 c 0,82,83
 264 357 264 357 281 384 c 128,-1,84
 298 411 298 411 301 425 c 2,85,-1
 329 576 l 1,86,87
 270 554 270 554 229 554 c 0,88,89
 193 554 193 554 167.5 577 c 128,-1,90
 142 600 142 600 142 633 c 0,91,92
 142 663 142 663 163 684 c 128,-1,93
 184 705 184 705 214 705 c 0,0,1
EndSplineSet
EndChar

StartChar: uniE4C7
Encoding: 58567 58567 210
GlifName: uniE_4C_7
Width: 610
VWidth: 976
Flags: W
HStem: -366 96<33 576> -125 125<258 351>
VStem: 0 33<-271 -0> 242 125<-109 -16> 576 34<-271 -0>
LayerCount: 2
Fore
SplineSet
242 -62.5 m 128,-1,1
 242 -37 242 -37 260.5 -18.5 c 128,-1,2
 279 0 279 0 304.5 0 c 128,-1,3
 330 0 330 0 348.5 -18.5 c 128,-1,4
 367 -37 367 -37 367 -62.5 c 128,-1,5
 367 -88 367 -88 348.5 -106.5 c 128,-1,6
 330 -125 330 -125 304.5 -125 c 128,-1,7
 279 -125 279 -125 260.5 -106.5 c 128,-1,0
 242 -88 242 -88 242 -62.5 c 128,-1,1
8 -366 m 2,8,9
 0 -366 0 -366 0 -357 c 2,10,-1
 0 -17 l 2,11,12
 0 0 0 0 16.5 0 c 128,-1,13
 33 0 33 0 33 -17 c 2,14,-1
 33 -271 l 1,15,-1
 576 -271 l 1,16,-1
 576 -17 l 2,17,18
 576 0 576 0 593 0 c 0,19,20
 611 0 611 0 610 -17 c 2,21,-1
 610 -357 l 2,22,23
 610 -366 610 -366 602 -366 c 2,24,-1
 8 -366 l 2,8,9
EndSplineSet
EndChar

StartChar: uniE524
Encoding: 58660 58660 211
GlifName: uniE_524
Width: 212
Flags: W
HStem: 0 15<48 108> 264 13<124 161>
VStem: 1 39<17 77> 42 57<177 241> 136 57<35 104> 165 48<195 261>
LayerCount: 2
Fore
SplineSet
165 240 m 0,0,1
 165 263 165 263 147 264 c 0,2,3
 126 264 126 264 112.5 247 c 128,-1,4
 99 230 99 230 99 212 c 128,-1,5
 99 194 99 194 113.5 182 c 128,-1,6
 128 170 128 170 145.5 159 c 128,-1,7
 163 148 163 148 177.5 130 c 128,-1,8
 192 112 192 112 192 91 c 0,9,10
 192 50 192 50 158.5 25 c 128,-1,11
 125 0 125 0 86.5 0 c 128,-1,12
 48 0 48 0 24.5 14.5 c 128,-1,13
 1 29 1 29 1 50 c 0,14,15
 1 94 1 94 30 94 c 0,16,17
 43 94 43 94 52 85 c 128,-1,18
 61 76 61 76 61 67 c 128,-1,19
 61 58 61 58 50.5 50 c 128,-1,20
 40 42 40 42 40 37 c 0,21,22
 40 15 40 15 78 15 c 0,23,24
 101 15 101 15 118.5 29 c 0,25,26
 136 42 136 42 136 62 c 0,27,28
 136 94 136 94 89 123 c 128,-1,29
 42 152 42 152 42 182 c 0,30,31
 42 222 42 222 71.5 249 c 128,-1,32
 101 276 101 276 140.5 276 c 128,-1,33
 180 276 180 276 196.5 258.5 c 128,-1,34
 213 241 213 241 213 222 c 128,-1,35
 213 203 213 203 204.5 192 c 128,-1,36
 196 181 196 181 183 181.5 c 128,-1,37
 170 182 170 182 161 187.5 c 128,-1,38
 152 193 152 193 152 198 c 128,-1,39
 152 203 152 203 158.5 215 c 128,-1,40
 165 227 165 227 165 240 c 0,0,1
EndSplineSet
EndChar

StartChar: uniE446
Encoding: 58438 58438 215
GlifName: uniE_446
Width: 284
Flags: W
VStem: 114 39<-367 -188 -104 -50 56 107 192 355>
LayerCount: 2
Fore
SplineSet
114 -188 m 1,0,-1
 71 -205 l 2,1,2
 50 -213 50 -213 50 -194 c 2,3,-1
 50 -154 l 2,4,5
 50 -144 50 -144 67 -137 c 2,6,-1
 114 -118 l 1,7,-1
 114 -50 l 1,8,-1
 21 -86 l 2,9,10
 0 -94 0 -94 0 -74 c 2,11,-1
 0 -15 l 2,12,13
 0 -4 0 -4 18 3 c 2,14,-1
 114 40 l 1,15,-1
 114 107 l 1,16,-1
 71 91 l 2,17,18
 50 83 50 83 50 102 c 2,19,-1
 50 142 l 2,20,21
 50 153 50 153 67 159 c 2,22,-1
 114 178 l 1,23,-1
 114 336 l 2,24,25
 114 356 114 356 133.5 355.5 c 128,-1,26
 153 355 153 355 153 336 c 2,27,-1
 153 192 l 1,28,-1
 203 213 l 1,29,30
 224 219 224 219 225 201 c 2,31,-1
 225 161 l 2,32,33
 225 150 225 150 205 143 c 2,34,-1
 153 122 l 1,35,-1
 153 56 l 1,36,-1
 263 98 l 1,37,38
 284 104 284 104 284 86 c 2,39,-1
 284 26 l 2,40,41
 284 14 284 14 266 8 c 2,42,-1
 153 -35 l 1,43,-1
 153 -104 l 1,44,-1
 203 -84 l 1,45,46
 224 -78 224 -78 225 -95 c 2,47,-1
 225 -135 l 2,48,49
 225 -146 225 -146 205 -153 c 2,50,-1
 153 -174 l 1,51,-1
 153 -348 l 2,52,53
 153 -368 153 -368 133.5 -367.5 c 128,-1,54
 114 -367 114 -367 114 -348 c 2,55,-1
 114 -188 l 1,0,-1
EndSplineSet
EndChar

StartChar: uniE461
Encoding: 58465 58465 216
GlifName: uniE_461
Width: 847
Flags: W
VStem: -15 160<-188 -171 -151 -128 128 188> 88 58<-355 -151 -67 67 151 330> 215 58<-330 -101 -17 17 101 355>
LayerCount: 2
Fore
SplineSet
441 0 m 128,-1,1
 441 -9 441 -9 434 -14 c 1,2,-1
 272 -78 l 1,3,-1
 272 -314 l 2,4,5
 272 -330 272 -330 258 -330 c 2,6,-1
 229 -330 l 2,7,8
 215 -330 215 -330 215 -314 c 2,9,-1
 215 -101 l 1,10,-1
 146 -128 l 1,11,-1
 146 -341 l 2,12,13
 146 -356 146 -356 131 -355 c 2,14,-1
 102 -355 l 2,15,16
 88 -355 88 -355 88 -341 c 2,17,-1
 88 -151 l 1,18,-1
 6 -185 l 2,19,20
 -1 -188 -1 -188 -5 -188 c 0,21,22
 -15 -188 -15 -188 -15 -171 c 2,23,-1
 -15 -143 l 2,24,25
 -15 -132 -15 -132 -6 -129 c 2,26,-1
 88 -91 l 1,27,-1
 88 91 l 1,28,-1
 -5 128 l 2,29,30
 -15 131 -15 131 -15 141 c 2,31,-1
 -15 171 l 2,32,33
 -15 188 -15 188 -5 188 c 0,34,35
 -1 188 -1 188 6 185 c 2,36,-1
 88 151 l 1,37,-1
 88 316 l 2,38,39
 88 330 88 330 102 330 c 2,40,-1
 131 330 l 2,41,42
 146 330 146 330 146 316 c 2,43,-1
 146 128 l 1,44,-1
 215 101 l 1,45,-1
 215 341 l 2,46,47
 215 356 215 356 229 355 c 2,48,-1
 258 355 l 2,49,50
 273 355 273 355 272 341 c 2,51,-1
 272 77 l 1,52,-1
 434 14 l 1,53,0
 441 9 441 9 441 0 c 128,-1,1
146 -67 m 1,54,-1
 215 -40 l 1,55,-1
 215 40 l 1,56,-1
 146 67 l 1,57,-1
 146 -67 l 1,54,-1
272 -17 m 1,58,-1
 314 0 l 1,59,-1
 272 17 l 1,60,-1
 272 -17 l 1,58,-1
EndSplineSet
EndChar

StartChar: uniE049
Encoding: 57417 57417 217
GlifName: uniE_049
Width: 523
Flags: W
HStem: -1 21G<266 273> 102 30<190 255 284 349> 337 29<1 103 190 255 284 349 437 538> 571 30<190 255 284 349>
VStem: 103 88<132 337 366 571> 255 29<-1 102 132 337 366 571 602 704> 349 88<132 337 366 571>
CounterMasks: 1 0e
LayerCount: 2
Fore
SplineSet
284 14 m 2,0,1
 284 6 284 6 279 4 c 0,2,3
 277 -1 277 -1 269.5 -1 c 128,-1,4
 262 -1 262 -1 260 4 c 0,5,6
 255 6 255 6 255 14 c 2,7,-1
 255 102 l 1,8,-1
 112 102 l 2,9,10
 102 102 102 102 103 111 c 2,11,-1
 103 337 l 1,12,-1
 16 337 l 2,13,14
 8 337 8 337 6 342 c 0,15,16
 1 344 1 344 1 351.5 c 128,-1,17
 1 359 1 359 6 361 c 0,18,19
 8 366 8 366 16 366 c 2,20,-1
 103 366 l 1,21,-1
 103 592 l 2,22,23
 103 602 103 602 112 602 c 2,24,-1
 255 602 l 1,25,-1
 255 689 l 2,26,27
 255 697 255 697 260 699 c 0,28,29
 262 704 262 704 269.5 704 c 128,-1,30
 277 704 277 704 279 699 c 0,31,32
 284 697 284 697 284 689 c 2,33,-1
 284 602 l 1,34,-1
 427 602 l 2,35,36
 437 602 437 602 437 592 c 2,37,-1
 437 366 l 1,38,-1
 523 366 l 2,39,40
 531 366 531 366 533 361 c 0,41,42
 538 359 538 359 538 351.5 c 128,-1,43
 538 344 538 344 533 342 c 0,44,45
 531 337 531 337 523 337 c 2,46,-1
 437 337 l 1,47,-1
 437 111 l 2,48,49
 437 101 437 101 427 102 c 2,50,-1
 284 102 l 1,51,-1
 284 14 l 2,0,1
284 366 m 1,52,-1
 349 366 l 1,53,-1
 349 571 l 1,54,-1
 284 571 l 1,55,-1
 284 366 l 1,52,-1
284 337 m 1,56,-1
 284 132 l 1,57,-1
 349 132 l 1,58,-1
 349 337 l 1,59,-1
 284 337 l 1,56,-1
255 366 m 1,60,-1
 255 571 l 1,61,-1
 190 571 l 1,62,-1
 190 366 l 1,63,-1
 255 366 l 1,60,-1
255 337 m 1,64,-1
 190 337 l 1,65,-1
 190 132 l 1,66,-1
 255 132 l 1,67,-1
 255 337 l 1,64,-1
EndSplineSet
EndChar

StartChar: uniE630
Encoding: 58928 58928 218
GlifName: uniE_630
Width: 264
Flags: W
HStem: 0 32<78 187> 232 32<77 117 148 188>
VStem: 0 32<78 187> 117 31<117 232 262 349> 233 32<78 187>
CounterMasks: 1 38
LayerCount: 2
Fore
SplineSet
148 133 m 2,0,1
 148 117 148 117 132.5 117 c 128,-1,2
 117 117 117 117 117 133 c 2,3,-1
 117 232 l 1,4,5
 82 226 82 226 57 198.5 c 128,-1,6
 32 171 32 171 32 131 c 128,-1,7
 32 91 32 91 61.5 61.5 c 128,-1,8
 91 32 91 32 133 32 c 128,-1,9
 175 32 175 32 204 61.5 c 128,-1,10
 233 91 233 91 233 131 c 128,-1,11
 233 171 233 171 208.5 199 c 128,-1,12
 184 227 184 227 148 232 c 1,13,-1
 148 133 l 2,0,1
117 265 m 1,14,-1
 117 333 l 2,15,16
 117 349 117 349 132.5 349 c 128,-1,17
 148 349 148 349 148 333 c 2,18,-1
 148 265 l 1,19,20
 197 259 197 259 231.5 221 c 128,-1,21
 266 183 266 183 266 130 c 128,-1,22
 266 77 266 77 227 38.5 c 128,-1,23
 188 0 188 0 132.5 0 c 128,-1,24
 77 0 77 0 38.5 38.5 c 128,-1,25
 0 77 0 77 0 130 c 128,-1,26
 0 183 0 183 33 221 c 0,27,28
 68 259 68 259 117 265 c 1,14,-1
EndSplineSet
EndChar

StartChar: uniE260
Encoding: 57952 57952 219
GlifName: uniE_260
Width: 187
Flags: W
HStem: 123 30<72 148>
VStem: -4 46<142 460> 9 24<-146 94 106 167> 123 97<-13 116>
LayerCount: 2
Fore
SplineSet
9 -176 m 2,0,-1
 -4 445 l 2,1,2
 -4 460 -4 460 19 460 c 128,-1,3
 42 460 42 460 42 445 c 2,4,-1
 34 106 l 1,5,6
 60 132 60 132 79.5 142.5 c 128,-1,7
 99 153 99 153 131.5 153 c 128,-1,8
 164 153 164 153 192 123 c 128,-1,9
 220 93 220 93 220 48 c 0,10,11
 220 -19 220 -19 78 -139 c 0,12,13
 25 -187 25 -187 23 -187 c 2,14,-1
 18 -187 l 2,15,16
 9 -187 9 -187 9 -176 c 2,0,-1
33 75 m 1,17,-1
 30 -146 l 1,18,19
 60 -118 60 -118 91.5 -52 c 128,-1,20
 123 14 123 14 123 61 c 0,21,22
 123 84 123 84 115 103.5 c 128,-1,23
 107 123 107 123 90.5 123 c 128,-1,24
 74 123 74 123 61 111 c 128,-1,25
 48 99 48 99 33 75 c 1,17,-1
EndSplineSet
EndChar

StartChar: uniE244
Encoding: 57924 57924 220
GlifName: uniE_244
Width: 240
Flags: W
VStem: 0 31<-554 -451 -317 -233 -102 -16 110 196> 182 43<-310 -193> 198 42<-802 -611 -528 -410>
LayerCount: 2
Fore
SplineSet
31 -16 m 5,0,-1
 31 -21 l 6,1,2
 31 -64 31 -64 48 -106 c 4,3,4
 67 -155 67 -155 85 -179 c 4,5,6
 106 -208 106 -208 131 -243 c 4,7,8
 163 -290 163 -290 178 -311 c 5,9,10
 182 -298 182 -298 182 -277 c 4,11,12
 182 -234 182 -234 154 -179.5 c 132,-1,13
 126 -125 126 -125 95.5 -88.5 c 132,-1,14
 65 -52 65 -52 31 -16 c 5,0,-1
31 196 m 5,15,16
 31 109 31 109 100 3 c 6,17,-1
 156 -85 l 5,18,19
 224 -188 224 -188 225 -277 c 4,20,21
 225 -317 225 -317 205 -359 c 5,22,23
 234 -419 234 -419 234 -471.5 c 132,-1,24
 234 -524 234 -524 210 -577 c 5,25,26
 240 -634 240 -634 240 -690 c 4,27,28
 240 -787 240 -787 198 -865 c 4,29,30
 191 -878 191 -878 180.5 -878 c 132,-1,31
 170 -878 170 -878 163 -870 c 132,-1,32
 156 -862 156 -862 156 -854 c 6,33,-1
 156 -851 l 5,34,35
 198 -771 198 -771 198 -690 c 4,36,37
 198 -628 198 -628 151 -569.5 c 132,-1,38
 104 -511 104 -511 31 -451 c 5,39,-1
 31 -554 l 5,40,-1
 0 -554 l 5,41,-1
 0 196 l 5,42,-1
 31 196 l 5,15,16
31 -233 m 5,43,-1
 31 -238 l 6,44,45
 31 -276 31 -276 48 -320.5 c 132,-1,46
 65 -365 65 -365 76 -381 c 132,-1,47
 87 -397 87 -397 128.5 -453.5 c 132,-1,48
 170 -510 170 -510 183 -528 c 5,49,50
 192 -501 192 -501 191.5 -466 c 132,-1,51
 191 -431 191 -431 164.5 -384 c 132,-1,52
 138 -337 138 -337 106 -303.5 c 132,-1,53
 74 -270 74 -270 31 -233 c 5,43,-1
EndSplineSet
EndChar

StartChar: uniE56D
Encoding: 58733 58733 221
GlifName: uniE_56D_
Width: 502
Flags: W
HStem: 0 21G<176.5 186.5 384.5 394.5> 230 20G<107.5 117.5 315.5 325.5>
VStem: 231 40<-41.9985 59 191 291.999>
LayerCount: 2
Fore
SplineSet
466 171 m 1,0,1
 472 180 472 180 482 180 c 0,2,3
 490 180 490 180 496 174 c 128,-1,4
 502 168 502 168 502 160 c 0,5,6
 502 153 502 153 499 149 c 1,7,-1
 406 9 l 1,8,9
 400 0 400 0 389 0 c 0,10,11
 380 0 380 0 374 7 c 2,12,-1
 276 126 l 1,13,-1
 271 119 l 1,14,-1
 271 -22 l 2,15,16
 271 -30 271 -30 265 -36 c 128,-1,17
 259 -42 259 -42 251 -42 c 128,-1,18
 243 -42 243 -42 237 -36 c 128,-1,19
 231 -30 231 -30 231 -22 c 2,20,-1
 231 59 l 1,21,-1
 198 9 l 2,22,23
 192 0 192 0 181 0 c 0,24,25
 172 0 172 0 166 7 c 2,26,-1
 67 126 l 1,27,28
 38 82 38 82 33 76 c 128,-1,29
 28 70 28 70 20 70 c 128,-1,30
 12 70 12 70 6 76 c 128,-1,31
 0 82 0 82 0 90 c 0,32,33
 0 96 0 96 96 241 c 0,34,35
 102 250 102 250 113 250 c 0,36,37
 122 250 122 250 128 243 c 2,38,-1
 226 124 l 1,39,-1
 231 131 l 1,40,-1
 231 272 l 2,41,42
 231 280 231 280 237 286 c 128,-1,43
 243 292 243 292 251 292 c 128,-1,44
 259 292 259 292 265 286 c 128,-1,45
 271 280 271 280 271 272 c 2,46,-1
 271 191 l 1,47,-1
 304 241 l 2,48,49
 310 250 310 250 321 250 c 0,50,51
 330 250 330 250 336 243 c 2,52,-1
 435 124 l 1,53,-1
 466 171 l 1,0,1
EndSplineSet
EndChar

StartChar: uniE08A
Encoding: 57482 57482 222
GlifName: uniE_08A_
Width: 424
Flags: W
HStem: -263 24<191 307> 27 151<306 370> 237 24<192 308>
VStem: 0 137<-122 121> 284 142<49 155> 408 24<-124 -77>
LayerCount: 2
Fore
SplineSet
406 48 m 0,0,1
 388 27 388 27 361 27 c 128,-1,2
 334 27 334 27 309 46 c 128,-1,3
 284 65 284 65 284 98.5 c 128,-1,4
 284 132 284 132 304 155.5 c 128,-1,5
 324 179 324 179 356 179 c 0,6,7
 367 179 367 179 370 178 c 1,8,9
 325 236 325 236 250 237 c 0,10,11
 193 237 193 237 164 205 c 0,12,13
 154 192 154 192 146.5 164 c 128,-1,14
 139 136 139 136 139 113 c 0,15,16
 137 97 137 97 137 51 c 2,17,-1
 137 -51 l 2,18,19
 137 -169 137 -169 163 -203.5 c 128,-1,20
 189 -238 189 -238 249 -238 c 128,-1,21
 309 -238 309 -238 350.5 -195.5 c 128,-1,22
 392 -153 392 -153 408 -87 c 0,23,24
 411 -77 411 -77 420 -77 c 0,25,26
 433 -77 433 -77 433 -89 c 0,27,28
 433 -96 433 -96 427 -115 c 0,29,30
 413 -163 413 -163 373 -208 c 0,31,32
 325 -263 325 -263 250 -263 c 0,33,34
 150 -263 150 -263 81 -207 c 0,35,36
 43 -177 43 -177 21.5 -122.5 c 128,-1,37
 0 -68 0 -68 0 0 c 0,38,39
 0 119 0 119 64 189 c 0,40,41
 126 261 126 261 250 262 c 0,42,43
 330 262 330 262 378 207 c 128,-1,44
 426 152 426 152 426 99 c 0,45,46
 426 68 426 68 406 48 c 0,0,1
EndSplineSet
EndChar

